<svg width="176" height="95" viewBox="0 0 176 95" fill="none" xmlns="http://www.w3.org/2000/svg">
<path d="M6.53693 29H3.76705L11.7784 7.18182H14.5057L22.517 29H19.7472L13.2273 10.6335H13.0568L6.53693 29ZM7.55966 20.4773H18.7244V22.821H7.55966V20.4773ZM25.9155 29V7.18182H33.2876C34.9993 7.18182 36.3984 7.49077 37.4851 8.10866C38.5788 8.71946 39.3885 9.54688 39.9141 10.5909C40.4396 11.6349 40.7024 12.7997 40.7024 14.0852C40.7024 15.3707 40.4396 16.5391 39.9141 17.5902C39.3956 18.6413 38.593 19.4794 37.5064 20.1044C36.4197 20.7223 35.0277 21.0312 33.3303 21.0312H28.0462V18.6875H33.245C34.4169 18.6875 35.358 18.4851 36.0682 18.0803C36.7784 17.6754 37.2933 17.1286 37.6129 16.4396C37.9396 15.7436 38.103 14.9588 38.103 14.0852C38.103 13.2116 37.9396 12.4304 37.6129 11.7415C37.2933 11.0526 36.7749 10.5128 36.0575 10.1222C35.3402 9.72443 34.3885 9.52557 33.2024 9.52557H28.5575V29H25.9155ZM44.9585 29V7.18182H52.3306C54.0352 7.18182 55.4343 7.47301 56.5281 8.0554C57.6218 8.63068 58.4315 9.42258 58.957 10.4311C59.4826 11.4396 59.7454 12.5866 59.7454 13.8722C59.7454 15.1577 59.4826 16.2976 58.957 17.2919C58.4315 18.2862 57.6254 19.0675 56.5387 19.6357C55.4521 20.1967 54.0636 20.4773 52.3732 20.4773H46.4073V18.0909H52.288C53.4528 18.0909 54.3903 17.9205 55.1005 17.5795C55.8178 17.2386 56.3363 16.7557 56.6559 16.1307C56.9826 15.4986 57.146 14.7457 57.146 13.8722C57.146 12.9986 56.9826 12.2351 56.6559 11.5817C56.3292 10.9283 55.8072 10.424 55.0898 10.0689C54.3725 9.70668 53.4244 9.52557 52.2454 9.52557H47.6005V29H44.9585ZM55.2283 19.1989L60.5977 29H57.5295L52.2454 19.1989H55.2283ZM82.557 18.0909C82.557 20.392 82.1415 22.3807 81.3105 24.0568C80.4796 25.733 79.3397 27.0256 77.8908 27.9347C76.4419 28.8438 74.7871 29.2983 72.9263 29.2983C71.0655 29.2983 69.4107 28.8438 67.9618 27.9347C66.513 27.0256 65.373 25.733 64.5421 24.0568C63.7111 22.3807 63.2956 20.392 63.2956 18.0909C63.2956 15.7898 63.7111 13.8011 64.5421 12.125C65.373 10.4489 66.513 9.15625 67.9618 8.24716C69.4107 7.33807 71.0655 6.88352 72.9263 6.88352C74.7871 6.88352 76.4419 7.33807 77.8908 8.24716C79.3397 9.15625 80.4796 10.4489 81.3105 12.125C82.1415 13.8011 82.557 15.7898 82.557 18.0909ZM80.0002 18.0909C80.0002 16.2017 79.6841 14.6072 79.052 13.3075C78.427 12.0078 77.5783 11.0241 76.5059 10.3565C75.4405 9.68892 74.2473 9.35511 72.9263 9.35511C71.6053 9.35511 70.4086 9.68892 69.3361 10.3565C68.2708 11.0241 67.4221 12.0078 66.79 13.3075C66.165 14.6072 65.8525 16.2017 65.8525 18.0909C65.8525 19.9801 66.165 21.5746 66.79 22.8743C67.4221 24.174 68.2708 25.1577 69.3361 25.8253C70.4086 26.4929 71.6053 26.8267 72.9263 26.8267C74.2473 26.8267 75.4405 26.4929 76.5059 25.8253C77.5783 25.1577 78.427 24.174 79.052 22.8743C79.6841 21.5746 80.0002 19.9801 80.0002 18.0909ZM86.869 7.18182L93.3462 25.5483H93.6019L100.079 7.18182H102.849L94.8377 29H92.1104L84.0991 7.18182H86.869ZM105.267 29H102.498L110.509 7.18182H113.236L121.248 29H118.478L111.958 10.6335H111.787L105.267 29ZM106.29 20.4773H117.455V22.821H106.29V20.4773Z" fill="#E96D6D"/>
<path d="M3.85582 80V35.6364H33.7493V43.3697H13.2354V53.9407H32.2113V61.674H13.2354V72.2667H33.8359V80H3.85582ZM78.3133 35.6364V80H70.2117L50.911 52.0778H50.586V80H41.2064V35.6364H49.4379L68.5871 63.5369H68.977V35.6364H78.3133ZM86.0629 80V35.6364H115.956V43.3697H95.4425V53.9407H114.418V61.674H95.4425V72.2667H116.043V80H86.0629ZM123.413 35.6364H134.981L147.198 65.4432H147.718L159.935 35.6364H171.503V80H162.405V51.1246H162.037L150.556 79.7834H144.361L132.88 51.0163H132.511V80H123.413V35.6364Z" fill="#E96D6D"/>
</svg>
