<svg width="292" height="95" viewBox="0 0 292 95" fill="none" xmlns="http://www.w3.org/2000/svg">
<path d="M6.53693 29H3.76705L11.7784 7.18182H14.5057L22.517 29H19.7472L13.2273 10.6335H13.0568L6.53693 29ZM7.55966 20.4773H18.7244V22.821H7.55966V20.4773ZM25.9155 29V7.18182H33.2876C34.9993 7.18182 36.3984 7.49077 37.4851 8.10866C38.5788 8.71946 39.3885 9.54688 39.9141 10.5909C40.4396 11.6349 40.7024 12.7997 40.7024 14.0852C40.7024 15.3707 40.4396 16.5391 39.9141 17.5902C39.3956 18.6413 38.593 19.4794 37.5064 20.1044C36.4197 20.7223 35.0277 21.0312 33.3303 21.0312H28.0462V18.6875H33.245C34.4169 18.6875 35.358 18.4851 36.0682 18.0803C36.7784 17.6754 37.2933 17.1286 37.6129 16.4396C37.9396 15.7436 38.103 14.9588 38.103 14.0852C38.103 13.2116 37.9396 12.4304 37.6129 11.7415C37.2933 11.0526 36.7749 10.5128 36.0575 10.1222C35.3402 9.72443 34.3885 9.52557 33.2024 9.52557H28.5575V29H25.9155ZM44.9585 29V7.18182H52.3306C54.0352 7.18182 55.4343 7.47301 56.5281 8.0554C57.6218 8.63068 58.4315 9.42258 58.957 10.4311C59.4826 11.4396 59.7454 12.5866 59.7454 13.8722C59.7454 15.1577 59.4826 16.2976 58.957 17.2919C58.4315 18.2862 57.6254 19.0675 56.5387 19.6357C55.4521 20.1967 54.0636 20.4773 52.3732 20.4773H46.4073V18.0909H52.288C53.4528 18.0909 54.3903 17.9205 55.1005 17.5795C55.8178 17.2386 56.3363 16.7557 56.6559 16.1307C56.9826 15.4986 57.146 14.7457 57.146 13.8722C57.146 12.9986 56.9826 12.2351 56.6559 11.5817C56.3292 10.9283 55.8072 10.424 55.0898 10.0689C54.3725 9.70668 53.4244 9.52557 52.2454 9.52557H47.6005V29H44.9585ZM55.2283 19.1989L60.5977 29H57.5295L52.2454 19.1989H55.2283ZM82.557 18.0909C82.557 20.392 82.1415 22.3807 81.3105 24.0568C80.4796 25.733 79.3397 27.0256 77.8908 27.9347C76.4419 28.8438 74.7871 29.2983 72.9263 29.2983C71.0655 29.2983 69.4107 28.8438 67.9618 27.9347C66.513 27.0256 65.373 25.733 64.5421 24.0568C63.7111 22.3807 63.2956 20.392 63.2956 18.0909C63.2956 15.7898 63.7111 13.8011 64.5421 12.125C65.373 10.4489 66.513 9.15625 67.9618 8.24716C69.4107 7.33807 71.0655 6.88352 72.9263 6.88352C74.7871 6.88352 76.4419 7.33807 77.8908 8.24716C79.3397 9.15625 80.4796 10.4489 81.3105 12.125C82.1415 13.8011 82.557 15.7898 82.557 18.0909ZM80.0002 18.0909C80.0002 16.2017 79.6841 14.6072 79.052 13.3075C78.427 12.0078 77.5783 11.0241 76.5059 10.3565C75.4405 9.68892 74.2473 9.35511 72.9263 9.35511C71.6053 9.35511 70.4086 9.68892 69.3361 10.3565C68.2708 11.0241 67.4221 12.0078 66.79 13.3075C66.165 14.6072 65.8525 16.2017 65.8525 18.0909C65.8525 19.9801 66.165 21.5746 66.79 22.8743C67.4221 24.174 68.2708 25.1577 69.3361 25.8253C70.4086 26.4929 71.6053 26.8267 72.9263 26.8267C74.2473 26.8267 75.4405 26.4929 76.5059 25.8253C77.5783 25.1577 78.427 24.174 79.052 22.8743C79.6841 21.5746 80.0002 19.9801 80.0002 18.0909ZM86.869 7.18182L93.3462 25.5483H93.6019L100.079 7.18182H102.849L94.8377 29H92.1104L84.0991 7.18182H86.869ZM105.267 29H102.498L110.509 7.18182H113.236L121.248 29H118.478L111.958 10.6335H111.787L105.267 29ZM106.29 20.4773H117.455V22.821H106.29V20.4773Z" fill="#FF6633"/>
<path d="M3.85582 80V35.6364H33.7493V43.3697H13.2354V53.9407H32.2113V61.674H13.2354V72.2667H33.8359V80H3.85582ZM78.3133 35.6364V80H70.2117L50.911 52.0778H50.586V80H41.2064V35.6364H49.4379L68.5871 63.5369H68.977V35.6364H78.3133ZM125.206 51.168H115.718C115.545 49.9405 115.191 48.8501 114.657 47.897C114.122 46.9294 113.436 46.1063 112.599 45.4276C111.761 44.7488 110.794 44.2289 109.696 43.8679C108.613 43.5069 107.436 43.3264 106.165 43.3264C103.869 43.3264 101.869 43.8968 100.165 45.0376C98.4607 46.1641 97.1393 47.8104 96.2006 49.9766C95.262 52.1283 94.7926 54.7422 94.7926 57.8182C94.7926 60.9808 95.262 63.638 96.2006 65.7898C97.1538 67.9415 98.4824 69.5662 100.186 70.6637C101.891 71.7612 103.862 72.31 106.1 72.31C107.357 72.31 108.519 72.1439 109.588 71.8118C110.671 71.4796 111.631 70.9959 112.469 70.3604C113.306 69.7106 114 68.9235 114.548 67.9993C115.112 67.075 115.501 66.0208 115.718 64.8366L125.206 64.88C124.96 66.9162 124.347 68.8802 123.365 70.772C122.397 72.6494 121.09 74.3318 119.444 75.8192C117.812 77.2923 115.862 78.462 113.595 79.3285C111.342 80.1805 108.793 80.6065 105.949 80.6065C101.992 80.6065 98.4535 79.7112 95.3342 77.9205C92.2293 76.1297 89.7743 73.5375 87.9691 70.1438C86.1784 66.7501 85.283 62.6416 85.283 57.8182C85.283 52.9803 86.1928 48.8646 88.0124 45.4709C89.832 42.0772 92.3015 39.4922 95.4208 37.7159C98.5401 35.9252 102.049 35.0298 105.949 35.0298C108.519 35.0298 110.902 35.3909 113.097 36.1129C115.306 36.835 117.263 37.8892 118.967 39.2756C120.671 40.6475 122.058 42.3299 123.126 44.3228C124.21 46.3157 124.903 48.5974 125.206 51.168ZM171.075 51.168H161.587C161.414 49.9405 161.06 48.8501 160.526 47.897C159.991 46.9294 159.305 46.1063 158.468 45.4276C157.63 44.7488 156.663 44.2289 155.565 43.8679C154.482 43.5069 153.305 43.3264 152.034 43.3264C149.738 43.3264 147.738 43.8968 146.034 45.0376C144.33 46.1641 143.008 47.8104 142.07 49.9766C141.131 52.1283 140.662 54.7422 140.662 57.8182C140.662 60.9808 141.131 63.638 142.07 65.7898C143.023 67.9415 144.352 69.5662 146.056 70.6637C147.76 71.7612 149.731 72.31 151.969 72.31C153.226 72.31 154.388 72.1439 155.457 71.8118C156.54 71.4796 157.5 70.9959 158.338 70.3604C159.175 69.7106 159.869 68.9235 160.417 67.9993C160.981 67.075 161.371 66.0208 161.587 64.8366L171.075 64.88C170.83 66.9162 170.216 68.8802 169.234 70.772C168.266 72.6494 166.959 74.3318 165.313 75.8192C163.681 77.2923 161.732 78.462 159.464 79.3285C157.211 80.1805 154.663 80.6065 151.818 80.6065C147.861 80.6065 144.323 79.7112 141.203 77.9205C138.098 76.1297 135.643 73.5375 133.838 70.1438C132.048 66.7501 131.152 62.6416 131.152 57.8182C131.152 52.9803 132.062 48.8646 133.882 45.4709C135.701 42.0772 138.171 39.4922 141.29 37.7159C144.409 35.9252 147.919 35.0298 151.818 35.0298C154.388 35.0298 156.771 35.3909 158.966 36.1129C161.176 36.835 163.132 37.8892 164.836 39.2756C166.541 40.6475 167.927 42.3299 168.996 44.3228C170.079 46.3157 170.772 48.5974 171.075 51.168ZM177.801 80V35.6364H207.695V43.3697H187.181V53.9407H206.157V61.674H187.181V72.2667H207.781V80H177.801ZM232.915 35.6364H242.186V66.5696C242.186 69.429 241.543 71.9129 240.258 74.0213C238.987 76.1297 237.218 77.7544 234.951 78.8952C232.683 80.0361 230.048 80.6065 227.044 80.6065C224.372 80.6065 221.946 80.1372 219.766 79.1985C217.6 78.2454 215.881 76.8013 214.61 74.8661C213.339 72.9165 212.711 70.4687 212.726 67.5227H222.062C222.091 68.6925 222.329 69.6961 222.777 70.5337C223.239 71.3569 223.867 71.9923 224.661 72.44C225.47 72.8732 226.423 73.0898 227.521 73.0898C228.676 73.0898 229.651 72.8443 230.445 72.3533C231.254 71.8479 231.868 71.1114 232.286 70.1438C232.705 69.1763 232.915 67.9848 232.915 66.5696V35.6364ZM257.587 80H247.536L262.851 35.6364H274.939L290.232 80H280.181L269.068 45.7741H268.722L257.587 80ZM256.959 62.5621H280.701V69.8839H256.959V62.5621Z" fill="#FF6633"/>
</svg>
