<svg width="686" height="95" viewBox="0 0 686 95" fill="none" xmlns="http://www.w3.org/2000/svg">
<path d="M6.53693 29H3.76705L11.7784 7.18182H14.5057L22.517 29H19.7472L13.2273 10.6335H13.0568L6.53693 29ZM7.55966 20.4773H18.7244V22.821H7.55966V20.4773ZM25.9155 29V7.18182H33.2876C34.9993 7.18182 36.3984 7.49077 37.4851 8.10866C38.5788 8.71946 39.3885 9.54688 39.9141 10.5909C40.4396 11.6349 40.7024 12.7997 40.7024 14.0852C40.7024 15.3707 40.4396 16.5391 39.9141 17.5902C39.3956 18.6413 38.593 19.4794 37.5064 20.1044C36.4197 20.7223 35.0277 21.0312 33.3303 21.0312H28.0462V18.6875H33.245C34.4169 18.6875 35.358 18.4851 36.0682 18.0803C36.7784 17.6754 37.2933 17.1286 37.6129 16.4396C37.9396 15.7436 38.103 14.9588 38.103 14.0852C38.103 13.2116 37.9396 12.4304 37.6129 11.7415C37.2933 11.0526 36.7749 10.5128 36.0575 10.1222C35.3402 9.72443 34.3885 9.52557 33.2024 9.52557H28.5575V29H25.9155ZM44.9585 29V7.18182H52.3306C54.0352 7.18182 55.4343 7.47301 56.5281 8.0554C57.6218 8.63068 58.4315 9.42258 58.957 10.4311C59.4826 11.4396 59.7454 12.5866 59.7454 13.8722C59.7454 15.1577 59.4826 16.2976 58.957 17.2919C58.4315 18.2862 57.6254 19.0675 56.5387 19.6357C55.4521 20.1967 54.0636 20.4773 52.3732 20.4773H46.4073V18.0909H52.288C53.4528 18.0909 54.3903 17.9205 55.1005 17.5795C55.8178 17.2386 56.3363 16.7557 56.6559 16.1307C56.9826 15.4986 57.146 14.7457 57.146 13.8722C57.146 12.9986 56.9826 12.2351 56.6559 11.5817C56.3292 10.9283 55.8072 10.424 55.0898 10.0689C54.3725 9.70668 53.4244 9.52557 52.2454 9.52557H47.6005V29H44.9585ZM55.2283 19.1989L60.5977 29H57.5295L52.2454 19.1989H55.2283ZM82.557 18.0909C82.557 20.392 82.1415 22.3807 81.3105 24.0568C80.4796 25.733 79.3397 27.0256 77.8908 27.9347C76.4419 28.8438 74.7871 29.2983 72.9263 29.2983C71.0655 29.2983 69.4107 28.8438 67.9618 27.9347C66.513 27.0256 65.373 25.733 64.5421 24.0568C63.7111 22.3807 63.2956 20.392 63.2956 18.0909C63.2956 15.7898 63.7111 13.8011 64.5421 12.125C65.373 10.4489 66.513 9.15625 67.9618 8.24716C69.4107 7.33807 71.0655 6.88352 72.9263 6.88352C74.7871 6.88352 76.4419 7.33807 77.8908 8.24716C79.3397 9.15625 80.4796 10.4489 81.3105 12.125C82.1415 13.8011 82.557 15.7898 82.557 18.0909ZM80.0002 18.0909C80.0002 16.2017 79.6841 14.6072 79.052 13.3075C78.427 12.0078 77.5783 11.0241 76.5059 10.3565C75.4405 9.68892 74.2473 9.35511 72.9263 9.35511C71.6053 9.35511 70.4086 9.68892 69.3361 10.3565C68.2708 11.0241 67.4221 12.0078 66.79 13.3075C66.165 14.6072 65.8525 16.2017 65.8525 18.0909C65.8525 19.9801 66.165 21.5746 66.79 22.8743C67.4221 24.174 68.2708 25.1577 69.3361 25.8253C70.4086 26.4929 71.6053 26.8267 72.9263 26.8267C74.2473 26.8267 75.4405 26.4929 76.5059 25.8253C77.5783 25.1577 78.427 24.174 79.052 22.8743C79.6841 21.5746 80.0002 19.9801 80.0002 18.0909ZM86.869 7.18182L93.3462 25.5483H93.6019L100.079 7.18182H102.849L94.8377 29H92.1104L84.0991 7.18182H86.869ZM105.267 29H102.498L110.509 7.18182H113.236L121.248 29H118.478L111.958 10.6335H111.787L105.267 29ZM106.29 20.4773H117.455V22.821H106.29V20.4773Z" fill="#5F96E7"/>
<path d="M3.85582 80V35.6364H33.7493V43.3697H13.2354V53.9407H32.2113V61.674H13.2354V72.2667H33.8359V80H3.85582ZM50.0012 35.6364L58.9475 50.7564H59.2941L68.2838 35.6364H78.8765L65.3378 57.8182L79.1798 80H68.3921L59.2941 64.8583H58.9475L49.8495 80H39.1052L52.9905 57.8182L39.3651 35.6364H50.0012ZM92.4585 80H82.4074L97.7224 35.6364H109.81L125.103 80H115.052L103.939 45.7741H103.593L92.4585 80ZM91.8303 62.5621H115.572V69.8839H91.8303V62.5621ZM130.443 35.6364H142.01L154.228 65.4432H154.747L166.965 35.6364H178.532V80H169.434V51.1246H169.066L157.585 79.7834H151.39L139.909 51.0163H139.541V80H130.443V35.6364ZM186.26 80V35.6364H216.154V43.3697H195.64V53.9407H214.616V61.674H195.64V72.2667H216.24V80H186.26Z" fill="#5F96E7"/>
<rect x="231" y="35" width="51" height="47" rx="10" fill="#5F96E7"/>
<path d="M245.631 70H237.896V48.1818H245.695C247.889 48.1818 249.778 48.6186 251.362 49.4922C252.946 50.3587 254.164 51.6051 255.016 53.2315C255.876 54.858 256.305 56.804 256.305 59.0696C256.305 61.3423 255.876 63.2955 255.016 64.929C254.164 66.5625 252.939 67.8161 251.341 68.6896C249.75 69.5632 247.847 70 245.631 70ZM242.509 66.0476H245.439C246.803 66.0476 247.95 65.8061 248.88 65.3232C249.817 64.8331 250.521 64.0767 250.989 63.054C251.465 62.0241 251.703 60.696 251.703 59.0696C251.703 57.4574 251.465 56.1399 250.989 55.1172C250.521 54.0945 249.821 53.3416 248.891 52.8587C247.96 52.3757 246.813 52.1342 245.45 52.1342H242.509V66.0476ZM259.722 70V48.1818H274.424V51.9851H264.335V57.1839H273.668V60.9872H264.335V66.1967H274.467V70H259.722Z" fill="white"/>
<path d="M321.922 48.3952C321.749 46.6478 321.005 45.2904 319.691 44.3228C318.377 43.3552 316.593 42.8714 314.341 42.8714C312.81 42.8714 311.517 43.0881 310.463 43.5213C309.409 43.9401 308.6 44.525 308.037 45.2759C307.488 46.0269 307.214 46.8789 307.214 47.832C307.185 48.6263 307.351 49.3195 307.712 49.9116C308.087 50.5037 308.6 51.0163 309.25 51.4496C309.9 51.8684 310.651 52.2366 311.503 52.5543C312.355 52.8576 313.265 53.1175 314.232 53.3342L318.218 54.2873C320.153 54.7205 321.929 55.2982 323.547 56.0202C325.164 56.7423 326.565 57.6304 327.749 58.6847C328.933 59.7389 329.85 60.9808 330.5 62.4105C331.165 63.8402 331.504 65.4793 331.518 67.3278C331.504 70.0427 330.811 72.3967 329.439 74.3896C328.081 76.368 326.117 77.906 323.547 79.0036C320.991 80.0866 317.908 80.6282 314.297 80.6282C310.716 80.6282 307.596 80.0794 304.939 78.9819C302.297 77.8844 300.231 76.2597 298.744 74.108C297.271 71.9418 296.498 69.2629 296.426 66.0714H305.502C305.604 67.5588 306.03 68.8008 306.781 69.7972C307.546 70.7792 308.564 71.523 309.835 72.0284C311.12 72.5194 312.571 72.7649 314.189 72.7649C315.777 72.7649 317.157 72.5339 318.326 72.0717C319.511 71.6096 320.428 70.967 321.077 70.1438C321.727 69.3207 322.052 68.3748 322.052 67.3061C322.052 66.3097 321.756 65.4721 321.164 64.7933C320.586 64.1146 319.734 63.5369 318.608 63.0604C317.496 62.5838 316.131 62.1506 314.514 61.7607L309.683 60.5476C305.943 59.6378 302.99 58.2153 300.824 56.2802C298.657 54.3451 297.581 51.7384 297.596 48.4602C297.581 45.7741 298.296 43.4274 299.74 41.4201C301.199 39.4128 303.199 37.8459 305.741 36.7195C308.282 35.593 311.171 35.0298 314.406 35.0298C317.698 35.0298 320.572 35.593 323.027 36.7195C325.496 37.8459 327.417 39.4128 328.789 41.4201C330.161 43.4274 330.869 45.7525 330.912 48.3952H321.922ZM365.23 35.6364H374.609V64.4467C374.609 67.6816 373.837 70.5121 372.292 72.9382C370.761 75.3643 368.616 77.2562 365.858 78.6136C363.1 79.9567 359.887 80.6282 356.218 80.6282C352.536 80.6282 349.316 79.9567 346.557 78.6136C343.799 77.2562 341.654 75.3643 340.124 72.9382C338.593 70.5121 337.828 67.6816 337.828 64.4467V35.6364H347.207V63.6452C347.207 65.3349 347.575 66.8368 348.312 68.1509C349.063 69.4651 350.117 70.4976 351.475 71.2486C352.832 71.9995 354.413 72.375 356.218 72.375C358.038 72.375 359.619 71.9995 360.962 71.2486C362.32 70.4976 363.367 69.4651 364.103 68.1509C364.854 66.8368 365.23 65.3349 365.23 63.6452V35.6364ZM382.327 80V35.6364H411.7V43.3697H391.706V53.9407H409.751V61.674H391.706V80H382.327ZM427.389 35.6364V80H418.009V35.6364H427.389ZM474.249 51.168H464.761C464.588 49.9405 464.234 48.8501 463.7 47.897C463.165 46.9294 462.479 46.1063 461.642 45.4276C460.804 44.7488 459.837 44.2289 458.739 43.8679C457.656 43.5069 456.479 43.3264 455.208 43.3264C452.912 43.3264 450.912 43.8968 449.208 45.0376C447.504 46.1641 446.182 47.8104 445.244 49.9766C444.305 52.1283 443.836 54.7422 443.836 57.8182C443.836 60.9808 444.305 63.638 445.244 65.7898C446.197 67.9415 447.525 69.5662 449.229 70.6637C450.933 71.7612 452.905 72.31 455.143 72.31C456.4 72.31 457.562 72.1439 458.631 71.8118C459.714 71.4796 460.674 70.9959 461.512 70.3604C462.349 69.7106 463.042 68.9235 463.591 67.9993C464.154 67.075 464.544 66.0208 464.761 64.8366L474.249 64.88C474.003 66.9162 473.39 68.8802 472.408 70.772C471.44 72.6494 470.133 74.3318 468.487 75.8192C466.855 77.2923 464.905 78.462 462.638 79.3285C460.385 80.1805 457.836 80.6065 454.991 80.6065C451.035 80.6065 447.496 79.7112 444.377 77.9205C441.272 76.1297 438.817 73.5375 437.012 70.1438C435.221 66.7501 434.326 62.6416 434.326 57.8182C434.326 52.9803 435.236 48.8646 437.055 45.4709C438.875 42.0772 441.344 39.4922 444.464 37.7159C447.583 35.9252 451.092 35.0298 454.991 35.0298C457.562 35.0298 459.945 35.3909 462.14 36.1129C464.349 36.835 466.306 37.8892 468.01 39.2756C469.714 40.6475 471.101 42.3299 472.169 44.3228C473.252 46.3157 473.946 48.5974 474.249 51.168ZM490.355 35.6364V80H480.975V35.6364H490.355ZM498.072 80V35.6364H527.965V43.3697H507.451V53.9407H526.427V61.674H507.451V72.2667H528.052V80H498.072ZM517.437 31.6506L513.083 26.3651L508.729 31.6506H500.866V31.3473L509.639 21.816H516.506L525.301 31.3473V31.6506H517.437ZM572.529 35.6364V80H564.428L545.127 52.0778H544.802V80H535.422V35.6364H543.654L562.803 63.5369H563.193V35.6364H572.529ZM619.422 51.168H609.934C609.761 49.9405 609.407 48.8501 608.872 47.897C608.338 46.9294 607.652 46.1063 606.815 45.4276C605.977 44.7488 605.009 44.2289 603.912 43.8679C602.829 43.5069 601.652 43.3264 600.381 43.3264C598.085 43.3264 596.085 43.8968 594.381 45.0376C592.677 46.1641 591.355 47.8104 590.416 49.9766C589.478 52.1283 589.008 54.7422 589.008 57.8182C589.008 60.9808 589.478 63.638 590.416 65.7898C591.37 67.9415 592.698 69.5662 594.402 70.6637C596.106 71.7612 598.078 72.31 600.316 72.31C601.572 72.31 602.735 72.1439 603.804 71.8118C604.887 71.4796 605.847 70.9959 606.685 70.3604C607.522 69.7106 608.215 68.9235 608.764 67.9993C609.327 67.075 609.717 66.0208 609.934 64.8366L619.422 64.88C619.176 66.9162 618.563 68.8802 617.581 70.772C616.613 72.6494 615.306 74.3318 613.66 75.8192C612.028 77.2923 610.078 78.462 607.811 79.3285C605.558 80.1805 603.009 80.6065 600.164 80.6065C596.207 80.6065 592.669 79.7112 589.55 77.9205C586.445 76.1297 583.99 73.5375 582.185 70.1438C580.394 66.7501 579.499 62.6416 579.499 57.8182C579.499 52.9803 580.409 48.8646 582.228 45.4709C584.048 42.0772 586.517 39.4922 589.637 37.7159C592.756 35.9252 596.265 35.0298 600.164 35.0298C602.735 35.0298 605.118 35.3909 607.313 36.1129C609.522 36.835 611.479 37.8892 613.183 39.2756C614.887 40.6475 616.274 42.3299 617.342 44.3228C618.425 46.3157 619.119 48.5974 619.422 51.168ZM635.527 35.6364V80H626.148V35.6364H635.527ZM650.891 80H640.84L656.155 35.6364H668.242L683.536 80H673.485L662.372 45.7741H662.025L650.891 80ZM650.263 62.5621H674.004V69.8839H650.263V62.5621Z" fill="#5F96E7"/>
</svg>
