<svg width="217" height="64" viewBox="0 0 217 64" fill="none" xmlns="http://www.w3.org/2000/svg">
<g clip-path="url(#clip0_29_285)">
<path d="M151.44 17.0312C147.96 17.0312 146.161 19.2467 146.161 23.5687H149.542C149.542 22.0258 150.054 20.2258 151.587 20.2258C153.838 20.2258 154.654 23.727 158.143 23.727C161.623 23.727 163.422 21.4621 163.422 17.1895H160.04C160.04 18.6829 159.529 20.5324 157.996 20.5324C155.735 20.5324 154.968 17.0312 151.44 17.0312ZM128.046 20.2258V27.3864H124.566V31.4018H127.947V43.913C127.947 52.6165 134.553 53.6451 137.826 53.6451C138.897 53.6451 139.566 53.5462 139.566 53.5462V49.1153C139.566 49.1153 139.104 49.2142 138.386 49.2142C136.489 49.2142 132.911 48.5417 132.911 43.3394V31.4018H139.104V27.3864H132.911V20.2258H128.046ZM90.4288 26.7633C83.0568 26.7633 77.4245 32.1238 77.4245 40.4119C77.4245 48.1362 83.0076 54.0605 91.1955 54.0605C97.3388 54.0605 101.172 50.2428 101.172 50.2428L99.0196 46.6922C99.0196 46.6922 95.8939 49.7285 91.4412 49.7285C86.8312 49.7285 82.8405 46.5834 82.5358 41.0251H101.428C101.428 41.0251 101.585 39.6305 101.585 38.9679C101.595 32.2227 97.7025 26.7633 90.4288 26.7633ZM113.813 26.7633C108.544 26.7633 104.19 29.0875 104.19 34.0821C104.19 42.4789 118.324 41.9646 118.324 46.6526C118.324 48.9175 116.231 49.9956 113.823 49.9956C109.065 49.9956 105.989 46.1285 105.989 46.1285L103.433 49.4714C103.433 49.4714 106.863 54.0605 113.773 54.0605C119.199 54.0605 123.298 51.0736 123.298 46.4351C123.298 37.7316 109.173 38.8096 109.173 33.8645C109.173 31.8073 111.07 30.7688 113.99 30.7688C115.572 30.7688 117.882 31.4414 117.882 32.9843V34.27H122.335V31.7974C122.305 27.8512 116.939 26.7633 113.813 26.7633ZM154.811 26.7633C147.085 26.7633 140.893 32.4799 140.893 40.3624C140.893 48.2944 147.085 54.0605 154.811 54.0605C162.537 54.0605 168.788 48.2944 168.788 40.3624C168.788 32.4799 162.547 26.7633 154.811 26.7633ZM183.641 26.7633C176.269 26.7633 170.636 32.1238 170.636 40.4119C170.636 48.1362 176.219 54.0605 184.407 54.0605C190.551 54.0605 194.394 50.2428 194.394 50.2428L192.241 46.6922C192.241 46.6922 189.115 49.7285 184.663 49.7285C180.053 49.7285 176.062 46.5834 175.757 41.0251H194.649C194.649 41.0251 194.807 39.6305 194.807 38.9679C194.807 32.2227 190.914 26.7633 183.641 26.7633ZM207.025 26.7633C201.756 26.7633 197.402 29.0875 197.402 34.0821C197.402 42.4789 211.526 41.9646 211.526 46.6526C211.526 48.9175 209.433 49.9956 207.025 49.9956C202.267 49.9956 199.191 46.1285 199.191 46.1285L196.635 49.4714C196.635 49.4714 200.065 54.0605 206.975 54.0605C212.401 54.0605 216.5 51.0736 216.5 46.4351C216.5 37.7316 202.365 38.8096 202.365 33.8645C202.365 31.8073 204.262 30.7688 207.182 30.7688C208.764 30.7688 211.074 31.4414 211.074 32.9843V34.27H215.527V31.7974C215.517 27.8512 210.15 26.7633 207.025 26.7633ZM68.1063 27.3864V39.591C68.1063 44.7438 64.9806 49.4318 59.6629 49.4318C55.5641 49.4318 54.8465 46.5438 54.8465 42.9438V30.5809C54.8465 28.86 54.2469 27.8908 52.8708 27.5446C52.8708 27.5743 52.8708 27.5941 52.8708 27.6138C53.7849 33.2315 49.8729 39.6108 49.8729 44.0812C49.8729 50.9846 52.8413 54.0703 58.68 54.0703C63.8011 54.0703 67.1332 50.6681 68.2046 48.0966H68.3029C68.3029 48.0966 68.2538 48.7692 68.2538 49.59V50.5692C68.2538 52.4187 69.3252 53.4571 71.5269 53.4571H76.2843V49.1846H74.1808C73.4633 49.1846 73.0505 48.8285 73.0505 48.0571V27.3864H68.1063ZM90.3796 30.7293C93.6036 30.7293 96.3165 33.0436 96.4738 37.3756H82.752C83.5187 33.0535 86.5953 30.7293 90.3796 30.7293ZM183.591 30.7293C186.815 30.7293 189.528 33.0436 189.686 37.3756H175.964C176.73 33.0535 179.807 30.7293 183.591 30.7293ZM154.811 31.0952C159.726 31.0952 163.716 34.9623 163.716 40.3624C163.716 45.8219 159.726 49.7384 154.811 49.7384C149.945 49.7384 145.955 45.8219 145.955 40.3624C145.955 34.9524 149.945 31.0952 154.811 31.0952Z" fill="white"/>
<path d="M32.4061 57.0176C29.2213 58.2341 26.0366 61.1616 22.8421 61.7946C22.8716 62.4869 22.9109 63.1792 22.9502 63.8518C26.5773 64.2276 30.0962 63.9309 33.4775 62.7539C33.3398 60.855 32.8484 58.9857 32.4061 57.0176Z" fill="#159D30"/>
<path d="M23.9921 43.9722C23.1665 48.136 22.7537 52.8042 22.7537 58.0065C22.7537 59.0648 22.7831 60.1032 22.8225 61.112C25.899 60.3604 28.9756 56.8296 32.0522 55.1878C31.4526 51.924 31.2757 48.3437 33.2121 43.9821H23.9921V43.9722ZM24.7883 0C16.974 0 10.9584 2.21542 6.75147 6.64627C2.58382 11.0771 0.5 17.3179 0.5 25.3686C0.5 32.7072 2.22997 38.5424 5.68007 42.8744C7.68526 45.3865 10.2212 47.2657 13.2487 48.5613C13.6517 45.8217 14.1726 43.2106 14.841 40.7578C14.3102 40.3128 13.8089 39.8381 13.3568 39.304C10.752 36.1094 9.44471 31.4709 9.44471 25.3686C9.44471 19.2762 10.752 14.6475 13.3568 11.5024C16.0107 8.35729 19.8147 6.78473 24.7883 6.78473C29.762 6.78473 33.5463 8.35729 36.1511 11.5024C38.7558 14.6475 40.0533 19.2663 40.0533 25.3686C40.0533 31.4709 38.7558 36.1094 36.1511 39.304C33.5463 42.4491 29.762 44.0216 24.7883 44.0216C24.5131 44.0216 24.2575 43.992 23.9921 43.9821V48.6503L27.747 50.4404C34.598 49.847 39.8666 47.4239 43.5329 43.1612C47.2287 38.8292 49.0668 32.8951 49.0668 25.3686C49.0668 17.3179 46.9633 11.0771 42.7466 6.64627C38.5396 2.22531 32.5535 0.00989028 24.7883 0Z" fill="white"/>
<path d="M111.37 13.763C111.37 16.1372 113.423 17.3024 115.407 17.3024C118.383 17.3024 119.371 14.7127 119.349 14.7127H119.397C119.397 14.7127 119.375 15.0688 119.375 15.592C119.375 16.5637 119.777 17.0166 120.791 17.0166H122.421V15.614H121.429C121.097 15.614 120.909 15.4469 120.909 15.0908V9.36615C120.909 6.80281 120.013 4.78467 116.259 4.78467C115.219 4.78467 112.388 5.14082 112.388 6.80282V7.94159H113.922V7.18094C113.922 6.30157 115.643 6.13449 116.233 6.13449C118.405 6.13449 119.301 7.01386 119.301 9.50685V9.64755H118.641C116.583 9.65635 111.37 9.79704 111.37 13.763ZM113.021 13.6662C113.021 10.9842 116.749 10.9358 118.615 10.9358H119.301V11.481C119.301 13.5475 117.933 15.9218 115.665 15.9218C113.895 15.9218 113.021 14.783 113.021 13.6662ZM104.549 17.0166H106.296L110.168 7.01826C110.308 6.59177 110.57 6.47306 110.994 6.47306H111.208V5.07047H110.596C109.486 5.07047 109.132 5.3079 108.73 6.37633L105.873 13.8333C105.658 14.4269 105.471 15.2359 105.471 15.2359H105.422C105.422 15.2359 105.235 14.4269 105.02 13.8333L102.163 6.37633C101.761 5.3079 101.407 5.07047 100.275 5.07047H99.6369V6.47306H99.8511C100.275 6.47306 100.511 6.59177 100.677 7.01826L104.549 17.0166ZM87.0172 10.9842C87.0172 14.594 89.8269 17.3024 93.2965 17.3024C96.7442 17.3024 99.5496 14.594 99.5496 10.9842C99.5496 7.44474 96.7398 4.78467 93.2703 4.78467C89.8269 4.78467 87.0172 7.44474 87.0172 10.9842ZM88.6689 10.9842C88.6689 8.27574 90.7446 6.2576 93.2965 6.2576C95.8222 6.2576 97.8978 8.27574 97.8978 10.9842C97.8978 13.763 95.8222 15.8515 93.2965 15.8515C90.7446 15.8515 88.6689 13.763 88.6689 10.9842ZM81.0219 17.0166H82.6256V11.9823C82.6256 11.2216 82.7217 10.417 82.9577 9.65634C83.4777 7.89762 84.7274 6.56979 86.4054 6.56979C86.7113 6.56979 86.9953 6.61814 86.9953 6.61814V5.0265C86.9953 5.0265 86.6895 4.95615 86.3574 4.95615C84.4915 4.95615 83.1718 6.33235 82.6038 8.13944H82.5557C82.5557 8.13944 82.6038 7.73494 82.6038 7.2381V6.42909C82.6038 5.47937 82.1537 5.07486 81.1661 5.07486H79.51V6.47744H80.5019C80.834 6.47744 81.0219 6.66651 81.0219 7.00067V17.0166ZM68.105 21.7652H69.7087V16.0889C69.7087 15.4733 69.6606 15.0424 69.6606 15.0424H69.7087C69.7087 15.0424 70.7006 17.298 73.6021 17.298C76.6697 17.298 78.9113 14.827 78.9113 11.0545C78.9113 7.34801 76.9275 4.78467 73.742 4.78467C70.6045 4.78467 69.6606 7.13697 69.6606 7.13697H69.6126C69.6126 7.13697 69.6344 6.80281 69.6344 6.32795C69.6344 5.49696 69.2324 5.07047 68.2186 5.07047H66.5887V6.47306H67.5806C67.9127 6.47306 68.1006 6.66211 68.1006 6.99626L68.105 21.7652ZM69.665 11.0809C69.665 7.68657 71.5309 6.262 73.5104 6.262C75.7302 6.262 77.264 8.13944 77.264 11.0589C77.264 14.0971 75.5423 15.8778 73.4404 15.8778C70.9628 15.8778 69.665 13.4772 69.665 11.0809ZM55.4678 13.763C55.4678 16.1372 57.5215 17.3024 59.5054 17.3024C62.4812 17.3024 63.4687 14.7127 63.4469 14.7127H63.495C63.495 14.7127 63.4731 15.0688 63.4731 15.592C63.4731 16.5637 63.8751 17.0166 64.8889 17.0166H66.5188V15.614H65.5269C65.1948 15.614 65.0069 15.4469 65.0069 15.0908V9.36615C65.0069 6.80281 64.1111 4.78467 60.3575 4.78467C59.3175 4.78467 56.4859 5.14082 56.4859 6.80282V7.94159H58.0197V7.18094C58.0197 6.30157 59.7414 6.13449 60.3313 6.13449C62.503 6.13449 63.3988 7.01386 63.3988 9.50685V9.64755H62.739C60.6809 9.65635 55.4678 9.79704 55.4678 13.763ZM57.1195 13.6662C57.1195 10.9842 60.8469 10.9358 62.7128 10.9358H63.3988V11.481C63.3988 13.5475 62.0311 15.9218 59.7632 15.9218C57.9935 15.9218 57.1195 14.783 57.1195 13.6662Z" fill="white" fill-opacity="0.642"/>
</g>
<defs>
<clipPath id="clip0_29_285">
<rect width="216" height="64" fill="white" transform="translate(0.5)"/>
</clipPath>
</defs>
</svg>
