<svg width="206" height="76" viewBox="0 0 206 76" fill="none" xmlns="http://www.w3.org/2000/svg">
<path d="M4.48228 45.0171L0.670166 68.0442H6.83048L10.6426 45.0171H4.48228Z" fill="white" fill-opacity="0.196"/>
<path d="M13.1069 45.0171L9.2948 68.0442H20.0756L23.8878 45.0171H13.1069Z" fill="white" fill-opacity="0.402"/>
<path d="M26.249 45.0168L22.4381 68.0427H34.5252L33.6658 64.9529L24.458 61.7772L32.5658 56.3593L32.7235 46.5713L40.3524 52.6508L43.6335 51.6375L44.7312 45.0156H26.249V45.0168Z" fill="white" fill-opacity="0.6039"/>
<path d="M196.526 44.0328C193.918 44.0328 191.547 44.748 189.366 46.1785C188.75 46.6076 188.608 47.1322 188.94 47.752L189.983 49.7547C190.362 50.4222 190.884 50.5176 191.5 50.0408C192.922 49.0395 194.345 48.5149 195.815 48.5149C198.517 48.5149 199.892 49.7547 199.892 52.2819C199.892 52.711 199.845 53.3309 199.703 54.0938H195.103C188.797 54.0938 185.573 56.8594 185.573 62.0091C185.573 66.3959 188.465 68.8754 193.634 68.8754C199.56 68.8754 203.022 65.9191 203.923 60.0064L204.966 53.4739C205.061 52.8064 205.108 52.1388 205.108 51.5189C205.108 46.703 202.026 44.0328 196.526 44.0328ZM194.013 64.3932C191.879 64.3932 190.789 63.4873 190.789 61.6276C190.789 59.2912 192.401 57.9561 195.388 57.9561H199.086L198.849 59.3866C198.328 62.7243 196.716 64.3932 194.013 64.3932ZM185.603 49.0871C186.267 49.0871 186.646 48.7534 186.741 48.0858L187.073 45.797C187.215 44.9864 186.883 44.605 186.077 44.605H180.435L181.241 39.5983C181.383 38.7877 181.051 38.4062 180.245 38.4062H177.258C176.594 38.4062 176.215 38.74 176.12 39.4076L175.266 44.605H173.228C172.564 44.605 172.185 44.9388 172.09 45.6063L171.71 47.8951C171.568 48.7057 171.9 49.0871 172.706 49.0871H174.555L172.754 60.6263C172.659 61.2939 172.611 61.9137 172.611 62.4859C172.611 66.6343 175.266 68.8754 180.008 68.8754C181.478 68.8754 182.711 68.637 183.801 68.2078C184.37 67.9694 184.56 67.4926 184.417 66.7774L183.943 64.727C183.801 64.0118 183.327 63.821 182.568 64.0595C181.952 64.2979 181.383 64.3932 180.767 64.3932C178.823 64.3932 177.827 63.4873 177.827 61.723C177.827 61.3892 177.827 61.1031 177.874 60.9124L179.723 49.0871H185.603ZM161.566 44.0328C155.924 44.0328 152.605 46.9891 151.657 52.9017L150.661 59.2435C150.519 59.9588 150.471 60.674 150.471 61.3415C150.471 66.2528 153.695 68.8754 159.575 68.8754C162.23 68.8754 164.601 68.0171 166.734 66.3482C167.256 65.9191 167.303 65.4422 166.971 64.8224L165.786 62.9151C165.359 62.2952 164.838 62.2475 164.221 62.7243C162.941 63.821 161.519 64.3932 159.954 64.3932C157.062 64.3932 155.734 63.2965 155.734 60.674C155.734 60.1495 155.782 59.625 155.876 59.0528L156.019 58.0991H167.967C168.631 58.0991 169.01 57.7654 169.105 57.0978L169.721 53.2832C169.816 52.6156 169.864 51.9958 169.864 51.3759C169.864 46.6553 166.877 44.0328 161.566 44.0328ZM161.471 48.5149C163.747 48.5149 164.885 49.6593 164.885 51.9004C164.885 52.3772 164.838 52.9017 164.743 53.4739L164.648 54.1892H156.588L156.682 53.5216C157.251 50.0885 158.769 48.5149 161.471 48.5149ZM145.045 68.3032C145.708 68.3032 146.088 67.9694 146.183 67.3019L150.714 39.6341C150.856 38.8235 150.525 38.442 149.718 38.442H146.731C146.068 38.442 145.688 38.7758 145.593 39.4433L141.062 67.1111C140.92 67.9217 141.251 68.3032 142.057 68.3032H145.045ZM131.612 44.0328C125.78 44.0328 122.414 46.9891 121.513 52.9017L118.099 74.7403C117.957 75.5509 118.289 75.9324 119.095 75.9324H122.082C122.746 75.9324 123.125 75.5986 123.22 74.9311L124.547 66.7774H124.642C125.638 68.1602 127.25 68.8754 129.478 68.8754C134.789 68.8754 137.918 65.9191 138.819 60.0064L139.91 53.2832C140.004 52.6156 140.052 51.9958 140.052 51.3759C140.052 46.6553 136.97 44.0328 131.612 44.0328ZM133.746 59.3866C133.224 62.7243 131.66 64.3932 129.004 64.3932C126.681 64.3932 125.543 63.2012 125.543 60.8647C125.543 60.4356 125.59 59.9588 125.685 59.4342L126.586 53.5216C127.108 50.1838 128.672 48.5149 131.375 48.5149C133.698 48.5149 134.836 49.6593 134.836 51.9958C134.836 52.4249 134.789 52.9494 134.694 53.4739L133.746 59.3866ZM110.132 44.0328C107.24 44.0328 105.011 44.9388 103.447 46.7984H103.352C102.072 44.9388 99.9381 44.0328 96.951 44.0328C91.6406 44.0328 88.5113 46.9414 87.6104 52.7587L85.3819 67.1111C85.2397 67.9217 85.5716 68.3032 86.3776 68.3032H89.3647C90.0285 68.3032 90.4078 67.9694 90.5027 67.3019L92.7311 53.2355C93.2527 50.0885 94.6751 48.5149 97.0458 48.5149C99.1795 48.5149 100.223 49.6116 100.223 51.7574C100.223 52.2342 100.175 52.711 100.08 53.2355L97.8993 67.1111C97.7571 67.9217 98.089 68.3032 98.895 68.3032H101.882C102.546 68.3032 102.925 67.9694 103.02 67.3019L105.249 53.2355C105.77 50.0885 107.193 48.5149 109.563 48.5149C111.697 48.5149 112.74 49.6116 112.74 51.7574C112.74 52.1865 112.693 52.711 112.598 53.2355L110.417 67.1111C110.274 67.9217 110.606 68.3032 111.412 68.3032H114.399C115.063 68.3032 115.443 67.9694 115.537 67.3019L117.766 53.1402C117.908 52.5203 117.956 51.805 117.956 51.0898C117.956 46.56 115.111 44.0328 110.132 44.0328ZM75.8718 44.0328C70.0872 44.0328 66.7208 46.9891 65.7725 52.9017L64.7294 59.625C64.5871 60.3402 64.5397 61.0078 64.5397 61.58C64.5397 66.2052 67.5743 68.8754 73.0269 68.8754C78.8115 68.8754 82.1779 65.9191 83.1262 60.0064L84.1693 53.2832C84.2641 52.6156 84.3115 51.9958 84.3115 51.3759C84.3115 46.6553 81.2296 44.0328 75.8718 44.0328ZM73.2166 64.3932C70.9407 64.3932 69.8027 63.2489 69.8027 60.9124C69.8027 60.4833 69.8501 59.9588 69.945 59.4342L70.8458 53.5216C71.3674 50.1838 72.9321 48.5149 75.6347 48.5149C77.958 48.5149 79.0959 49.6593 79.0959 51.9958C79.0959 52.4249 79.0485 52.9494 78.9537 53.4739L78.0528 59.3866C77.5313 62.7243 75.9192 64.3932 73.2166 64.3932ZM61.2492 63.2965C60.8699 62.6767 60.3483 62.629 59.7319 63.0581C58.594 63.9641 57.456 64.3932 56.3181 64.3932C53.7103 64.3932 52.4301 63.1535 52.4301 60.6263C52.4301 60.1495 52.4775 59.625 52.5724 59.0528L53.3784 53.8554C53.9948 50.2792 55.7017 48.5149 58.594 48.5149C59.8267 48.5149 60.8699 48.8487 61.6759 49.4686C62.2923 49.8977 62.7664 49.8977 63.1932 49.3732L64.7578 47.5136C65.232 46.8937 65.232 46.4169 64.7104 45.9878C63.1458 44.7003 61.0595 44.0328 58.4517 44.0328C52.6672 44.0328 49.3008 47.0845 48.3051 53.2355L47.3568 59.2435C47.2145 60.1972 47.1671 60.9124 47.1671 61.3415C47.1671 66.1575 50.3913 68.8754 55.7491 68.8754C58.1672 68.8754 60.3009 68.1602 62.15 66.682C62.6716 66.2528 62.719 65.776 62.3871 65.1562L61.2492 63.2965Z" fill="#FB9B6F"/>
<path d="M172.001 10.4867C169.393 10.4867 167.022 11.2019 164.841 12.6324C164.225 13.0616 164.082 13.5861 164.414 14.2059L165.457 16.2086C165.837 16.8762 166.358 16.9715 166.975 16.4947C168.397 15.4934 169.82 14.9689 171.289 14.9689C173.992 14.9689 175.367 16.2086 175.367 18.7358C175.367 19.1649 175.32 19.7848 175.177 20.5477H170.578C164.272 20.5477 161.048 23.3133 161.048 28.463C161.048 32.8498 163.94 35.3293 169.108 35.3293C175.035 35.3293 178.496 32.373 179.397 26.4604L180.44 19.9278C180.535 19.2603 180.583 18.5927 180.583 17.9729C180.583 13.1569 177.501 10.4867 172.001 10.4867ZM169.488 30.8471C167.354 30.8471 166.263 29.9412 166.263 28.0816C166.263 25.7451 167.876 24.41 170.863 24.41H174.561L174.324 25.8405C173.802 29.1783 172.19 30.8471 169.488 30.8471ZM146.493 33.5651C146.351 34.3757 146.683 34.7571 147.489 34.7571H150.476C151.139 34.7571 151.519 34.4233 151.614 33.7558L153.889 19.308C154.364 16.3993 155.786 14.9689 158.157 14.9689C159.152 14.9689 160.053 15.2073 160.859 15.7318C161.476 16.1132 161.997 16.0179 162.377 15.4457L163.609 13.443C163.989 12.8231 163.894 12.2986 163.325 11.9172C161.855 10.9635 160.053 10.4867 157.872 10.4867C152.704 10.4867 149.67 13.3953 148.721 19.2603L146.493 33.5651ZM146.217 12.251C146.359 11.4404 146.027 11.0589 145.221 11.0589H142.376C141.712 11.0589 141.333 11.3927 141.238 12.0602L139.01 26.1743C138.488 29.369 137.161 30.8471 134.505 30.8471C132.324 30.8471 131.234 29.7981 131.234 27.7001C131.234 27.1279 131.281 26.6988 131.329 26.365L133.557 12.251C133.699 11.4404 133.367 11.0589 132.561 11.0589H129.574C128.91 11.0589 128.531 11.3927 128.436 12.0602L126.16 26.365C126.066 27.0325 126.018 27.6524 126.018 28.2246C126.018 32.7544 129.005 35.3293 134.173 35.3293C139.768 35.3293 143.04 32.4684 143.941 26.7465L146.217 12.251ZM125.312 15.5411C125.975 15.5411 126.355 15.2073 126.45 14.5397L126.782 12.251C126.924 11.4404 126.592 11.0589 125.786 11.0589H120.144L120.95 6.05223C121.092 5.24162 120.76 4.86016 119.954 4.86016H116.967C116.303 4.86016 115.924 5.19394 115.829 5.8615L114.975 11.0589H112.937C112.273 11.0589 111.893 11.3927 111.799 12.0602L111.419 14.349C111.277 15.1596 111.609 15.5411 112.415 15.5411H114.264L112.462 27.0802C112.368 27.7478 112.32 28.3677 112.32 28.9398C112.32 33.0882 114.975 35.3293 119.717 35.3293C121.187 35.3293 122.419 35.0909 123.51 34.6618C124.079 34.4233 124.269 33.9465 124.126 33.2313L123.652 31.1809C123.51 30.4657 123.036 30.275 122.277 30.5134C121.661 30.7518 121.092 30.8471 120.475 30.8471C118.531 30.8471 117.536 29.9412 117.536 28.1769C117.536 27.8431 117.536 27.5571 117.583 27.3663L119.432 15.5411H125.312ZM100.963 10.4867C98.3554 10.4867 95.9847 11.2019 93.8036 12.6324C93.1873 13.0616 93.045 13.5861 93.3769 14.2059L94.42 16.2086C94.7994 16.8762 95.3209 16.9715 95.9373 16.4947C97.3597 15.4934 98.7822 14.9689 100.252 14.9689C102.955 14.9689 104.33 16.2086 104.33 18.7358C104.33 19.1649 104.282 19.7848 104.14 20.5477H99.5408C93.2347 20.5477 90.0105 23.3133 90.0105 28.463C90.0105 32.8498 92.9028 35.3293 98.0709 35.3293C103.998 35.3293 107.459 32.373 108.36 26.4604L109.403 19.9278C109.498 19.2603 109.545 18.5927 109.545 17.9729C109.545 13.1569 106.463 10.4867 100.963 10.4867ZM98.4503 30.8471C96.3166 30.8471 95.2261 29.9412 95.2261 28.0816C95.2261 25.7451 96.8382 24.41 99.8253 24.41H103.524L103.287 25.8405C102.765 29.1783 101.153 30.8471 98.4503 30.8471ZM81.8706 33.5651C81.7284 34.3757 82.0603 34.7571 82.8663 34.7571H85.8534C86.5172 34.7571 86.8966 34.4233 86.9914 33.7558L89.2199 19.5464C89.3621 18.6404 89.4095 18.0205 89.4095 17.5914C89.4095 13.0139 86.4224 10.4867 81.112 10.4867C75.4223 10.4867 72.1033 13.3953 71.2024 19.2126L68.9739 33.5651C68.8317 34.3757 69.1636 34.7571 69.9696 34.7571H72.9567C73.6205 34.7571 73.9999 34.4233 74.0947 33.7558L76.2757 19.8325C76.7973 16.5901 78.3146 14.9689 80.8749 14.9689C83.056 14.9689 84.1465 16.0656 84.1465 18.3066C84.1465 18.7358 84.0991 19.2603 84.0043 19.8325L81.8706 33.5651ZM67.1734 7.10124C69.0225 7.10124 70.445 5.71845 70.445 3.81115C70.445 2.09458 69.307 0.950195 67.5527 0.950195C65.7035 0.950195 64.3285 2.33299 64.3285 4.28797C64.3285 5.95686 65.4665 7.10124 67.1734 7.10124ZM64.0914 34.7571C64.7552 34.7571 65.1346 34.4233 65.2294 33.7558L68.6432 12.251C68.7855 11.4404 68.4536 11.0589 67.6475 11.0589H64.6604C63.9966 11.0589 63.6173 11.3927 63.5225 12.0602L60.1086 33.5651C59.9664 34.3757 60.2983 34.7571 61.1043 34.7571H64.0914ZM50.173 35.3293C56.0049 35.3293 59.7032 32.0869 59.7032 26.9372C59.7032 23.1226 57.8541 21.3583 52.923 20.4524C50.0307 19.9278 49.0824 19.308 49.0824 18.0205C49.0824 15.9702 50.5997 14.9212 53.6342 14.9212C55.104 14.9212 56.3842 15.255 57.5222 15.9702C58.1386 16.3993 58.6127 16.304 59.0394 15.7795L60.5093 13.8722C60.9834 13.2523 60.936 12.7278 60.367 12.2986C58.6127 11.1066 56.3842 10.4867 53.6342 10.4867C47.7074 10.4867 43.8668 13.7291 43.8668 18.8312C43.8668 22.455 45.6686 24.1716 50.4574 25.0776C53.492 25.6498 54.4877 26.365 54.4877 27.7478C54.4877 29.8458 53.0178 30.8948 50.1255 30.8948C48.0393 30.8948 46.3324 30.3226 45.0048 29.1783C44.4358 28.7014 43.9143 28.7491 43.4875 29.2736L41.8754 31.2286C41.4013 31.8008 41.4013 32.3253 41.9229 32.7544C43.9143 34.471 46.6643 35.3293 50.173 35.3293ZM32.4139 35.3293C38.2459 35.3293 41.9442 32.0869 41.9442 26.9372C41.9442 23.1226 40.095 21.3583 35.1639 20.4524C32.2717 19.9278 31.3234 19.308 31.3234 18.0205C31.3234 15.9702 32.8406 14.9212 35.8752 14.9212C37.345 14.9212 38.6252 15.255 39.7631 15.9702C40.3795 16.3993 40.8537 16.304 41.2804 15.7795L42.7502 13.8722C43.2244 13.2523 43.177 12.7278 42.608 12.2986C40.8537 11.1066 38.6252 10.4867 35.8752 10.4867C29.9484 10.4867 26.1078 13.7291 26.1078 18.8312C26.1078 22.455 27.9095 24.1716 32.6984 25.0776C35.7329 25.6498 36.7286 26.365 36.7286 27.7478C36.7286 29.8458 35.2588 30.8948 32.3665 30.8948C30.2803 30.8948 28.5733 30.3226 27.2457 29.1783C26.6768 28.7014 26.1552 28.7491 25.7285 29.2736L24.1164 31.2286C23.6423 31.8008 23.6423 32.3253 24.1638 32.7544C26.1552 34.471 28.9052 35.3293 32.4139 35.3293ZM14.9453 10.4867C12.3375 10.4867 9.96676 11.2019 7.7857 12.6324C7.16932 13.0616 7.02707 13.5861 7.35897 14.2059L8.40209 16.2086C8.78141 16.8762 9.30296 16.9715 9.91935 16.4947C11.3418 15.4934 12.7642 14.9689 14.2341 14.9689C16.9367 14.9689 18.3117 16.2086 18.3117 18.7358C18.3117 19.1649 18.2643 19.7848 18.122 20.5477H13.5228C7.21673 20.5477 3.99255 23.3133 3.99255 28.463C3.99255 32.8498 6.88483 35.3293 12.053 35.3293C17.9798 35.3293 21.441 32.373 22.3419 26.4604L23.385 19.9278C23.4799 19.2603 23.5273 18.5927 23.5273 17.9729C23.5273 13.1569 20.4453 10.4867 14.9453 10.4867ZM12.4323 30.8471C10.2987 30.8471 9.20813 29.9412 9.20813 28.0816C9.20813 25.7451 10.8202 24.41 13.8073 24.41H17.5056L17.2686 25.8405C16.747 29.1783 15.1349 30.8471 12.4323 30.8471Z" fill="white"/>
</svg>
