<svg width="180" height="69" viewBox="0 0 180 69" fill="none" xmlns="http://www.w3.org/2000/svg">
<g clip-path="url(#clip0_46_119)">
<path d="M31.14 25.53C31.14 24.67 30.68 24.26 29.87 24.26H27.51V19.48H32.75C35.34 19.48 36.32 20.57 36.32 22.42C36.32 23.28 36.26 23.97 36.26 23.97H36.38C36.38 23.97 38.8 18.79 46.05 18.79C53.88 18.79 58.88 25.01 58.88 34.04C58.88 43.31 53.24 49.29 45.64 49.29C39.19 49.29 36.72 44.63 36.72 44.63H36.61C36.61 44.63 36.72 45.66 36.72 47.16V60.11H31.14V25.53ZM44.79 44.52C49.39 44.52 53.19 40.72 53.19 34.1C53.19 27.77 49.79 23.68 44.96 23.68C40.64 23.68 36.56 26.73 36.56 34.16C36.55 39.34 39.37 44.52 44.79 44.52Z" fill="white"/>
<path d="M64.91 25.5301C64.91 24.6701 64.45 24.2601 63.64 24.2601H61.28V19.4801H66.58C69.11 19.4801 70.32 20.5201 70.32 22.8801V24.1401C71.7 19.8801 75.04 19.1401 79.53 19.1401C80.28 19.1401 81.03 19.2601 81.03 19.2601V24.7901C81.03 24.7901 80.28 24.6201 79.36 24.6201C75.79 24.6201 72.51 27.1501 71.19 31.4701C70.67 33.1401 70.5 34.9201 70.5 36.7101V48.6201H64.92V25.5301H64.91Z" fill="white"/>
<path d="M97.74 18.79C106.43 18.79 113.45 25.18 113.45 33.98C113.45 42.84 106.43 49.29 97.74 49.29C89.05 49.29 82.08 42.84 82.08 33.98C82.09 25.18 89.05 18.79 97.74 18.79ZM97.74 44.46C103.27 44.46 107.75 40.08 107.75 33.98C107.75 27.94 103.26 23.62 97.74 23.62C92.27 23.62 87.78 27.94 87.78 33.98C87.78 40.09 92.27 44.46 97.74 44.46Z" fill="white"/>
<path d="M27.52 48.6098C26.21 48.6098 25.58 48.6098 24.05 48.6098C21.56 48.6098 19.96 47.5598 19.96 44.3898C17.3 47.4998 13.74 48.9098 9.67 48.9098C4.35 48.9098 0 46.5398 0 40.7098C0 34.0898 5.04 32.1598 10.01 31.1998C15.33 30.1798 19.74 31.0398 19.74 27.4198C19.74 23.2298 16.29 22.6498 13.24 22.5598C10.27 22.4598 6.44 22.4698 6.06 25.8398H1.25C1.53 18.5998 8.6 18.3198 13.52 18.3198C18.78 18.3198 24.49 19.5098 24.49 26.3498V41.3898C24.49 43.6498 24.49 44.6698 26.02 44.6698C26.42 44.6698 27.52 44.6498 27.52 44.6498V48.6098ZM19.68 33.1398C17.81 34.4998 14.19 34.5498 10.97 35.1198C7.8 35.6898 5.09 36.8198 5.09 40.3798C5.09 43.5498 7.81 44.6798 10.75 44.6798C17.09 44.6798 19.68 40.7198 19.68 38.0598V33.1398Z" fill="white"/>
<path d="M179.03 48.6098C177.72 48.6098 177.09 48.6098 175.56 48.6098C173.07 48.6098 171.47 47.5598 171.47 44.3898C168.81 47.4998 165.25 48.9098 161.18 48.9098C155.86 48.9098 151.51 46.5398 151.51 40.7098C151.51 34.0898 156.55 32.1598 161.52 31.1998C166.84 30.1798 171.25 31.0398 171.25 27.4198C171.25 23.2298 167.8 22.6498 164.75 22.5598C161.78 22.4598 157.95 22.4698 157.57 25.8398H152.76C153.04 18.5998 160.11 18.3198 165.03 18.3198C170.29 18.3198 176 19.5098 176 26.3498V41.3898C176 43.6498 176 44.6698 177.53 44.6698C177.93 44.6698 179.03 44.6498 179.03 44.6498V48.6098ZM171.19 33.1398C169.32 34.4998 165.7 34.5498 162.48 35.1198C159.31 35.6898 156.6 36.8198 156.6 40.3798C156.6 43.5498 159.32 44.6798 162.26 44.6798C168.6 44.6798 171.19 40.7198 171.19 38.0598V33.1398Z" fill="white"/>
<path d="M130.79 49.59C130.79 49.59 142.39 25.44 156.68 14.55C171.15 3.52 179.03 0 179.03 0C179.03 0 164.66 2.66 150.35 13.69C136.04 24.72 130.56 35.75 130.33 36.45C130.33 36.45 121.25 22.84 106.47 18.93C106.46 18.93 120.39 28.55 130.79 49.59Z" fill="#59943B"/>
<path d="M130.35 36.4498C130.43 36.2198 131.06 34.8898 132.38 32.8198L132.03 32.7198C132.03 32.7198 131.51 31.7698 127.39 27.9998C120.89 22.3498 112.54 19.0998 112.54 19.0998L106.89 19.0298C121.43 23.0798 130.35 36.4498 130.35 36.4498Z" fill="#7CA53C"/>
<path d="M157.09 14.24C156.34 14.81 154.99 15.91 154.26 16.54C141.69 27.48 131.8 47.57 130.8 49.61L133.44 47.24C145.37 27.97 150.31 21.68 157.77 15.74C166.59 8.71 171.52 5.64 176.39 2.99L179.03 0C179.03 0 171.57 3.21 157.09 14.24Z" fill="#7CA53C"/>
<path d="M62.74 54.7397C64.26 54.7397 67.51 55.3797 67.51 57.5897V58.7897H65.8V58.0197C65.8 56.8997 63.85 56.3697 62.73 56.3697C59.85 56.3697 57.53 58.5297 57.53 61.7797C57.53 65.0897 59.96 67.1397 62.78 67.1397C65.53 67.1397 67.1 65.2497 67.1 65.2497L67.95 66.6097C67.95 66.6097 66.14 68.7997 62.7 68.7997C58.7 68.7997 55.66 65.9497 55.66 61.7897C55.67 57.6697 58.74 54.7397 62.74 54.7397Z" fill="white"/>
<path d="M76.82 54.7397C80.74 54.7397 83.91 57.7297 83.91 61.6997C83.91 65.7497 80.74 68.7897 76.84 68.7897C72.92 68.7897 69.75 65.7497 69.75 61.6997C69.75 57.7297 72.93 54.7397 76.82 54.7397ZM76.85 67.1697C79.7 67.1697 82.05 64.8197 82.05 61.6997C82.05 58.6597 79.7 56.3897 76.85 56.3897C73.97 56.3897 71.62 58.6597 71.62 61.6997C71.62 64.8197 73.97 67.1697 76.85 67.1697Z" fill="white"/>
<path d="M87.31 57.22C87.31 56.85 87.1 56.63 86.72 56.63H85.6V55.06H87.47C88.59 55.06 89.1 55.54 89.1 56.55V57.16C89.1 57.69 89.05 58.12 89.05 58.12H89.1C89.58 56.89 91.29 54.73 94.43 54.73C97.76 54.73 98.94 56.62 98.94 59.93V66.3C98.94 66.7 99.15 66.89 99.53 66.89H100.65V68.46H98.76C97.61 68.46 97.13 67.98 97.13 66.83V60.4C97.13 58.29 96.81 56.43 94.22 56.43C91.93 56.43 89.95 58 89.34 60.22C89.18 60.78 89.13 61.39 89.13 62.03V68.46H87.32V57.22H87.31Z" fill="white"/>
<path d="M109.34 54.7397C110.86 54.7397 114.11 55.3797 114.11 57.5897V58.7897H112.4V58.0197C112.4 56.8997 110.45 56.3697 109.33 56.3697C106.45 56.3697 104.13 58.5297 104.13 61.7797C104.13 65.0897 106.56 67.1397 109.38 67.1397C112.13 67.1397 113.7 65.2497 113.7 65.2497L114.55 66.6097C114.55 66.6097 112.74 68.7997 109.3 68.7997C105.3 68.7997 102.26 65.9497 102.26 61.7897C102.27 57.6697 105.34 54.7397 109.34 54.7397Z" fill="white"/>
<path d="M117.55 57.2198C117.55 56.8498 117.34 56.6298 116.96 56.6298H115.84V55.0598H117.73C118.88 55.0598 119.36 55.5398 119.36 56.6298V63.1098C119.36 65.2198 119.71 67.0798 122.29 67.0798C125.33 67.0798 127.22 64.3898 127.22 61.4798V55.0498H129.03V66.3098C129.03 66.7098 129.24 66.8998 129.62 66.8998H130.74V68.4698H128.9C127.78 68.4698 127.27 67.9898 127.27 66.9798V66.3698C127.27 65.8398 127.32 65.4098 127.32 65.4098H127.27C126.74 66.7198 124.98 68.7998 122.04 68.7998C118.87 68.7998 117.53 67.0898 117.53 63.5998V57.2198H117.55Z" fill="white"/>
<path d="M133.69 57.2202C133.69 56.8502 133.48 56.6302 133.1 56.6302H131.98V55.0602H133.85C134.97 55.0602 135.48 55.5102 135.48 56.5802V57.4902C135.48 58.0502 135.43 58.5002 135.43 58.5002H135.48C136.12 56.4702 137.61 54.9302 139.72 54.9302C140.09 54.9302 140.44 55.0102 140.44 55.0102V56.8002C140.44 56.8002 140.12 56.7502 139.77 56.7502C137.88 56.7502 136.46 58.2402 135.88 60.2202C135.61 61.0702 135.51 61.9802 135.51 62.8302V68.4802H133.7V57.2202H133.69Z" fill="white"/>
<path d="M142.84 65.1897C142.84 65.1897 144.33 67.2197 146.97 67.2197C148.46 67.2197 149.8 66.4997 149.8 65.0897C149.8 62.1597 142.28 62.6897 142.28 58.3697C142.28 55.9397 144.36 54.7397 147.05 54.7397C148.41 54.7397 151.13 55.2697 151.13 57.1697V58.3197H149.42V57.6797C149.42 56.6897 147.98 56.3197 147.1 56.3197C145.23 56.3197 144.11 56.9597 144.11 58.2697C144.11 61.2797 151.63 60.5897 151.63 65.0397C151.63 67.2797 149.6 68.7997 146.94 68.7997C143.45 68.7997 141.79 66.4497 141.79 66.4497L142.84 65.1897Z" fill="white"/>
<path d="M160.9 54.7397C164.82 54.7397 167.99 57.7297 167.99 61.6997C167.99 65.7497 164.82 68.7897 160.92 68.7897C157 68.7897 153.83 65.7497 153.83 61.6997C153.83 57.7297 157 54.7397 160.9 54.7397ZM160.92 67.1697C163.77 67.1697 166.12 64.8197 166.12 61.6997C166.12 58.6597 163.77 56.3897 160.92 56.3897C158.04 56.3897 155.69 58.6597 155.69 61.6997C155.7 64.8197 158.04 67.1697 160.92 67.1697Z" fill="white"/>
<path d="M170.88 65.1897C170.88 65.1897 172.37 67.2197 175.01 67.2197C176.5 67.2197 177.84 66.4997 177.84 65.0897C177.84 62.1597 170.32 62.6897 170.32 58.3697C170.32 55.9397 172.4 54.7397 175.09 54.7397C176.45 54.7397 179.17 55.2697 179.17 57.1697V58.3197H177.46V57.6797C177.46 56.6897 176.02 56.3197 175.14 56.3197C173.27 56.3197 172.15 56.9597 172.15 58.2697C172.15 61.2797 179.67 60.5897 179.67 65.0397C179.67 67.2797 177.64 68.7997 174.98 68.7997C171.49 68.7997 169.83 66.4497 169.83 66.4497L170.88 65.1897Z" fill="white"/>
</g>
<defs>
<clipPath id="clip0_46_119">
<rect width="179.68" height="68.79" fill="white"/>
</clipPath>
</defs>
</svg>
