<svg width="291" height="158" viewBox="0 0 291 158" fill="none" xmlns="http://www.w3.org/2000/svg">
<g clip-path="url(#clip0_87_268)" filter="url(#filter0_d_87_268)">
<path d="M286.684 16.0562H3.68402V123.056H286.684V16.0562Z" fill="#E6E6E6"/>
<path d="M221.377 151.542C220.228 155.169 219.003 158.73 217.273 162.032C216.339 163.823 215.299 165.548 214.151 167.2L201.63 185.215C200.885 186.288 199.904 187.007 198.821 187.374C196.799 188.057 194.421 187.497 192.546 185.654C189.666 182.817 191.331 179.96 193.47 176.886C193.47 176.886 207.563 157.095 208.396 155.054C209.16 153.196 220.262 105.01 220.262 105.01C221.451 99.1981 221.149 96.0291 224.377 94.6191C227.599 93.2001 230.349 99.4911 231.907 103.428C231.907 103.43 230.147 123.865 221.377 151.542Z" fill="#FFA990"/>
<path d="M214.531 122.337C216.874 110.921 218.883 103.481 220.012 97.7519C221.141 92.0229 226.295 89.5749 231.616 95.9509C236.937 102.327 230.87 117.091 228.265 131.766C226.727 140.43 220.887 154.665 220.887 154.665L208.396 147.743C208.395 147.744 212.252 133.442 214.531 122.337Z" fill="#D62727"/>
<path d="M209 143.112L216.037 146.153L216.788 151.55L220.496 147.507L224.471 149.126L222.042 156.511L206.622 149.774L209 143.112Z" fill="white"/>
<path d="M256.958 26.055C263.912 26.055 269.549 20.4179 269.549 13.464C269.549 6.51023 263.912 0.873047 256.958 0.873047C250.004 0.873047 244.367 6.51023 244.367 13.464C244.367 20.4179 250.004 26.055 256.958 26.055Z" fill="#D3513E"/>
<path d="M251.407 65.6779C251.286 65.8679 251.293 63.5779 251.304 60.0839C251.346 50.4819 251.388 31.7689 248.664 30.3429C241.179 26.4289 210.781 47.7899 208.91 39.3969C208.466 37.4359 208.232 35.3969 208.211 33.3179C208.206 32.8839 208.213 32.4509 208.23 32.0259C208.353 28.6459 209.045 25.4159 210.217 22.4399C211.217 19.9129 212.548 17.5549 214.169 15.4429C214.169 15.4429 214.169 15.4429 214.176 15.4319C219.697 8.22991 228.494 3.71791 238.249 4.06891C238.692 4.08191 239.128 4.11191 239.569 4.14191C251.275 5.08791 261.204 12.2729 265.411 22.9899C266.732 26.3379 267.492 30.0379 267.572 33.9969C268.062 58.0839 254.244 61.3819 251.407 65.6779Z" fill="#F67448"/>
<path d="M251.407 65.6782C251.286 65.8682 251.293 63.5782 251.304 60.0842L251.521 59.3142C251.521 59.3142 260.886 53.2752 263.916 40.6542C266.078 31.6432 265.768 25.6732 265.411 22.9902C266.732 26.3382 267.492 30.0382 267.572 33.9972C268.062 58.0842 254.244 61.3822 251.407 65.6782Z" fill="#D3513E"/>
<path d="M238.915 105.129C243.292 105.594 247.253 102.394 247.719 98.017L251.428 63.137C251.893 58.76 248.693 54.799 244.316 54.333C239.939 53.868 235.978 57.068 235.512 61.445L231.804 96.325C231.338 100.702 234.539 104.663 238.915 105.129Z" fill="#FFA990"/>
<path d="M253.867 51.645C253.844 51.918 253.81 52.179 253.77 52.451C253.761 52.535 253.746 52.623 253.732 52.706C253.24 56.064 252.058 59.191 250.359 61.937C250.277 62.075 250.19 62.206 250.102 62.343C247.342 66.597 243.325 69.873 238.632 71.614C238.62 71.624 238.614 71.623 238.614 71.623C236.798 72.297 234.877 72.734 232.896 72.9C232.17 72.958 231.445 72.993 230.714 72.994C230.467 72.99 230.226 72.982 229.974 72.966C229.873 72.966 229.823 72.961 229.823 72.961C228.749 72.897 227.71 72.776 226.687 72.554C226.394 72.506 226.101 72.452 225.812 72.371C216.28 70.086 209.212 61.607 208.429 51.456C208.347 50.372 208.325 49.256 208.393 48.143L208.495 46.443L209.142 35.116C209.233 33.409 209.431 31.759 209.791 30.176C210.057 28.944 210.443 27.747 210.953 26.602C212.291 23.598 213.965 20.929 216.312 18.753C220.697 14.672 226.619 12.325 232.904 12.65C237.611 12.892 241.908 14.609 245.439 17.337C245.948 17.734 246.444 18.153 246.921 18.592C249.306 20.776 251.236 23.474 252.558 26.496C252.558 26.496 252.562 26.508 252.561 26.519C252.91 27.31 253.227 28.137 253.482 28.975C253.528 29.126 253.575 29.266 253.613 29.434C253.922 30.446 254.188 31.493 254.372 32.559C254.415 32.794 254.456 33.035 254.493 33.275C254.698 34.574 254.793 35.907 254.728 37.262L254.719 37.503L254.667 38.42L254.611 39.427L254.542 40.714L254.541 40.725L254.539 40.792L254.527 41.01L254.493 41.597L254.492 41.608L254.129 47.726L254.021 49.752L253.973 50.518L253.955 50.685C253.949 50.741 253.949 50.791 253.943 50.847C253.929 51.117 253.906 51.385 253.867 51.645Z" fill="#FFC7AF"/>
<path d="M255.507 50.8292C255.313 50.8592 255.108 50.8772 254.894 50.8822C254.802 50.9002 254.691 50.8892 254.584 50.8832L253.94 50.8482L253.145 50.8092L253.305 47.7652L253.344 47.0822L253.65 41.5542L254.489 41.5982L255.099 41.6352C255.234 41.6382 255.351 41.6512 255.477 41.6752L255.483 41.6762C255.667 41.6962 255.848 41.7322 256.024 41.7732L256.03 41.7742C256.931 41.9822 257.726 42.4382 258.32 43.0982C259.109 43.9872 259.576 45.1002 259.508 46.3702C259.384 48.6072 257.658 50.5002 255.507 50.8292Z" fill="#FFC4BC"/>
<path d="M219.935 51.1592C219.935 51.1592 220.028 52.8942 222.448 53.0702C224.576 53.2252 224.945 51.7632 224.945 51.7632L219.935 51.1592Z" fill="#FFA990"/>
<path d="M253.227 31.3571C253.227 31.3571 212.787 21.4521 208.991 29.6611C208.991 29.6611 208.293 20.8321 221.113 13.1901C233.933 5.54813 254.133 15.2001 255.424 19.1971C256.714 23.1941 256.187 26.1391 256.187 26.1391L253.227 31.3571Z" fill="#F67448"/>
<path d="M229.121 38.6992C229.121 38.6992 234.399 36.8592 238.515 40.4852" stroke="#D3513E" stroke-width="1.079" stroke-miterlimit="10" stroke-linecap="round"/>
<path d="M211.181 36.4533C211.181 36.4533 216.26 34.5543 220.63 37.9033" stroke="#D3513E" stroke-width="1.079" stroke-miterlimit="10" stroke-linecap="round"/>
<path d="M232.197 46.733C232.78 46.795 233.308 46.369 233.37 45.786L233.578 43.825C233.64 43.242 233.214 42.714 232.631 42.652C232.048 42.59 231.52 43.016 231.458 43.599L231.25 45.56C231.188 46.143 231.614 46.671 232.197 46.733Z" fill="#00093C"/>
<path d="M215.801 44.9898C216.384 45.0518 216.912 44.6258 216.974 44.0428L217.183 42.0818C217.245 41.4988 216.819 40.9708 216.236 40.9088C215.653 40.8468 215.125 41.2728 215.063 41.8558L214.855 43.8168C214.792 44.3998 215.218 44.9278 215.801 44.9898Z" fill="#00093C"/>
<path d="M268.271 119.796L267.762 128.341L264.085 190.128L263.939 192.585H263.872L249.031 191.947L213.602 190.431L216.719 153.306L213.96 119.22C213.904 118.699 213.893 118.173 213.921 117.653C215.113 98.984 222.035 84.94 235.253 80.897L233.972 104.339C235.567 104.339 247.442 81.037 248.947 81.294C251.253 81.697 253.34 82.575 255.226 83.868C263.604 89.599 267.829 103.444 268.271 119.796Z" fill="#FA3535"/>
<path d="M217.702 56.2812L227.123 57.6583C227.123 57.6583 225.529 60.3023 221.819 59.9083C218.828 59.5893 217.702 56.2812 217.702 56.2812Z" fill="#FA3535"/>
<path d="M255.507 50.8288C255.313 50.8588 255.108 50.8768 254.894 50.8818C254.802 50.8998 254.691 50.8888 254.584 50.8828L253.94 50.8478C253.928 51.1168 253.905 51.3848 253.867 51.6448C253.844 51.9178 253.81 52.1788 253.77 52.4508C253.761 52.5348 253.746 52.6228 253.732 52.7058C253.24 56.0638 252.058 59.1908 250.359 61.9368C250.277 62.0748 250.19 62.2058 250.102 62.3428C247.342 66.5968 243.325 69.8728 238.632 71.6138C238.62 71.6238 238.614 71.6228 238.614 71.6228C236.798 72.2968 234.877 72.7338 232.896 72.8998C232.17 72.9578 231.445 72.9928 230.714 72.9938C230.467 72.9898 230.226 72.9818 229.974 72.9658C231.136 72.9938 237.922 72.1708 243.286 64.4408C249.102 56.0548 251.243 39.4468 251.243 39.4468C251.243 39.4468 251.163 32.2628 251.58 32.3078C251.713 32.3218 252.909 32.7248 254.493 33.2758C254.698 34.5748 254.793 35.9078 254.728 37.2628L254.719 37.5038L254.667 38.4208L254.611 39.4278L254.542 40.7148L254.541 40.7258L254.539 40.7928L254.527 41.0108L254.493 41.5978L255.103 41.6348C255.238 41.6378 255.355 41.6508 255.481 41.6748L255.487 41.6758C255.671 41.6958 255.852 41.7318 256.028 41.7728L256.034 41.7738C256.935 41.9818 257.73 42.4378 258.324 43.0978C259.113 43.9868 259.58 45.0998 259.512 46.3698C259.384 48.6068 257.658 50.4998 255.507 50.8288Z" fill="#FFA990"/>
<path d="M214.628 26.971C214.285 30.198 211.391 32.536 208.164 32.193C204.937 31.85 202.599 28.956 202.942 25.729C203.285 22.502 206.179 20.164 209.406 20.507C212.633 20.85 214.971 23.744 214.628 26.971Z" fill="#F67448"/>
<path d="M224.941 26.5672C224.598 29.7942 221.704 32.1322 218.477 31.7892C215.25 31.4462 212.912 28.5522 213.255 25.3252C213.598 22.0982 216.492 19.7602 219.719 20.1032C222.947 20.4462 225.285 23.3402 224.941 26.5672Z" fill="#F67448"/>
<path d="M236.125 27.241C235.782 30.468 232.888 32.8061 229.661 32.463C226.434 32.12 224.096 29.226 224.439 25.999C224.782 22.772 227.676 20.434 230.903 20.777C234.13 21.119 236.468 24.014 236.125 27.241Z" fill="#F67448"/>
<path d="M247.703 29.5033C247.36 32.7303 244.466 35.0683 241.239 34.7253C238.012 34.3823 235.674 31.4883 236.017 28.2613C236.36 25.0343 239.254 22.6963 242.481 23.0393C245.708 23.3823 248.046 26.2763 247.703 29.5033Z" fill="#F67448"/>
<path d="M246.87 25.4282L251.425 45.9752C251.702 47.2242 253.421 47.3752 253.912 46.1942L260.387 30.6172C260.387 30.6172 255.552 14.3462 246.87 25.4282Z" fill="#F67448"/>
<path d="M250.856 81.1153L251.136 75.2393H241.249L236.399 90.9083L235.28 75.4263L231.549 75.2393L230.43 117.21L250.856 81.1153Z" fill="white"/>
<path opacity="0.37" d="M267.762 128.341L264.193 188.281L248.617 189.12C248.617 189.12 248.057 156.942 247.778 147.149C247.498 137.356 259.53 109.095 259.53 109.095C259.53 109.095 263.811 117.255 267.762 128.341Z" fill="#670A37"/>
<path d="M262.556 164.9C260.646 168.279 258.404 171.412 255.855 174.244C254.477 175.782 253.01 177.226 251.452 178.573L234.463 193.251C233.451 194.126 232.292 194.591 231.116 194.683C228.922 194.852 226.679 193.703 225.256 191.413C223.072 187.888 225.445 185.48 228.347 182.976L243.598 168.28C245.236 166.643 246.725 164.909 248.063 163.099C249.287 161.454 250.381 159.745 251.36 157.979C256.557 148.58 258.344 137.624 256.837 126.709L254.37 108.845C253.776 104.563 256.202 100.613 259.783 100.027C263.36 99.4299 266.751 102.429 267.34 106.711L269.812 124.58C271.808 139.054 269.092 153.373 262.556 164.9Z" fill="#FFC7AF"/>
<path d="M254.955 145.405C255.071 144.881 257.166 142.154 255.483 130.72C253.8 119.286 251.62 107.277 254.166 101.895C256.712 96.514 263.375 93.766 267.13 101.4C270.885 109.035 272.484 136.443 271.3 145.335C270.115 154.227 263.082 167.003 263.082 167.003L249.442 157.034C249.441 157.034 253.621 151.413 254.955 145.405Z" fill="#FA3535"/>
<path d="M176.684 30.2061H30.684C29.579 30.2061 28.684 29.3111 28.684 28.2061V14.2061C28.684 13.1011 29.579 12.2061 30.684 12.2061H176.684C177.789 12.2061 178.684 13.1011 178.684 14.2061V28.2061C178.684 29.3111 177.788 30.2061 176.684 30.2061Z" fill="#40A082"/>
<path d="M176.684 52.4561H30.684C29.579 52.4561 28.684 51.5611 28.684 50.4561V36.4561C28.684 35.3511 29.579 34.4561 30.684 34.4561H176.684C177.789 34.4561 178.684 35.3511 178.684 36.4561V50.4561C178.684 51.5611 177.788 52.4561 176.684 52.4561Z" fill="#40A082"/>
<path d="M176.684 74.7061H30.684C29.579 74.7061 28.684 73.8111 28.684 72.7061V58.7061C28.684 57.6011 29.579 56.7061 30.684 56.7061H176.684C177.789 56.7061 178.684 57.6011 178.684 58.7061V72.7061C178.684 73.8111 177.788 74.7061 176.684 74.7061Z" fill="#20614B"/>
<path d="M176.684 96.9561H30.684C29.579 96.9561 28.684 96.0611 28.684 94.9561V80.9561C28.684 79.8511 29.579 78.9561 30.684 78.9561H176.684C177.789 78.9561 178.684 79.8511 178.684 80.9561V94.9561C178.684 96.0611 177.788 96.9561 176.684 96.9561Z" fill="#40A082"/>
<path d="M176.684 119.206H30.684C29.579 119.206 28.684 118.311 28.684 117.206V103.206C28.684 102.101 29.579 101.206 30.684 101.206H176.684C177.789 101.206 178.684 102.101 178.684 103.206V117.206C178.684 118.311 177.788 119.206 176.684 119.206Z" fill="#40A082"/>
<path d="M163.957 23.2061H39.775C38.67 23.2061 37.775 22.3111 37.775 21.2061C37.775 20.1011 38.67 19.2061 39.775 19.2061H163.957C165.062 19.2061 165.957 20.1011 165.957 21.2061C165.957 22.3111 165.061 23.2061 163.957 23.2061Z" fill="white"/>
<path d="M163.957 45.2061H39.775C38.67 45.2061 37.775 44.3111 37.775 43.2061C37.775 42.1011 38.67 41.2061 39.775 41.2061H163.957C165.062 41.2061 165.957 42.1011 165.957 43.2061C165.957 44.3111 165.061 45.2061 163.957 45.2061Z" fill="white"/>
<path d="M163.957 90.2061H39.775C38.67 90.2061 37.775 89.3111 37.775 88.2061C37.775 87.1011 38.67 86.2061 39.775 86.2061H163.957C165.062 86.2061 165.957 87.1011 165.957 88.2061C165.957 89.3111 165.061 90.2061 163.957 90.2061Z" fill="white"/>
<path d="M163.957 112.206H39.775C38.67 112.206 37.775 111.311 37.775 110.206C37.775 109.101 38.67 108.206 39.775 108.206H163.957C165.062 108.206 165.957 109.101 165.957 110.206C165.957 111.311 165.061 112.206 163.957 112.206Z" fill="white"/>
<path d="M163.957 68.2061H39.775C38.67 68.2061 37.775 67.3111 37.775 66.2061C37.775 65.1011 38.67 64.2061 39.775 64.2061H163.957C165.062 64.2061 165.957 65.1011 165.957 66.2061C165.957 67.3111 165.061 68.2061 163.957 68.2061Z" fill="#999999"/>
</g>
<defs>
<filter id="filter0_d_87_268" x="0" y="0" width="291" height="158" filterUnits="userSpaceOnUse" color-interpolation-filters="sRGB">
<feFlood flood-opacity="0" result="BackgroundImageFix"/>
<feColorMatrix in="SourceAlpha" type="matrix" values="0 0 0 0 0 0 0 0 0 0 0 0 0 0 0 0 0 0 127 0" result="hardAlpha"/>
<feOffset dy="4"/>
<feGaussianBlur stdDeviation="2"/>
<feComposite in2="hardAlpha" operator="out"/>
<feColorMatrix type="matrix" values="0 0 0 0 0 0 0 0 0 0 0 0 0 0 0 0 0 0 0.25 0"/>
<feBlend mode="normal" in2="BackgroundImageFix" result="effect1_dropShadow_87_268"/>
<feBlend mode="normal" in="SourceGraphic" in2="effect1_dropShadow_87_268" result="shape"/>
</filter>
<clipPath id="clip0_87_268">
<rect width="283" height="150" fill="white" transform="translate(4)"/>
</clipPath>
</defs>
</svg>
