<svg width="291" height="169" viewBox="0 0 291 169" fill="none" xmlns="http://www.w3.org/2000/svg">
<g clip-path="url(#clip0_87_365)">
<path d="M147.229 30.8754L149.565 26.7134C149.777 26.3344 149.642 25.8514 149.263 25.6384C148.884 25.4264 148.401 25.5614 148.188 25.9404L145.852 30.1024C145.64 30.4814 145.775 30.9644 146.154 31.1774C146.533 31.3894 147.017 31.2534 147.229 30.8754Z" fill="#FFA990"/>
<path d="M145.459 33.4074L146.24 28.6984C146.311 28.2704 146.019 27.8614 145.59 27.7904C145.162 27.7194 144.753 28.0114 144.682 28.4404L143.901 33.1494C143.83 33.5774 144.122 33.9864 144.551 34.0574C144.98 34.1274 145.388 33.8354 145.459 33.4074Z" fill="#FFA990"/>
<path d="M147.915 32.9974L149.705 30.0564C149.843 29.8304 149.652 29.4604 149.281 29.2354C148.91 29.0094 148.494 29.0104 148.357 29.2364L146.567 32.1774C146.429 32.4034 146.62 32.7734 146.991 32.9984C147.361 33.2234 147.777 33.2234 147.915 32.9974Z" fill="#FFA990"/>
<path d="M148.944 34.6576L150.734 31.7166C150.872 31.4906 150.681 31.1206 150.31 30.8956C149.939 30.6696 149.523 30.6706 149.386 30.8966L147.596 33.8376C147.458 34.0636 147.649 34.4336 148.02 34.6586C148.391 34.8836 148.807 34.8836 148.944 34.6576Z" fill="#FFA990"/>
<path d="M146.596 28.7515C146.561 28.8045 146.094 29.3525 145.585 29.9445C144.707 30.9665 144.085 32.1835 143.77 33.4935L143.167 36.0025C143.167 36.0025 147.054 37.5105 147.183 37.3775C149.307 35.1705 150.366 32.2205 150.366 32.2205L146.596 28.7515Z" fill="#FFA990"/>
<path d="M142.081 35.5816L143.332 33.5996L148.981 37.3896L147.211 39.5616L142.081 35.5816Z" fill="white"/>
<path d="M148.584 38.9553C148.584 38.9553 140.663 51.1083 140.638 51.1503C138.271 54.9223 133.649 57.2893 129.378 55.9453C128.738 55.7443 127.187 55.0083 126.539 54.6273C125.724 54.1473 117.396 46.4023 117.396 46.4023L118.335 35.4313C118.335 35.4313 128.445 45.8613 129.037 46.4163C130.051 47.3673 131.544 47.9963 132.202 47.8803C133.356 47.6923 133.931 47.2873 134.642 46.4863C138.151 42.5423 142.261 34.6523 142.261 34.6523L148.584 38.9553Z" fill="#202038"/>
<path d="M115.444 133.48C115.405 134.006 115.197 141.519 115.197 141.519L120.753 141.623L120.63 132.207L115.444 133.48Z" fill="#670A37"/>
<path d="M112.884 82.4111C112.874 82.4741 112.88 82.8231 112.899 83.4211C113.171 92.1701 114.704 139.888 114.704 139.888L121.87 139.644L123.766 83.7811L112.884 82.4111Z" fill="#202038"/>
<path d="M114.682 146.122L129.34 146.228C130.214 146.234 130.927 145.527 130.933 144.648C130.937 143.971 130.516 143.365 129.882 143.137L122.646 140.54L114.718 140.677L114.682 146.122Z" fill="#994B28"/>
<path d="M129.981 146.64L114.792 146.643L114.791 145.573L130.693 145.569V145.927C130.693 146.321 130.374 146.639 129.981 146.64Z" fill="#00093C"/>
<path d="M122.468 142.696L124.188 140.845" stroke="#00093C" stroke-width="1.1468" stroke-miterlimit="10" stroke-linecap="round"/>
<path d="M123.73 143.231L125.45 141.38" stroke="#00093C" stroke-width="1.1468" stroke-miterlimit="10" stroke-linecap="round"/>
<path d="M124.938 143.947L126.874 141.848" stroke="#00093C" stroke-width="1.1468" stroke-miterlimit="10" stroke-linecap="round"/>
<path d="M102.866 133.389C102.836 133.913 102.761 141.384 102.761 141.384L108.318 141.389L108.029 132.032L102.866 133.389Z" fill="#670A37"/>
<path d="M99.406 82.6714C99.398 82.7344 99.409 83.0814 99.438 83.6754C99.864 92.3664 102.238 139.772 102.238 139.772L109.399 139.403L110.31 83.8424L99.406 82.6714Z" fill="#202038"/>
<path d="M102.214 145.997L116.861 146.563C117.734 146.597 118.47 145.916 118.504 145.043C118.53 144.37 118.128 143.755 117.501 143.509L110.352 140.701L102.423 140.588L102.214 145.997Z" fill="#B6643B"/>
<path d="M117.139 146.982L102.308 146.519L102.341 145.456L118.235 145.953C118.216 146.54 117.726 147.001 117.139 146.982Z" fill="#00093C"/>
<path d="M110.106 142.837L111.883 141.052" stroke="#00093C" stroke-width="1.1434" stroke-miterlimit="10" stroke-linecap="round"/>
<path d="M111.349 143.408L113.127 141.623" stroke="#00093C" stroke-width="1.1434" stroke-miterlimit="10" stroke-linecap="round"/>
<path d="M112.534 144.158L114.536 142.133" stroke="#00093C" stroke-width="1.1434" stroke-miterlimit="10" stroke-linecap="round"/>
<path d="M124.149 81.1454C124.303 82.7394 123.877 84.2544 123.044 85.4844C121.98 87.0614 120.242 88.1704 118.196 88.3674L107.123 89.4374C106.794 89.4694 106.469 89.4754 106.149 89.4574C105.325 89.4204 104.535 89.2244 103.811 88.9014C103.682 88.8464 103.556 88.7844 103.433 88.7184C101.516 87.7194 100.124 85.7994 99.9009 83.4874L99.7649 79.9544L123.597 77.4434L124.149 81.1454Z" fill="#202038"/>
<path d="M111.931 39.3213L109.43 39.7653C108.06 40.0083 106.741 39.0863 106.498 37.7163L104.291 25.2713C104.048 23.9013 104.97 22.5823 106.34 22.3393L108.841 21.8953C110.211 21.6523 111.53 22.5743 111.773 23.9443L113.98 36.3893C114.222 37.7593 113.3 39.0783 111.931 39.3213Z" fill="#FFA990"/>
<path d="M121.28 12.2252C121.299 12.4022 121.314 12.5792 121.325 12.7572C121.375 13.6132 121.337 14.4602 121.212 15.2802C120.682 18.7892 118.612 21.8592 115.644 23.6842C114.17 24.5922 112.474 25.1912 110.637 25.3852C107.662 25.7002 105.326 27.2942 103.052 25.7092C102.319 25.1992 101.644 24.6132 101.045 23.9542C100.809 23.6942 100.584 23.4302 100.373 23.1532C99.0809 21.4652 97.7159 17.0102 97.4759 14.7432C96.7999 8.35018 101.287 2.60118 107.578 1.64718C107.758 1.62118 107.938 1.59818 108.118 1.57918C112.125 1.15518 115.876 2.75918 118.355 5.56618C118.359 5.56918 118.359 5.56918 118.359 5.56918C119.085 6.39418 119.702 7.32518 120.185 8.33618C120.754 9.52818 121.133 10.8392 121.28 12.2252Z" fill="#2C143F"/>
<path d="M106.013 17.4282C106.045 17.6872 106.029 17.9432 105.965 18.1872C105.895 18.4782 105.766 18.7982 105.58 19.0382C105.242 19.4702 104.75 19.8182 104.162 19.8902L102.899 20.0462L101.931 20.1682L101.568 17.2942L101.571 17.2932L101.502 16.7622L101.45 16.3492L101.404 15.9712L101.39 15.8732L101.393 15.8722L103.621 15.5952C104.184 15.5242 104.722 15.6792 105.148 15.9852C105.406 16.1712 105.622 16.4192 105.776 16.7032C105.902 16.9262 105.981 17.1662 106.013 17.4282Z" fill="#FFC4BC"/>
<path d="M120.994 13.5243L121.575 18.1713L121.663 18.8673C121.723 19.3253 121.744 19.7863 121.737 20.2343C121.668 24.4423 118.847 28.1633 114.797 29.4113C114.676 29.4543 114.55 29.4873 114.426 29.5163C113.99 29.6403 113.544 29.7233 113.083 29.7833C112.636 29.8413 112.196 29.8623 111.756 29.8573C110.897 29.8523 110.058 29.7333 109.257 29.5143C109.257 29.5143 109.254 29.5153 109.249 29.5123C105.763 28.5613 102.977 25.7463 102.209 22.1043C102.186 21.9943 102.163 21.8873 102.147 21.7763C102.117 21.6493 102.101 21.5163 102.084 21.3833L102.072 21.3143L102.031 21.0003L101.93 20.1713L101.568 17.3263L101.567 17.2983L101.566 17.2943L101.501 16.7663L101.449 16.3533L101.403 15.9753L101.393 15.8773C101.316 15.2193 101.335 14.5653 101.419 13.9283C101.472 13.4823 101.559 13.0423 101.665 12.6153C101.678 12.5453 101.692 12.4853 101.709 12.4213C101.797 12.0693 101.909 11.7173 102.039 11.3803C102.038 11.3773 102.041 11.3723 102.041 11.3723C102.531 10.0843 103.291 8.90926 104.262 7.93326C104.456 7.73826 104.658 7.54826 104.866 7.36826C106.316 6.13126 108.124 5.28526 110.146 5.03426C112.849 4.69726 115.464 5.47426 117.463 7.01426C118.534 7.83626 119.328 8.88126 119.983 10.0773C120.235 10.5333 120.431 11.0133 120.581 11.5123C120.779 12.1503 120.909 12.8243 120.994 13.5243Z" fill="#FFC7AF"/>
<path d="M102.538 17.1621L102.899 20.0471L103.141 21.9951L102.375 22.0921C102.319 22.0981 102.263 22.1051 102.209 22.1031C100.917 22.1751 99.759 21.1901 99.597 19.9111C99.511 19.2471 99.719 18.6451 100.11 18.1471C100.46 17.7031 100.973 17.4081 101.567 17.2951L101.57 17.2941C101.638 17.2751 101.697 17.2641 101.768 17.2591L102.538 17.1621Z" fill="#FFC4BC"/>
<path d="M112.81 29.7941C112.81 29.7941 111.098 30.2171 109.257 29.5131C109.257 29.5131 109.254 29.5141 109.249 29.5111C105.763 28.5601 102.977 25.7451 102.209 22.1031C100.917 22.1751 99.759 21.1901 99.597 19.9111C99.511 19.2471 99.719 18.6451 100.11 18.1471C100.46 17.7031 100.973 17.4081 101.567 17.2951L101.566 17.2911L101.501 16.7631L101.449 16.3501L101.403 15.9721L101.389 15.8741L101.392 15.8731C101.315 15.2151 101.334 14.5611 101.418 13.9241C102.598 12.9601 103.908 12.5851 104.957 14.0901C104.957 14.0901 105.012 14.8451 105.147 15.9861C105.245 16.8411 105.385 17.9101 105.577 19.0371C105.967 21.3561 106.565 23.9191 107.439 25.3841C109.305 28.5111 112.81 29.7941 112.81 29.7941Z" fill="#FFA990"/>
<path d="M100.381 86.2873C100.381 86.2873 110.118 85.2313 110.001 84.8793C109.884 84.5273 109.884 80.4213 109.884 80.4213C109.884 80.4213 117.627 79.1313 117.627 79.6003C117.627 80.0693 118.331 83.7063 118.331 83.7063L124.079 82.6503L123.962 76.5503L98.975 79.1313L100.381 86.2873Z" fill="#01032B"/>
<path d="M119.121 77.3201L107.508 78.4812L103.54 31.0611L107.121 30.8681L110.508 39.7231L111.253 30.8421L114.282 30.5771L119.121 77.3201Z" fill="white"/>
<path d="M109.927 83.605C109.927 83.605 107.177 84.006 105.191 84.36C104.497 84.482 103.707 84.598 102.842 84.691C101.628 84.819 100.264 84.9 98.801 84.877C98.711 84.877 98.627 84.845 98.546 84.819L96.183 53.705C96.154 53.461 96.128 53.22 96.102 52.988C95.577 48.232 95.739 45.532 95.675 41.436C95.663 40.847 95.652 40.225 95.629 39.569C95.614 39.177 95.658 38.811 95.745 38.463C96.204 36.637 97.931 35.362 99.821 34.413C100.959 33.844 102.155 33.388 103.166 33.008C103.636 32.828 103.539 32.908 103.781 32.686L109.927 83.605Z" fill="#202038"/>
<path d="M125.484 81.7119L123.562 81.8909L119.149 82.2989C119.149 82.2989 114.004 32.6229 114.458 32.7919C115.229 33.0809 116.059 33.5279 116.876 34.1119C118.551 35.3049 120.167 37.0749 121.071 39.2289C121.331 39.8409 121.532 40.4889 121.655 41.1609C121.662 41.1859 121.669 41.2139 121.673 41.2379C122.44 45.4839 125.484 81.7119 125.484 81.7119Z" fill="#202038"/>
<path d="M111.441 42.6943C111.469 43.0133 111.233 43.2953 110.914 43.3243C110.595 43.3523 110.313 43.1163 110.284 42.7973C110.256 42.4783 110.492 42.1963 110.811 42.1673C111.131 42.1393 111.413 42.3753 111.441 42.6943Z" fill="#9B95A8"/>
<path d="M111.956 48.5263C111.984 48.8453 111.748 49.1273 111.429 49.1563C111.11 49.1843 110.828 48.9483 110.799 48.6293C110.771 48.3103 111.007 48.0283 111.326 47.9993C111.646 47.9713 111.928 48.2073 111.956 48.5263Z" fill="#9B95A8"/>
<path d="M112.472 54.3595C112.5 54.6785 112.264 54.9605 111.945 54.9895C111.626 55.0175 111.344 54.7815 111.315 54.4625C111.287 54.1435 111.523 53.8615 111.842 53.8325C112.161 53.8035 112.444 54.0395 112.472 54.3595Z" fill="#9B95A8"/>
<path d="M112.987 60.1915C113.015 60.5105 112.779 60.7925 112.46 60.8215C112.141 60.8495 111.859 60.6135 111.83 60.2945C111.802 59.9755 112.038 59.6935 112.357 59.6645C112.676 59.6355 112.959 59.8715 112.987 60.1915Z" fill="#9B95A8"/>
<path d="M113.502 66.0231C113.53 66.3421 113.294 66.6241 112.975 66.6531C112.656 66.6811 112.374 66.4451 112.345 66.1261C112.317 65.8071 112.553 65.5251 112.872 65.4961C113.192 65.4671 113.474 65.7041 113.502 66.0231Z" fill="#9B95A8"/>
<path d="M107.121 30.8682L106.637 34.2552L103.983 34.2832L103.54 31.0612L107.121 30.8682Z" fill="white"/>
<path d="M111.253 30.842L112.323 33.747L114.462 33.718L114.718 30.481L111.253 30.842Z" fill="white"/>
<path d="M101.121 16.5453L101.598 18.8623C101.7 19.3593 102.239 19.6313 102.7 19.4193C102.923 19.3163 103.085 19.1173 103.139 18.8773C103.378 17.8063 104.104 14.7233 104.895 13.0613C105.863 11.0293 108.185 10.9323 108.185 10.9323L111.273 11.6773C112.248 11.9123 113.042 10.8833 112.567 9.99926L112.444 9.77026L116.417 10.6873C117.278 10.8863 117.817 10.0423 117.552 9.20026C117.548 9.18826 117.555 9.18426 117.573 9.19026C117.73 9.24226 119.864 9.29526 121.793 9.33226C122.894 9.35326 123.399 7.97426 122.549 7.27426C120.161 5.30826 116.378 2.60826 113.121 2.12626C107.895 1.35226 101.218 7.64226 100.734 9.09426C100.25 10.5453 101.121 16.5453 101.121 16.5453Z" fill="#2C143F"/>
<path d="M111.854 18.6794C111.633 18.7264 111.413 18.5834 111.367 18.3614L111.167 17.4144C111.12 17.1934 111.263 16.9734 111.485 16.9274C111.706 16.8804 111.926 17.0234 111.972 17.2454L112.172 18.1924C112.218 18.4134 112.075 18.6324 111.854 18.6794Z" fill="#00093C"/>
<path d="M118.943 17.2512C118.722 17.2982 118.502 17.1552 118.456 16.9332L118.256 15.9862C118.209 15.7652 118.352 15.5452 118.574 15.4992C118.795 15.4522 119.015 15.5952 119.061 15.8172L119.261 16.7642C119.307 16.9862 119.164 17.2052 118.943 17.2512Z" fill="#00093C"/>
<path d="M101.263 84.6273C100.049 84.7553 100.265 84.9003 98.8019 84.8773C98.7119 84.8773 98.6279 84.8453 98.5469 84.8193L96.0379 52.5953C96.0089 52.3513 97.3219 50.4083 97.2959 50.1763C98.2849 53.6763 102.128 84.5343 101.263 84.6273Z" fill="#111123"/>
<path d="M99.8469 80.8974L105.453 83.2554C105.862 83.4274 106.338 83.2334 106.51 82.8244C106.683 82.4134 106.49 81.9404 106.079 81.7674L100.473 79.4094C100.064 79.2374 99.5879 79.4314 99.4159 79.8404C99.2429 80.2494 99.4379 80.7254 99.8469 80.8974Z" fill="#FFC7AF"/>
<path d="M115.207 92.8425L106.035 98.7385C103.78 100.188 100.777 99.5355 99.3279 97.2805L96.6919 93.1795C95.2429 90.9245 95.8949 87.9215 98.1499 86.4725L107.322 80.5765C109.577 79.1275 112.58 79.7795 114.029 82.0345L116.665 86.1355C118.114 88.3905 117.462 91.3935 115.207 92.8425Z" fill="#C2C2C8"/>
<g opacity="0.51">
<g opacity="0.51">
<path opacity="0.51" d="M102.44 88.3555C102.467 88.2895 105.59 85.1425 105.127 84.4065C104.356 83.1805 103.309 81.9175 102.229 80.9165L100.163 79.0005C100.163 79.0005 97.5449 81.9095 97.4039 82.0565C95.4329 84.0935 99.9589 87.3565 99.9589 87.3565C99.9589 87.3565 101.838 89.8325 102.44 88.3555Z" fill="#87807F"/>
</g>
<g opacity="0.51">
<path opacity="0.51" d="M102.637 84.3156L107.28 88.8726C107.619 89.2056 108.206 89.1086 108.584 88.6566C108.962 88.2056 108.994 87.5636 108.655 87.2306L104.012 82.6736C103.673 82.3406 103.086 82.4376 102.708 82.8896C102.33 83.3406 102.298 83.9826 102.637 84.3156Z" fill="#87807F"/>
</g>
<g opacity="0.51">
<path opacity="0.51" d="M102.285 86.9095L106.044 90.5335C106.386 90.8635 106.915 90.8305 107.22 90.4615C107.525 90.0915 107.495 89.5195 107.153 89.1905L103.394 85.5665C103.052 85.2365 102.523 85.2695 102.218 85.6385C101.913 86.0085 101.943 86.5805 102.285 86.9095Z" fill="#87807F"/>
</g>
<g opacity="0.51">
<path opacity="0.51" d="M99.1689 86.7503L103.618 91.0403C103.96 91.3703 104.489 91.3373 104.794 90.9683C105.099 90.5983 105.069 90.0263 104.727 89.6973L100.278 85.4073C99.9359 85.0773 99.4069 85.1103 99.1019 85.4793C98.7959 85.8483 98.8269 86.4213 99.1689 86.7503Z" fill="#87807F"/>
</g>
</g>
<path d="M102.27 87.3905C102.296 87.3315 105.323 84.5085 104.874 83.8485C104.127 82.7495 103.112 81.6165 102.066 80.7185L100.062 79.0005C100.062 79.0005 97.5249 81.6095 97.3879 81.7405C95.4779 83.5675 99.8649 86.4935 99.8649 86.4935C99.8649 86.4935 101.687 88.7155 102.27 87.3905Z" fill="#FFC7AF"/>
<path d="M102.423 83.8055L106.961 87.8535C107.292 88.1495 107.805 88.1195 108.101 87.7885C108.397 87.4575 108.367 86.9445 108.036 86.6485L103.498 82.6005C103.167 82.3045 102.654 82.3345 102.358 82.6655C102.063 82.9965 102.092 83.5095 102.423 83.8055Z" fill="#FFC7AF"/>
<path d="M102.12 86.0935L105.764 89.3445C106.095 89.6405 106.608 89.6105 106.904 89.2795C107.2 88.9485 107.17 88.4355 106.839 88.1395L103.195 84.8885C102.864 84.5925 102.351 84.6225 102.055 84.9535C101.759 85.2855 101.789 85.7985 102.12 86.0935Z" fill="#FFC7AF"/>
<path d="M99.0989 85.9514L103.412 89.7984C103.743 90.0944 104.256 90.0645 104.552 89.7335C104.848 89.4025 104.818 88.8895 104.487 88.5935L100.174 84.7465C99.8429 84.4505 99.3299 84.4805 99.0339 84.8115C98.7379 85.1425 98.7679 85.6554 99.0989 85.9514Z" fill="#FFC7AF"/>
<path d="M101.486 79.0134L100.902 78.4924L99.605 77.3384L95.893 81.5004L95.116 82.3734L95.366 82.5954L95.912 83.0854L96.994 84.0504L97.202 83.8174L99.817 80.8834L100.877 79.6974L100.954 79.6124L101.486 79.0134Z" fill="white"/>
<path d="M100.419 40.7144L97.5289 37.2514L97.0449 36.8394C96.9839 36.9104 96.1589 37.8894 94.9939 39.4854C93.9999 40.8494 92.7549 42.6654 91.5259 44.7574C87.7639 51.1614 86.0039 56.8954 86.2909 61.8054C86.8879 72.0104 94.5829 82.4924 94.9099 82.9334L95.3649 82.5944L96.2019 81.9744L99.6489 79.4194L100.134 79.0634L100.901 78.4914L101.422 78.1064C101.36 78.0204 94.8409 69.1024 94.3849 61.3304C94.0379 55.4064 96.8309 49.2294 99.8369 45.2874C100.268 44.7284 100.095 41.0964 100.419 40.7144Z" fill="#202038"/>
<path d="M112.212 86.94C112.212 87.539 111.753 88.025 111.187 88.025C110.621 88.025 110.162 87.539 110.162 86.94C110.162 86.341 110.621 85.855 111.187 85.855C111.753 85.855 112.212 86.341 112.212 86.94Z" fill="white"/>
<path d="M290.611 42.5674H7.61096V149.567H290.611V42.5674Z" fill="#D49C6B"/>
<path d="M211.605 125.902V75.6354C211.605 74.4914 210.678 73.5674 209.535 73.5674H130.577C129.431 73.5674 128.507 74.4924 128.507 75.6354V125.902H211.605Z" fill="#004661"/>
<path d="M208.202 76.7993H131.913V122.471H208.202V76.7993Z" fill="#00CACE"/>
<path d="M199.448 78.8877H143.036V131.672H199.448V78.8877Z" fill="white"/>
<path d="M199.926 132H142.557V78.5596H199.926V132ZM143.514 131.344H198.968V79.2152H143.514V131.344Z" fill="black"/>
<path d="M189.816 101.265H152.544V102.4H189.816V101.265Z" fill="black"/>
<path d="M189.816 104.031H152.544V105.167H189.816V104.031Z" fill="black"/>
<path d="M189.816 106.797H152.544V107.933H189.816V106.797Z" fill="black"/>
<path d="M189.816 109.563H152.544V110.699H189.816V109.563Z" fill="black"/>
<path d="M189.816 88.8652H152.667V89.3366H189.816V88.8652Z" fill="#FA3535"/>
<path d="M189.816 90.374H152.667V90.8453H189.816V90.374Z" fill="#FA3535"/>
<path d="M189.816 91.8813H152.667V92.3527H189.816V91.8813Z" fill="#FA3535"/>
<path d="M189.816 93.3901H152.667V93.8615H189.816V93.3901Z" fill="#FA3535"/>
<path d="M189.816 94.8979H152.667V95.3693H189.816V94.8979Z" fill="#FA3535"/>
<path d="M189.816 96.4062H152.667V96.8776H189.816V96.4062Z" fill="#FA3535"/>
<path d="M189.874 84.2153H152.544V84.8709H189.874V84.2153Z" fill="black"/>
<path d="M189.874 114.379H152.544V126.182H189.874V114.379Z" fill="#808080"/>
<path d="M160.396 130.093C159.517 133.684 158.639 137.276 157.761 140.867C165.957 140.867 174.155 140.867 182.353 140.867C181.474 137.275 180.596 133.684 179.718 130.093C173.277 130.093 166.837 130.093 160.396 130.093Z" fill="#AFAEB4"/>
<path d="M169.913 140.868C174.06 140.868 178.206 140.868 182.353 140.868C181.474 137.276 180.596 133.685 179.718 130.094C176.45 130.094 173.181 130.094 169.913 130.094V140.868Z" fill="#C2C3CA"/>
<path d="M183.873 140.677H156.241C155.54 140.677 154.971 141.344 154.971 142.169V142.729H185.143V142.169C185.143 141.344 184.573 140.677 183.873 140.677Z" fill="white"/>
<path d="M128.508 125.902V131.84C128.508 132.983 129.432 133.908 130.578 133.908H209.536C210.679 133.908 211.606 132.983 211.606 131.84V125.902H128.508Z" fill="white"/>
<path d="M241.611 142.567H97.611V149.567H241.611V142.567Z" fill="#814B1B"/>
<path d="M57.691 97.2044H47.17C35.887 97.2044 26.655 87.9724 26.655 76.6894V49.2294C26.655 37.9464 35.887 28.7144 47.17 28.7144H57.691C68.974 28.7144 78.206 37.9464 78.206 49.2294V76.6894C78.207 87.9724 68.975 97.2044 57.691 97.2044Z" fill="#FFA990"/>
<path d="M28.502 75.5853L26.455 75.6193C26.3 75.6183 26.153 75.6173 26.007 75.5993C22.581 75.4093 19.819 72.4733 19.764 69.0563C19.737 67.2803 20.458 65.7513 21.634 64.5583C22.691 63.4823 24.129 62.8583 25.729 62.7323C25.912 62.7063 26.086 62.6983 26.268 62.6993L28.324 62.6743L28.502 75.5853Z" fill="#FFA990"/>
<path d="M71.6899 76.6474L73.7369 76.6814C73.8919 76.6804 74.0389 76.6794 74.1849 76.6604C77.6109 76.4704 80.3729 73.5343 80.4279 70.1173C80.4549 68.3413 79.7339 66.8124 78.5579 65.6194C77.5009 64.5434 76.0629 63.9194 74.4629 63.7934C74.2799 63.7674 74.1059 63.7593 73.9239 63.7603L71.8679 63.7354L71.6899 76.6474Z" fill="#FFA990"/>
<path d="M33 135.72L30.686 139.58L30.428 140.016L21.947 154.168C20.259 156.979 18.885 159.918 17.817 162.932C17.516 163.779 17.24 164.638 16.989 165.503V165.515C14.135 175.254 14.417 185.675 17.829 195.34C19.014 198.703 20.573 201.98 22.518 205.104L28.262 214.346H6.35399V214.567C6.30499 214.493 6.26199 214.42 6.21899 214.346C3.70899 210.259 1.55499 205.963 -0.206015 201.538C-7.30001 183.716 -8.01801 163.771 0.566985 146.95C1.13199 145.839 1.73899 144.747 2.38399 143.667L16.757 126.03C17.064 125.521 17.414 125.048 17.8 124.619C20.734 121.336 25.717 120.501 29.675 122.87C34.16 125.545 35.651 131.295 33 135.72Z" fill="#FFA990"/>
<path d="M105.778 189.461C105.397 192.026 104.869 194.579 104.183 197.101C103.066 201.262 101.538 205.349 99.598 209.301C98.77 211.007 97.855 212.695 96.867 214.346H74.829L80.162 205.767C81.745 203.22 83.083 200.569 84.164 197.85C86.876 191.032 88.006 183.784 87.539 176.629C87.158 170.744 85.704 164.914 83.169 159.433C83.138 159.365 83.107 159.304 83.077 159.237C82.378 157.74 81.592 156.267 80.733 154.831L79.622 152.978L75.51 146.111L72.657 141.349L71.497 139.416L69.889 136.728L69.877 136.71L69.767 136.52V136.514L69.76 136.502L69.68 136.379C69.312 135.771 69.03 135.139 68.821 134.489V134.477C68.588 133.765 68.446 133.041 68.397 132.311V132.305C68.151 128.881 69.827 125.432 73.006 123.535C73.81 123.056 74.651 122.707 75.51 122.486C76.921 122.118 78.376 122.087 79.763 122.363C82.254 122.866 84.531 124.364 85.924 126.696L87.838 129.893V129.899L87.845 129.905L88.796 131.488L94.675 141.301L96.976 145.143C99.437 149.249 101.419 153.538 102.922 157.951V157.957C103.18 158.706 103.425 159.454 103.653 160.215C103.69 160.332 103.727 160.454 103.757 160.571C104.119 161.792 104.45 163.02 104.739 164.253C105.347 166.849 105.801 169.463 106.095 172.096C106.267 173.606 106.384 175.115 106.445 176.631C106.637 180.912 106.416 185.208 105.778 189.461Z" fill="#FFA990"/>
<path d="M94.728 141.416L81.739 161.663L59.339 114.536L72.79 113.511C72.79 113.511 84.029 118.517 94.728 141.416Z" fill="#F67448"/>
<path d="M84.63 214.346H18.363L17.829 195.34L16.989 165.515V165.503L16.891 162.072L16.467 147.202L16.351 143.004L16.111 134.511C16.013 131.031 16.62 127.687 17.799 124.618C19.064 121.335 20.984 118.358 23.409 115.854C24.728 114.492 26.195 113.264 27.791 112.209C29.749 110.902 31.897 109.852 34.186 109.104C35.628 108.631 37.126 108.282 38.672 108.061C39.69 107.914 40.728 107.828 41.783 107.803L55.192 107.478C57.524 107.423 59.788 107.662 61.955 108.171C63.121 108.447 64.256 108.797 65.361 109.214C65.441 109.245 65.521 109.275 65.594 109.306C66.503 109.662 67.386 110.061 68.239 110.509C69.853 111.356 71.375 112.362 72.768 113.51C73.652 114.24 74.492 115.02 75.278 115.854C75.358 115.94 75.437 116.026 75.511 116.112C77.217 117.971 78.653 120.076 79.764 122.359C81.31 125.562 82.225 129.128 82.335 132.902L82.605 142.512L82.74 147.323L82.918 153.669L83.077 159.235L83.083 159.56L83.568 176.627L84.164 197.848L84.63 214.346Z" fill="#F67448"/>
<path d="M61.421 89.3003L61.988 109.394L38.724 109.959L38.157 89.8653L61.421 89.3003Z" fill="#FFA990"/>
<path d="M74.251 50.9683L27.989 51.5913L27.924 46.9103C27.787 37.0723 35.723 28.9153 45.561 28.7823L74.072 28.3983C78.974 28.3323 83.041 32.2893 83.11 37.1913L83.174 41.7973C83.243 46.7743 79.228 50.9013 74.251 50.9683Z" fill="#D3513E"/>
<path d="M0.503967 146.893L25.56 170.103L39.08 124.41L27.67 112.078C27.67 112.078 10.79 122.1 0.503967 146.893Z" fill="#F67448"/>
<path d="M65.591 103.73H34.184V110.328H65.591V103.73Z" fill="white"/>
<path d="M74.644 54.8823V71.8243C74.644 86.0023 63.045 97.6003 48.868 97.6003C34.691 97.6003 23.091 86.0013 23.091 71.8243V54.8823C23.091 40.7113 34.69 29.1123 48.867 29.1123C55.956 29.1123 62.396 32.0153 67.072 36.6843C71.747 41.3523 74.644 47.7933 74.644 54.8823Z" fill="#D3513E"/>
<path d="M74.644 71.8103V71.8233C74.644 86.0013 63.045 97.5993 48.868 97.5993C34.691 97.5993 23.091 86.0013 23.091 71.8243V71.5073C26.259 78.5233 33.876 90.9753 47.928 90.2613C62.959 89.4933 71.509 77.3453 74.644 71.8103Z" fill="#AD3425"/>
<g opacity="0.67">
<path opacity="0.67" d="M97.143 170.77V209.027H3.89899V170.77C3.89899 165.59 5.18199 160.705 7.45799 156.428C9.13999 153.255 11.367 150.408 14.012 148.02C17.897 144.516 22.677 141.987 27.973 140.834C28.783 140.65 29.606 140.509 30.434 140.398C31.011 140.318 31.6 140.257 32.189 140.214C32.189 140.214 32.189 140.214 32.195 140.214C32.975 140.153 33.76 140.122 34.551 140.122H66.488C67.126 140.122 67.759 140.14 68.385 140.183H68.391C68.495 140.183 68.594 140.195 68.698 140.201C68.814 140.207 68.931 140.219 69.041 140.232C70.404 140.336 71.748 140.539 73.055 140.827C75.547 141.367 77.928 142.22 80.15 143.331C82.556 144.528 84.783 146.031 86.778 147.799C87.189 148.161 87.594 148.535 87.981 148.922C91.227 152.107 93.762 156.016 95.339 160.386C96.504 163.627 97.143 167.125 97.143 170.77Z" fill="#631438"/>
</g>
<path d="M97.143 176.089V214.346H3.89899V176.089C3.89899 170.909 5.18199 166.025 7.45799 161.747C9.13999 158.574 11.367 155.727 14.012 153.339C17.897 149.835 22.677 147.306 27.973 146.153C28.783 145.969 29.606 145.828 30.434 145.717C31.011 145.637 31.6 145.576 32.189 145.533C32.189 145.533 32.189 145.533 32.195 145.533C32.975 145.472 33.76 145.441 34.551 145.441H66.488C67.126 145.441 67.759 145.459 68.385 145.502H68.391C68.495 145.502 68.594 145.514 68.698 145.52C68.814 145.526 68.931 145.538 69.041 145.551C70.404 145.655 71.748 145.858 73.055 146.146C75.547 146.686 77.928 147.539 80.15 148.65C82.556 149.847 84.783 151.35 86.778 153.118C87.189 153.48 87.594 153.854 87.981 154.241C91.227 157.426 93.762 161.335 95.339 165.705C96.504 168.945 97.143 172.443 97.143 176.089Z" fill="#F04141"/>
<path d="M97.143 186.52V214.346H3.89899V186.52C3.89899 181.34 5.18199 176.456 7.45799 172.178C9.13999 169.005 11.367 166.158 14.012 163.77C17.897 160.266 22.677 157.737 27.973 156.584C28.783 156.4 29.606 156.259 30.434 156.148C31.011 156.068 31.6 156.007 32.189 155.964C32.189 155.964 32.189 155.964 32.195 155.964C32.975 155.903 33.76 155.872 34.551 155.872H66.488C67.126 155.872 67.759 155.89 68.385 155.933H68.391C68.495 155.933 68.594 155.945 68.698 155.951C68.814 155.957 68.931 155.969 69.041 155.982C70.404 156.086 71.748 156.289 73.055 156.577C75.547 157.117 77.928 157.97 80.15 159.081C82.556 160.278 84.783 161.781 86.778 163.549C87.189 163.911 87.594 164.285 87.981 164.672C91.227 167.857 93.762 171.766 95.339 176.136C96.504 179.377 97.143 182.875 97.143 186.52Z" fill="#B82439"/>
<path d="M66.611 25.5672C66.611 25.5672 66.235 24.1162 66.26 22.0972" stroke="black" stroke-miterlimit="10"/>
<path d="M66.439 19.971C67.295 14.637 71.682 7.79395 89.347 10.539" stroke="black" stroke-miterlimit="10" stroke-dasharray="7.48 2.14"/>
<path d="M90.411 10.7129C91.506 10.9009 92.651 11.1249 93.846 11.3869" stroke="black" stroke-miterlimit="10"/>
<path d="M92.111 62.0674C92.111 62.0674 133.111 66.0674 165.111 33.0674" stroke="black" stroke-miterlimit="10" stroke-dasharray="7 2"/>
<path d="M193.83 23.1694C193.83 31.2334 187.293 37.7714 179.228 37.7714C171.163 37.7714 164.625 31.2334 164.625 23.1694C164.625 15.1054 171.163 8.56738 179.228 8.56738C187.293 8.56738 193.83 15.1044 193.83 23.1694Z" fill="#A6A9AC"/>
<path d="M179.228 35.3334C185.946 35.3334 191.392 29.8874 191.392 23.1694C191.392 16.4514 185.946 11.0054 179.228 11.0054C172.51 11.0054 167.064 16.4514 167.064 23.1694C167.064 29.8874 172.51 35.3334 179.228 35.3334Z" fill="#EFF0F0"/>
<path d="M168.973 22.5142C169.285 22.5142 169.538 22.7672 169.538 23.0802V23.2592C169.538 23.5712 169.285 23.8242 168.973 23.8242H166.731C166.419 23.8242 166.165 23.5712 166.165 23.2592V23.0802C166.165 22.7682 166.419 22.5142 166.731 22.5142H168.973Z" fill="#6C6E71"/>
<path d="M189.483 23.8242C189.171 23.8242 188.918 23.5712 188.918 23.2592V23.0802C188.918 22.7682 189.171 22.5142 189.483 22.5142H191.725C192.038 22.5142 192.291 22.7672 192.291 23.0802V23.2592C192.291 23.5712 192.038 23.8242 191.725 23.8242H189.483Z" fill="#6C6E71"/>
<path d="M178.574 33.4244C178.574 33.1124 178.827 32.8584 179.139 32.8584H179.318C179.63 32.8584 179.883 33.1114 179.883 33.4244V35.6664C179.883 35.9784 179.63 36.2314 179.318 36.2314H179.139C178.827 36.2314 178.574 35.9784 178.574 35.6664V33.4244Z" fill="#6C6E71"/>
<path d="M179.883 12.9144C179.883 13.2264 179.63 13.4794 179.318 13.4794H179.139C178.827 13.4794 178.573 13.2264 178.573 12.9144V10.6724C178.573 10.3594 178.826 10.1064 179.139 10.1064H179.318C179.63 10.1064 179.883 10.3594 179.883 10.6724V12.9144Z" fill="#6C6E71"/>
<path d="M180.7 24.2443C180.921 24.4653 180.921 24.8233 180.7 25.0433L180.574 25.1693C180.353 25.3903 179.995 25.3903 179.774 25.1693L172.444 17.8393C172.222 17.6183 172.223 17.2603 172.444 17.0393L172.57 16.9133C172.791 16.6923 173.148 16.6923 173.369 16.9133L180.7 24.2443Z" fill="#3E3D3F"/>
<path d="M178.746 25.1703C178.526 25.3913 178.168 25.3913 177.947 25.1703L177.821 25.0443C177.6 24.8233 177.6 24.4663 177.821 24.2443L183.237 18.8293C183.457 18.6083 183.816 18.6083 184.036 18.8293L184.162 18.9563C184.383 19.1763 184.383 19.5343 184.162 19.7553L178.746 25.1703Z" fill="#3E3D3F"/>
<path d="M201.611 11.0674C201.611 11.4454 201.302 11.7554 200.923 11.7554H196.798V15.8804C196.798 16.2584 196.489 16.5684 196.111 16.5684C195.733 16.5684 195.423 16.2594 195.423 15.8804V11.7554H191.298C190.92 11.7554 190.611 11.4464 190.611 11.0674C190.611 10.6884 190.92 10.3794 191.298 10.3794H195.423V6.25441C195.423 5.87641 195.732 5.56641 196.111 5.56641C196.489 5.56641 196.798 5.87541 196.798 6.25441V10.3794H200.923C201.302 10.3794 201.611 10.6894 201.611 11.0674Z" fill="#169B2F"/>
</g>
<defs>
<clipPath id="clip0_87_365">
<rect width="291" height="169" fill="white"/>
</clipPath>
</defs>
</svg>
