<svg width="283" height="141" viewBox="0 0 283 141" fill="none" xmlns="http://www.w3.org/2000/svg">
<g clip-path="url(#clip0_87_138)">
<path d="M283.412 15.9551H0.412018V122.955H283.412V15.9551Z" fill="#E6E6E6"/>
<path d="M185.48 25.9551H122.412V113.639H185.48V25.9551Z" fill="#A1AECF"/>
<path d="M181.975 109.327H125.915V110.764H181.975V109.327Z" fill="#868EAA"/>
<path d="M183.413 28.8301H124.478V109.327H183.413V28.8301Z" fill="white"/>
<path d="M178.839 34.7231C180.769 34.7231 180.773 31.7231 178.839 31.7231C176.909 31.7231 176.906 34.7231 178.839 34.7231Z" fill="black"/>
<path d="M129.247 34.7231C131.177 34.7231 131.181 31.7231 129.247 31.7231C127.317 31.7231 127.314 34.7231 129.247 34.7231Z" fill="black"/>
<path d="M136.341 66.7418H135.972C135.181 66.7418 134.539 66.1008 134.539 65.3088V64.9398C134.539 64.1488 135.18 63.5068 135.972 63.5068H136.341C137.132 63.5068 137.774 64.1478 137.774 64.9398V65.3088C137.774 66.1008 137.133 66.7418 136.341 66.7418Z" fill="#FFB02A"/>
<path d="M136.341 72.4918H135.972C135.181 72.4918 134.539 71.8508 134.539 71.0588V70.6898C134.539 69.8988 135.18 69.2568 135.972 69.2568H136.341C137.132 69.2568 137.774 69.8978 137.774 70.6898V71.0588C137.774 71.8508 137.133 72.4918 136.341 72.4918Z" fill="#FFB02A"/>
<path d="M136.341 78.2418H135.972C135.181 78.2418 134.539 77.6008 134.539 76.8088V76.4398C134.539 75.6488 135.18 75.0068 135.972 75.0068H136.341C137.132 75.0068 137.774 75.6478 137.774 76.4398V76.8088C137.774 77.6008 137.133 78.2418 136.341 78.2418Z" fill="#FFB02A"/>
<path d="M173.35 64.4067H141.547V65.8437H173.35V64.4067Z" fill="#FFB02A"/>
<path d="M173.35 70.1558H141.547V71.5928H173.35V70.1558Z" fill="#FFB02A"/>
<path d="M173.35 75.9058H141.547V77.3428H173.35V75.9058Z" fill="#FFB02A"/>
<path d="M141.986 54.7038H138.054C135.769 54.7038 133.911 52.8448 133.911 50.5608V46.6288C133.911 44.3438 135.77 42.4858 138.054 42.4858H141.986C144.271 42.4858 146.129 44.3448 146.129 46.6288V50.5608C146.129 52.8448 144.271 54.7038 141.986 54.7038ZM138.054 43.2038C136.166 43.2038 134.63 44.7398 134.63 46.6278V50.5598C134.63 52.4478 136.166 53.9838 138.054 53.9838H141.986C143.874 53.9838 145.41 52.4478 145.41 50.5598V46.6278C145.41 44.7398 143.874 43.2038 141.986 43.2038H138.054Z" fill="black"/>
<path d="M173.62 45.7197H148.285V47.1567H173.62V45.7197Z" fill="#F60C5B"/>
<path d="M173.62 48.02H148.285V49.457H173.62V48.02Z" fill="#F60C5B"/>
<path d="M173.62 50.3198H148.285V51.7568H173.62V50.3198Z" fill="#F60C5B"/>
<path d="M173.351 87.0459H134.54V87.7649H173.351V87.0459Z" fill="black"/>
<path d="M173.351 89.3457H134.54V90.0647H173.351V89.3457Z" fill="black"/>
<path d="M173.351 91.646H134.54V92.365H173.351V91.646Z" fill="black"/>
<path d="M173.351 93.9458H134.54V94.6648H173.351V93.9458Z" fill="black"/>
<path d="M173.351 96.2461H134.54V96.9651H173.351V96.2461Z" fill="black"/>
<path d="M173.351 98.5459H134.54V99.2649H173.351V98.5459Z" fill="black"/>
<path d="M149.782 73.0582L155.555 62.7742C156.08 61.8392 155.744 60.6442 154.809 60.1192C153.874 59.5942 152.679 59.9302 152.154 60.8652L146.381 71.1492C145.856 72.0842 146.192 73.2792 147.127 73.8042C148.062 74.3292 149.257 73.9942 149.782 73.0582Z" fill="#FFA990"/>
<path d="M145.409 79.315L147.339 67.68C147.515 66.622 146.792 65.612 145.734 65.437C144.676 65.261 143.666 65.984 143.491 67.042L141.561 78.677C141.385 79.735 142.108 80.745 143.166 80.92C144.224 81.096 145.234 80.374 145.409 79.315Z" fill="#FFA990"/>
<path d="M151.477 78.3024L155.899 71.0354C156.239 70.4774 155.767 69.5634 154.851 69.0064C153.935 68.4484 152.907 68.4494 152.567 69.0074L148.145 76.2744C147.805 76.8324 148.277 77.7464 149.193 78.3034C150.11 78.8614 151.137 78.8604 151.477 78.3024Z" fill="#FFA990"/>
<path d="M154.02 82.4054L158.442 75.1384C158.782 74.5804 158.31 73.6664 157.394 73.1094C156.478 72.5514 155.45 72.5524 155.11 73.1104L150.688 80.3774C150.348 80.9354 150.82 81.8494 151.736 82.4064C152.653 82.9644 153.68 82.9634 154.02 82.4054Z" fill="#FFA990"/>
<path d="M148.217 67.812C148.132 67.943 146.976 69.296 145.72 70.759C143.55 73.284 142.013 76.29 141.235 79.527L139.744 85.726C139.744 85.726 149.35 89.453 149.668 89.123C154.915 83.671 157.532 76.381 157.532 76.381L148.217 67.812Z" fill="#FFA990"/>
<path d="M137.063 84.6871L140.152 79.7891L154.112 89.1541L149.739 94.5221L137.063 84.6871Z" fill="white"/>
<path d="M153.13 93.0251C153.13 93.0251 133.558 123.055 133.496 123.159C127.648 132.479 116.227 138.329 105.674 135.008C104.093 134.51 100.261 132.692 98.659 131.751C96.644 130.565 76.066 111.426 76.066 111.426L78.385 84.3171C78.385 84.3171 103.367 110.088 104.83 111.461C107.336 113.812 111.025 115.365 112.65 115.079C115.501 114.614 116.922 113.615 118.679 111.634C127.349 101.89 137.505 82.3921 137.505 82.3921L153.13 93.0251Z" fill="#202038"/>
<path d="M60.179 94.3514L58.763 94.6024C54.068 95.4354 49.546 92.2754 48.713 87.5804L44.104 61.5944C43.271 56.8994 46.431 52.3774 51.126 51.5444L52.542 51.2934C57.237 50.4604 61.759 53.6204 62.592 58.3154L67.201 84.3004C68.034 88.9964 64.874 93.5184 60.179 94.3514Z" fill="#FFA990"/>
<path d="M85.663 26.9762C85.709 27.4132 85.747 27.8512 85.775 28.2902C85.9 30.4062 85.805 32.4992 85.497 34.5252C84.187 43.1962 79.072 50.7822 71.738 55.2922C68.097 57.5352 63.906 59.0162 59.366 59.4962C52.016 60.2742 46.244 64.2122 40.625 60.2972C38.814 59.0362 37.145 57.5892 35.665 55.9602C35.083 55.3182 34.527 54.6642 34.003 53.9802C30.811 49.8082 27.438 38.8002 26.845 33.1992C25.174 17.4012 36.262 3.19521 51.806 0.838209C52.25 0.773209 52.695 0.717209 53.141 0.670209C63.042 -0.377791 72.31 3.58521 78.437 10.5222C78.447 10.5302 78.447 10.5302 78.447 10.5302C80.241 12.5682 81.765 14.8692 82.959 17.3682C84.363 20.3122 85.3 23.5502 85.663 26.9762Z" fill="#2C143F"/>
<path d="M47.939 39.832C48.017 40.472 47.979 41.105 47.821 41.707C47.649 42.427 47.329 43.216 46.869 43.81C46.034 44.877 44.817 45.737 43.365 45.915L40.245 46.301L37.852 46.602L36.955 39.502L36.964 39.5L36.793 38.188L36.665 37.168L36.552 36.234L36.518 35.993L36.527 35.991L42.031 35.306C43.422 35.13 44.752 35.512 45.805 36.271C46.443 36.732 46.976 37.344 47.356 38.045C47.666 38.591 47.859 39.184 47.939 39.832Z" fill="#FFC4BC"/>
<path d="M84.955 30.1841L86.391 41.6671L86.608 43.3861C86.755 44.5171 86.807 45.6561 86.792 46.7631C86.623 57.1621 79.651 66.3561 69.644 69.4381C69.345 69.5441 69.033 69.6261 68.727 69.6981C67.651 70.0041 66.548 70.2081 65.408 70.3571C64.303 70.5001 63.217 70.5511 62.129 70.5411C60.007 70.5291 57.933 70.2341 55.955 69.6931C55.955 69.6931 55.946 69.6951 55.936 69.6871C47.323 67.3371 40.437 60.3801 38.541 51.3811C38.484 51.1091 38.428 50.8451 38.388 50.5691C38.315 50.2551 38.274 49.9271 38.234 49.5981L38.204 49.4271L38.102 48.6501L37.853 46.6011L36.959 39.5711L36.955 39.5011L36.953 39.4921L36.792 38.1871L36.664 37.1671L36.551 36.2331L36.526 35.9901C36.335 34.3631 36.384 32.7471 36.59 31.1741C36.721 30.0731 36.935 28.9841 37.198 27.9301C37.229 27.7571 37.265 27.6091 37.307 27.4511C37.524 26.5821 37.802 25.7121 38.122 24.8781C38.121 24.8701 38.128 24.8591 38.128 24.8591C39.339 21.6771 41.217 18.7731 43.616 16.3611C44.096 15.8791 44.596 15.4101 45.109 14.9661C48.691 11.9101 53.161 9.82015 58.155 9.19915C64.835 8.36715 71.295 10.2861 76.236 14.0911C78.883 16.1211 80.843 18.7051 82.462 21.6601C83.086 22.7861 83.57 23.9721 83.939 25.2051C84.424 26.7901 84.746 28.4551 84.955 30.1841Z" fill="#FFC7AF"/>
<path d="M39.352 39.1743L40.245 46.3023L40.843 51.1153L38.951 51.3543C38.813 51.3703 38.674 51.3853 38.541 51.3823C35.349 51.5603 32.488 49.1263 32.087 45.9653C31.876 44.3243 32.389 42.8383 33.354 41.6073C34.219 40.5093 35.485 39.7803 36.955 39.5023L36.964 39.5003C37.132 39.4523 37.278 39.4273 37.452 39.4133L39.352 39.1743Z" fill="#FFC4BC"/>
<path d="M64.734 70.3882C64.734 70.3882 60.503 71.4332 55.955 69.6932C55.955 69.6932 55.946 69.6952 55.936 69.6872C47.323 67.3372 40.437 60.3802 38.541 51.3812C35.349 51.5592 32.488 49.1252 32.087 45.9642C31.876 44.3232 32.389 42.8372 33.354 41.6062C34.219 40.5082 35.485 39.7792 36.955 39.5012L36.953 39.4922L36.792 38.1872L36.664 37.1672L36.551 36.2332L36.517 35.9922L36.526 35.9902C36.335 34.3632 36.384 32.7472 36.59 31.1742C39.506 28.7932 42.742 27.8662 45.336 31.5832C45.336 31.5832 45.472 33.4492 45.805 36.2692C46.047 38.3812 46.392 41.0222 46.868 43.8082C47.831 49.5372 49.308 55.8722 51.469 59.4902C56.072 67.2172 64.734 70.3882 64.734 70.3882Z" fill="#FFA990"/>
<path d="M82.487 31.4703L74.923 32.8123C74.177 32.9443 73.459 32.4423 73.327 31.6973C73.195 30.9513 73.697 30.2333 74.442 30.1013L82.006 28.7603C82.752 28.6283 83.47 29.1303 83.602 29.8753C83.734 30.6193 83.233 31.3383 82.487 31.4703Z" fill="#2C143F"/>
<path d="M64.077 34.7355L56.513 36.0775C55.767 36.2095 55.049 35.7075 54.917 34.9625C54.785 34.2165 55.287 33.4985 56.032 33.3665L63.596 32.0245C64.342 31.8925 65.06 32.3945 65.192 33.1395C65.325 33.8855 64.823 34.6035 64.077 34.7355Z" fill="#2C143F"/>
<path d="M68.582 53.8502C70.074 55.3642 71.802 55.7342 73.632 55.5062C75.814 55.2332 78.083 53.8332 78.515 51.9692L68.582 53.8502Z" fill="white"/>
<path d="M75.943 46.1635C75.953 46.1995 75.796 46.1855 75.796 46.1855C75.976 47.4075 75.093 48.5605 72.471 48.9475L70.464 39.4175C73.874 42.4555 75.399 44.2095 75.943 46.1635Z" fill="#FFA990"/>
<path d="M80.329 187.822L51.633 190.692L41.829 73.5192L50.677 73.0412L59.046 94.9212L60.886 72.9772L68.372 72.3242L80.329 187.822Z" fill="white"/>
<path d="M57.611 203.352C57.611 203.352 50.817 204.342 45.91 205.217C44.196 205.518 42.244 205.805 40.106 206.035C37.107 206.351 33.736 206.551 30.12 206.494C29.898 206.494 29.69 206.415 29.489 206.35L23.649 129.468C23.577 128.865 23.513 128.27 23.448 127.696C22.15 115.945 22.551 109.274 22.393 99.1513C22.364 97.6953 22.336 96.1603 22.278 94.5383C22.242 93.5693 22.35 92.6663 22.565 91.8053C23.699 87.2933 27.967 84.1433 32.637 81.7983C35.449 80.3923 38.405 79.2663 40.901 78.3263C42.063 77.8813 41.822 78.0803 42.422 77.5303L57.611 203.352Z" fill="#202038"/>
<path d="M96.052 198.675L91.304 199.118L80.399 200.127C80.399 200.127 67.685 77.3804 68.807 77.7984C70.711 78.5114 72.764 79.6154 74.781 81.0594C78.92 84.0074 82.912 88.3814 85.147 93.7034C85.791 95.2164 86.286 96.8164 86.591 98.4774C86.608 98.5384 86.626 98.6074 86.634 98.6684C88.529 109.157 96.052 198.675 96.052 198.675Z" fill="#202038"/>
<path d="M61.351 102.264C61.421 103.053 60.837 103.75 60.048 103.82C59.259 103.89 58.562 103.306 58.493 102.517C58.423 101.728 59.007 101.031 59.796 100.962C60.585 100.892 61.282 101.475 61.351 102.264Z" fill="#9B95A8"/>
<path d="M62.625 116.675C62.695 117.464 62.111 118.161 61.322 118.23C60.533 118.3 59.836 117.716 59.767 116.927C59.697 116.138 60.281 115.441 61.07 115.371C61.859 115.303 62.555 115.886 62.625 116.675Z" fill="#9B95A8"/>
<path d="M63.898 131.086C63.968 131.875 63.384 132.572 62.595 132.641C61.806 132.711 61.109 132.127 61.04 131.338C60.97 130.549 61.554 129.852 62.343 129.783C63.132 129.714 63.829 130.297 63.898 131.086Z" fill="#9B95A8"/>
<path d="M50.677 73.041L49.481 81.41L42.923 81.481L41.829 73.519L50.677 73.041Z" fill="white"/>
<path d="M60.886 72.977L63.53 80.155L68.816 80.084L69.449 72.084L60.886 72.977Z" fill="white"/>
<path d="M35.851 37.6504L37.03 43.3764C37.283 44.6054 38.615 45.2774 39.754 44.7523C40.305 44.4973 40.705 44.0053 40.838 43.4123C41.428 40.7663 43.223 33.1474 45.178 29.0424C47.569 24.0204 53.308 23.7814 53.308 23.7814L60.938 25.6234C63.348 26.2054 65.31 23.6604 64.134 21.4784L63.829 20.9124L73.647 23.1784C75.773 23.6694 77.106 21.5844 76.452 19.5034C76.442 19.4724 76.458 19.4634 76.503 19.4784C76.891 19.6074 82.164 19.7364 86.931 19.8284C89.652 19.8804 90.9 16.4734 88.799 14.7434C82.897 9.88335 73.55 3.21235 65.503 2.02035C52.59 0.107353 36.09 15.6504 34.895 19.2374C33.699 22.8244 35.851 37.6504 35.851 37.6504Z" fill="#2C143F"/>
<path d="M62.372 42.923C61.825 43.038 61.283 42.685 61.168 42.138L60.675 39.798C60.56 39.251 60.913 38.709 61.46 38.594C62.007 38.479 62.549 38.832 62.664 39.379L63.157 41.719C63.272 42.266 62.919 42.808 62.372 42.923Z" fill="#00093C"/>
<path d="M79.888 39.3961C79.341 39.5111 78.799 39.1581 78.684 38.6111L78.191 36.2711C78.076 35.7241 78.429 35.1821 78.976 35.0671C79.523 34.9521 80.065 35.3051 80.18 35.8521L80.673 38.1921C80.788 38.7391 80.435 39.2811 79.888 39.3961Z" fill="#00093C"/>
<path d="M36.201 205.878C33.202 206.194 33.736 206.552 30.12 206.495C29.898 206.495 29.69 206.416 29.489 206.351L23.288 126.726C23.216 126.123 26.461 121.322 26.397 120.748C28.843 129.4 38.339 205.648 36.201 205.878Z" fill="#111123"/>
<path d="M34.117 97.3723L26.976 88.8163L25.779 87.7993C25.629 87.9753 23.589 90.3933 20.711 94.3363C18.255 97.7063 15.179 102.194 12.143 107.362C2.84701 123.185 -1.50199 137.355 -0.791988 149.488C0.683012 174.704 19.698 200.605 20.506 201.695L21.63 200.858L23.698 199.326L32.215 193.012L33.414 192.132L35.31 190.72L36.598 189.768C36.445 189.555 20.337 167.52 19.209 148.314C18.353 133.677 25.253 118.413 32.681 108.671C33.743 107.288 33.316 98.3153 34.117 97.3723Z" fill="#202038"/>
</g>
<defs>
<clipPath id="clip0_87_138">
<rect width="283" height="141" fill="white"/>
</clipPath>
</defs>
</svg>
