<svg width="479" height="177" viewBox="0 0 479 177" fill="none" xmlns="http://www.w3.org/2000/svg">
<path d="M11.5848 103.678L2.7207 157.307H17.0449L25.909 103.678H11.5848Z" fill="white" fill-opacity="0.196"/>
<path d="M31.6395 103.678L22.7754 157.307H47.8435L56.7076 103.678H31.6395Z" fill="white" fill-opacity="0.402"/>
<path d="M62.1978 103.678L53.3364 157.304H81.4419L79.4436 150.108L58.0331 142.712L76.8858 130.094L77.2524 107.299L94.9916 121.457L102.621 119.098L105.173 103.676H62.1978V103.678Z" fill="white" fill-opacity="0.6039"/>
<path d="M458.133 101.386C452.069 101.386 446.557 103.052 441.485 106.383C440.052 107.383 439.721 108.604 440.493 110.048L442.918 114.712C443.8 116.267 445.013 116.489 446.446 115.378C449.754 113.046 453.061 111.825 456.479 111.825C462.763 111.825 465.961 114.712 465.961 120.598C465.961 121.597 465.85 123.041 465.52 124.818H454.825C440.162 124.818 432.665 131.259 432.665 143.252C432.665 153.469 439.39 159.243 451.408 159.243C465.189 159.243 473.237 152.358 475.332 138.588L477.757 123.374C477.978 121.819 478.088 120.265 478.088 118.821C478.088 107.605 470.922 101.386 458.133 101.386ZM452.29 148.804C447.328 148.804 444.793 146.695 444.793 142.364C444.793 136.922 448.541 133.813 455.487 133.813H464.086L463.535 137.144C462.322 144.918 458.574 148.804 452.29 148.804ZM432.734 113.157C434.277 113.157 435.16 112.38 435.38 110.825L436.152 105.495C436.483 103.607 435.711 102.719 433.836 102.719H420.717L422.591 91.0584C422.922 89.1706 422.15 88.2822 420.276 88.2822H413.33C411.787 88.2822 410.905 89.0595 410.684 90.6142L408.7 102.719H403.959C402.415 102.719 401.533 103.496 401.313 105.051L400.431 110.381C400.1 112.269 400.872 113.157 402.746 113.157H407.046L402.856 140.032C402.636 141.586 402.526 143.03 402.526 144.362C402.526 154.024 408.7 159.243 419.725 159.243C423.142 159.243 426.009 158.688 428.544 157.689C429.867 157.133 430.309 156.023 429.978 154.357L428.875 149.582C428.545 147.916 427.442 147.472 425.678 148.027C424.245 148.582 422.922 148.804 421.488 148.804C416.968 148.804 414.653 146.695 414.653 142.586C414.653 141.808 414.653 141.142 414.763 140.698L419.063 113.157H432.734ZM376.843 101.386C363.723 101.386 356.006 108.271 353.801 122.041L351.485 136.811C351.155 138.477 351.044 140.143 351.044 141.697C351.044 153.135 358.541 159.243 372.212 159.243C378.386 159.243 383.899 157.244 388.86 153.358C390.073 152.358 390.183 151.248 389.411 149.804L386.655 145.362C385.663 143.918 384.45 143.807 383.017 144.918C380.04 147.472 376.733 148.804 373.094 148.804C366.369 148.804 363.282 146.25 363.282 140.143C363.282 138.921 363.392 137.699 363.613 136.367L363.944 134.146H391.727C393.27 134.146 394.152 133.369 394.373 131.814L395.806 122.93C396.026 121.375 396.137 119.931 396.137 118.488C396.137 107.494 389.191 101.386 376.843 101.386ZM376.622 111.825C381.914 111.825 384.56 114.49 384.56 119.709C384.56 120.82 384.45 122.041 384.23 123.374L384.009 125.04H365.267L365.487 123.485C366.81 115.489 370.338 111.825 376.622 111.825ZM338.426 157.911C339.97 157.911 340.852 157.133 341.072 155.579L351.609 91.1417C351.94 89.2539 351.168 88.3655 349.294 88.3655H342.348C340.805 88.3655 339.923 89.1428 339.702 90.6975L329.165 155.134C328.834 157.022 329.606 157.911 331.481 157.911H338.426ZM307.192 101.386C293.632 101.386 285.804 108.271 283.709 122.041L275.771 172.902C275.44 174.79 276.212 175.679 278.086 175.679H285.032C286.576 175.679 287.458 174.901 287.678 173.347L290.765 154.357H290.986C293.301 157.577 297.049 159.243 302.231 159.243C314.579 159.243 321.856 152.358 323.95 138.588L326.486 122.93C326.707 121.375 326.817 119.931 326.817 118.488C326.817 107.494 319.651 101.386 307.192 101.386ZM312.154 137.144C310.941 144.918 307.303 148.804 301.129 148.804C295.726 148.804 293.08 146.028 293.08 140.587C293.08 139.587 293.191 138.477 293.411 137.255L295.506 123.485C296.719 115.712 300.357 111.825 306.641 111.825C312.043 111.825 314.689 114.49 314.689 119.931C314.689 120.931 314.579 122.152 314.359 123.374L312.154 137.144ZM257.247 101.386C250.521 101.386 245.34 103.496 241.701 107.827H241.481C238.504 103.496 233.543 101.386 226.597 101.386C214.249 101.386 206.973 108.16 204.878 121.708L199.696 155.134C199.365 157.022 200.137 157.911 202.011 157.911H208.957C210.501 157.911 211.383 157.133 211.603 155.579L216.785 122.819C217.998 115.489 221.305 111.825 226.818 111.825C231.779 111.825 234.204 114.379 234.204 119.376C234.204 120.487 234.094 121.597 233.874 122.819L228.802 155.134C228.471 157.022 229.243 157.911 231.117 157.911H238.063C239.607 157.911 240.489 157.133 240.709 155.579L245.891 122.819C247.104 115.489 250.411 111.825 255.923 111.825C260.885 111.825 263.31 114.379 263.31 119.376C263.31 120.376 263.2 121.597 262.979 122.819L257.908 155.134C257.577 157.022 258.349 157.911 260.223 157.911H267.169C268.712 157.911 269.594 157.133 269.815 155.579L274.997 122.597C275.327 121.153 275.438 119.487 275.438 117.822C275.438 107.272 268.823 101.386 257.247 101.386ZM177.583 101.386C164.132 101.386 156.304 108.271 154.099 122.041L151.674 137.699C151.343 139.365 151.233 140.92 151.233 142.253C151.233 153.024 158.289 159.243 170.968 159.243C184.418 159.243 192.246 152.358 194.451 138.588L196.876 122.93C197.097 121.375 197.207 119.931 197.207 118.488C197.207 107.494 190.041 101.386 177.583 101.386ZM171.409 148.804C166.117 148.804 163.471 146.139 163.471 140.698C163.471 139.698 163.581 138.477 163.801 137.255L165.896 123.485C167.109 115.712 170.747 111.825 177.031 111.825C182.434 111.825 185.08 114.49 185.08 119.931C185.08 120.931 184.969 122.152 184.749 123.374L182.654 137.144C181.441 144.918 177.693 148.804 171.409 148.804ZM143.582 146.25C142.7 144.807 141.487 144.696 140.054 145.695C137.408 147.805 134.762 148.804 132.116 148.804C126.052 148.804 123.075 145.917 123.075 140.032C123.075 138.921 123.185 137.699 123.406 136.367L125.28 124.262C126.713 115.934 130.682 111.825 137.408 111.825C140.274 111.825 142.7 112.602 144.574 114.046C146.007 115.045 147.11 115.045 148.102 113.824L151.74 109.493C152.843 108.049 152.843 106.939 151.63 105.939C147.992 102.941 143.141 101.386 137.077 101.386C123.626 101.386 115.799 108.493 113.483 122.819L111.278 136.811C110.948 139.032 110.837 140.698 110.837 141.697C110.837 152.913 118.334 159.243 130.793 159.243C136.415 159.243 141.377 157.577 145.676 154.135C146.889 153.135 146.999 152.025 146.228 150.581L143.582 146.25Z" fill="#FB9B6F"/>
<path d="M401.106 23.259C395.042 23.259 389.53 24.9248 384.458 28.2563C383.025 29.2557 382.694 30.4773 383.466 31.9209L385.891 36.585C386.773 38.1397 387.986 38.3618 389.419 37.2513C392.727 34.9193 396.034 33.6977 399.452 33.6977C405.736 33.6977 408.934 36.585 408.934 42.4707C408.934 43.4701 408.823 44.9138 408.493 46.6906H397.798C383.135 46.6906 375.638 53.1315 375.638 65.1249C375.638 75.3415 382.363 81.1161 394.381 81.1161C408.162 81.1161 416.21 74.231 418.305 60.4608L420.73 45.2469C420.951 43.6922 421.061 42.1375 421.061 40.6939C421.061 29.4778 413.895 23.259 401.106 23.259ZM395.263 70.6774C390.301 70.6774 387.766 68.5675 387.766 64.2365C387.766 58.795 391.514 55.6856 398.46 55.6856H407.059L406.508 59.0171C405.295 66.7907 401.547 70.6774 395.263 70.6774ZM341.794 77.0073C341.463 78.8951 342.235 79.7835 344.109 79.7835H351.055C352.599 79.7835 353.481 79.0062 353.701 77.4515L358.993 43.8033C360.096 37.0292 363.403 33.6977 368.916 33.6977C371.231 33.6977 373.326 34.253 375.2 35.4745C376.633 36.3629 377.846 36.1408 378.728 34.8082L381.594 30.1441C382.476 28.7005 382.256 27.4789 380.933 26.5905C377.515 24.3695 373.326 23.259 368.254 23.259C356.237 23.259 349.181 30.0331 346.976 43.6922L341.794 77.0073ZM341.152 27.3679C341.483 25.48 340.711 24.5916 338.837 24.5916H332.222C330.678 24.5916 329.796 25.369 329.576 26.9237L324.394 59.7945C323.181 67.2348 320.094 70.6774 313.92 70.6774C308.849 70.6774 306.313 68.2343 306.313 63.3481C306.313 62.0155 306.423 61.016 306.533 60.2387L311.715 27.3679C312.046 25.48 311.274 24.5916 309.4 24.5916H302.454C300.911 24.5916 300.029 25.369 299.808 26.9237L294.516 60.2387C294.296 61.7934 294.185 63.237 294.185 64.5697C294.185 75.1194 301.131 81.1161 313.148 81.1161C326.158 81.1161 333.765 74.4531 335.86 61.1271L341.152 27.3679ZM292.543 35.0303C294.086 35.0303 294.968 34.253 295.189 32.6983L295.96 27.3679C296.291 25.48 295.519 24.5916 293.645 24.5916H280.525L282.4 12.9313C282.73 11.0435 281.959 10.1551 280.084 10.1551H273.139C271.595 10.1551 270.713 10.9324 270.493 12.4871L268.508 24.5916H263.767C262.224 24.5916 261.342 25.369 261.121 26.9237L260.239 32.2541C259.909 34.1419 260.68 35.0303 262.555 35.0303H266.854L262.665 61.9045C262.445 63.4592 262.334 64.9028 262.334 66.2354C262.334 75.8968 268.508 81.1161 279.533 81.1161C282.951 81.1161 285.817 80.5609 288.353 79.5614C289.676 79.0062 290.117 77.8957 289.786 76.2299L288.684 71.4548C288.353 69.789 287.251 69.3448 285.487 69.9001C284.053 70.4553 282.73 70.6774 281.297 70.6774C276.777 70.6774 274.462 68.5675 274.462 64.4586C274.462 63.6812 274.462 63.0149 274.572 62.5707L278.872 35.0303H292.543ZM235.927 23.259C229.863 23.259 224.35 24.9248 219.279 28.2563C217.846 29.2557 217.515 30.4773 218.287 31.9209L220.712 36.585C221.594 38.1397 222.807 38.3618 224.24 37.2513C227.548 34.9193 230.855 33.6977 234.273 33.6977C240.557 33.6977 243.754 36.585 243.754 42.4707C243.754 43.4701 243.644 44.9138 243.313 46.6906H232.619C217.956 46.6906 210.459 53.1315 210.459 65.1249C210.459 75.3415 217.184 81.1161 229.201 81.1161C242.983 81.1161 251.031 74.231 253.126 60.4608L255.551 45.2469C255.772 43.6922 255.882 42.1375 255.882 40.6939C255.882 29.4778 248.716 23.259 235.927 23.259ZM230.083 70.6774C225.122 70.6774 222.586 68.5675 222.586 64.2365C222.586 58.795 226.335 55.6856 233.281 55.6856H241.88L241.329 59.0171C240.116 66.7907 236.368 70.6774 230.083 70.6774ZM191.532 77.0073C191.201 78.8951 191.973 79.7835 193.847 79.7835H200.793C202.336 79.7835 203.218 79.0062 203.439 77.4515L208.62 44.3585C208.951 42.2486 209.061 40.8049 209.061 39.8055C209.061 29.1447 202.116 23.259 189.768 23.259C176.538 23.259 168.82 30.0331 166.726 43.5812L161.544 77.0073C161.213 78.8951 161.985 79.7835 163.859 79.7835H170.805C172.348 79.7835 173.23 79.0062 173.451 77.4515L178.522 45.0248C179.735 37.4734 183.263 33.6977 189.217 33.6977C194.288 33.6977 196.824 36.2519 196.824 41.4712C196.824 42.4707 196.714 43.6922 196.493 45.0248L191.532 77.0073ZM157.357 15.3745C161.657 15.3745 164.964 12.154 164.964 7.71199C164.964 3.71419 162.318 1.04898 158.239 1.04898C153.939 1.04898 150.742 4.26944 150.742 8.82249C150.742 12.7092 153.388 15.3745 157.357 15.3745ZM150.191 79.7835C151.734 79.7835 152.616 79.0062 152.837 77.4515L160.775 27.3679C161.106 25.48 160.334 24.5916 158.46 24.5916H151.514C149.97 24.5916 149.088 25.369 148.868 26.9237L140.93 77.0073C140.599 78.8951 141.371 79.7835 143.245 79.7835H150.191ZM117.827 81.1161C131.388 81.1161 139.987 73.5647 139.987 61.5713C139.987 52.6873 135.687 48.5784 124.221 46.4685C117.496 45.2469 115.291 43.8033 115.291 40.8049C115.291 36.0298 118.819 33.5867 125.875 33.5867C129.293 33.5867 132.27 34.364 134.916 36.0298C136.349 37.0292 137.451 36.8071 138.444 35.5856L141.861 31.1436C142.964 29.6999 142.854 28.4784 141.531 27.4789C137.451 24.7027 132.27 23.259 125.875 23.259C112.094 23.259 103.164 30.8104 103.164 42.6928C103.164 51.1326 107.353 55.1304 118.488 57.2403C125.544 58.5729 127.86 60.2387 127.86 63.4592C127.86 68.3454 124.442 70.7885 117.717 70.7885C112.866 70.7885 108.897 69.4559 105.81 66.7906C104.487 65.6802 103.274 65.7912 102.282 67.0128L98.5332 71.5658C97.4307 72.8984 97.4307 74.12 98.6435 75.1194C103.274 79.1172 109.668 81.1161 117.827 81.1161ZM76.5328 81.1161C90.0936 81.1161 98.6931 73.5647 98.6931 61.5713C98.6931 52.6873 94.3933 48.5784 82.9273 46.4685C76.2021 45.2469 73.9971 43.8033 73.9971 40.8049C73.9971 36.0298 77.5251 33.5867 84.5811 33.5867C87.9988 33.5867 90.9756 34.364 93.6216 36.0298C95.0548 37.0292 96.1573 36.8071 97.1496 35.5856L100.567 31.1436C101.67 29.6999 101.56 28.4784 100.237 27.4789C96.1573 24.7027 90.9756 23.259 84.5811 23.259C70.7998 23.259 61.8696 30.8104 61.8696 42.6928C61.8696 51.1326 66.0591 55.1304 77.1943 57.2403C84.2503 58.5729 86.5656 60.2387 86.5656 63.4592C86.5656 68.3454 83.1478 70.7885 76.4226 70.7885C71.5716 70.7885 67.6026 69.4559 64.5156 66.7906C63.1926 65.6802 61.9799 65.7912 60.9876 67.0128L57.2391 71.5658C56.1366 72.8984 56.1366 74.12 57.3494 75.1194C61.9799 79.1172 68.3743 81.1161 76.5328 81.1161ZM35.914 23.259C29.8503 23.259 24.3378 24.9248 19.2663 28.2563C17.833 29.2557 17.5023 30.4773 18.274 31.9209L20.6995 36.585C21.5815 38.1397 22.7943 38.3618 24.2275 37.2513C27.535 34.9193 30.8425 33.6977 34.2603 33.6977C40.5445 33.6977 43.7418 36.585 43.7418 42.4707C43.7418 43.4701 43.6315 44.9138 43.3008 46.6906H32.6065C17.9433 46.6906 10.4463 53.1315 10.4463 65.1249C10.4463 75.3415 17.1715 81.1161 29.1888 81.1161C42.97 81.1161 51.0182 74.231 53.113 60.4608L55.5385 45.2469C55.759 43.6922 55.8692 42.1375 55.8692 40.6939C55.8692 29.4778 48.703 23.259 35.914 23.259ZM30.0708 70.6774C25.1095 70.6774 22.5738 68.5675 22.5738 64.2365C22.5738 58.795 26.3223 55.6856 33.268 55.6856H41.8675L41.3163 59.0171C40.1035 66.7907 36.355 70.6774 30.0708 70.6774Z" fill="white"/>
</svg>
