<svg width="45" height="45" viewBox="0 0 45 45" fill="none" xmlns="http://www.w3.org/2000/svg">
<rect x="8" y="15" width="29" height="16" fill="#E8DFF5"/>
<path d="M5.625 11.25H39.375V33.75H5.625V11.25ZM22.5 16.875C23.9918 16.875 25.4226 17.4676 26.4775 18.5225C27.5324 19.5774 28.125 21.0082 28.125 22.5C28.125 23.9918 27.5324 25.4226 26.4775 26.4775C25.4226 27.5324 23.9918 28.125 22.5 28.125C21.0082 28.125 19.5774 27.5324 18.5225 26.4775C17.4676 25.4226 16.875 23.9918 16.875 22.5C16.875 21.0082 17.4676 19.5774 18.5225 18.5225C19.5774 17.4676 21.0082 16.875 22.5 16.875ZM13.125 15C13.125 15.9946 12.7299 16.9484 12.0267 17.6516C11.3234 18.3549 10.3696 18.75 9.375 18.75V26.25C10.3696 26.25 11.3234 26.6451 12.0267 27.3484C12.7299 28.0516 13.125 29.0054 13.125 30H31.875C31.875 29.0054 32.2701 28.0516 32.9734 27.3484C33.6766 26.6451 34.6304 26.25 35.625 26.25V18.75C34.6304 18.75 33.6766 18.3549 32.9734 17.6516C32.2701 16.9484 31.875 15.9946 31.875 15H13.125Z" fill="#503279"/>
</svg>
