<svg width="40" height="40" viewBox="0 0 40 40" fill="none" xmlns="http://www.w3.org/2000/svg">
<rect width="40" height="40" rx="5" fill="#37B152"/>
<path d="M19.9864 13.967C16.1796 13.967 12.3728 13.9668 8.56595 13.9671C8.15741 13.9671 8.15661 13.968 8.15661 14.3813C8.15638 19.5785 8.1565 24.7758 8.15661 29.973C8.15661 30.1262 8.15388 30.2786 8.20105 30.4287C8.27571 30.6665 8.42708 30.8017 8.6796 30.812C8.79449 30.8168 8.90961 30.8171 9.02473 30.8171C11.959 30.8173 14.8931 30.8173 17.8274 30.8171C18.0097 30.8171 18.1927 30.8116 18.3697 30.8651C18.6318 30.9443 18.7719 31.1291 18.7701 31.3966C18.7684 31.6516 18.6303 31.8299 18.3838 31.9107C18.2366 31.9589 18.0826 31.9634 17.9285 31.9634C14.9368 31.9629 11.945 31.9634 8.95325 31.9626C8.30582 31.9624 7.74579 31.7723 7.356 31.2166C7.19178 30.9825 7.09678 30.7264 7.09132 30.4394C7.08882 30.3052 7.08735 30.171 7.08735 30.0367C7.08712 23.3341 7.08712 16.6313 7.08723 9.92866C7.08723 8.65529 7.71863 8.0248 8.99473 8.0248C16.3495 8.02446 23.7042 8.02548 31.0589 8.02344C31.772 8.02321 32.3512 8.26061 32.7263 8.89746C32.8569 9.11907 32.9051 9.36033 32.9054 9.61376C32.9063 10.2371 32.9073 10.8603 32.9073 11.4836C32.9074 17.7164 32.9034 23.9492 32.9128 30.182C32.9138 30.8866 32.648 31.4022 32.0412 31.7469C31.7489 31.913 31.4244 31.96 31.0975 31.9605C28.2783 31.9646 25.4592 31.9631 22.64 31.9621C22.5541 31.9621 22.467 31.9567 22.3826 31.9411C22.0577 31.8807 21.8622 31.6669 21.8652 31.3833C21.8683 31.0992 22.0681 30.8859 22.3922 30.8389C22.5336 30.8185 22.6788 30.8185 22.8223 30.8185C25.5648 30.8174 28.3072 30.8179 31.0496 30.8174C31.67 30.8172 31.8374 30.6543 31.8375 30.0375C31.8386 24.802 31.8359 19.5664 31.8442 14.3308C31.8447 14.0329 31.7478 13.9613 31.4642 13.9618C27.6383 13.9696 23.8123 13.967 19.9864 13.967ZM20.0051 12.8597C23.82 12.8597 27.6349 12.86 31.4498 12.8595C31.8351 12.8595 31.8377 12.8566 31.8381 12.4789C31.839 11.6355 31.8402 10.7919 31.8376 9.94843C31.8358 9.33363 31.6392 9.13577 31.0317 9.13577C23.6703 9.13521 16.309 9.13521 8.94768 9.13589C8.3589 9.13589 8.15957 9.33738 8.15741 9.93525C8.15445 10.7692 8.15627 11.6031 8.15661 12.437C8.15684 12.8589 8.15741 12.8597 8.58936 12.8597C12.3946 12.8598 16.1998 12.8597 20.0051 12.8597Z" fill="white"/>
<path d="M10.5604 19.7484C10.5604 18.81 10.5585 17.8716 10.561 16.9332C10.5628 16.2475 10.8228 15.9833 11.4978 15.9798C12.0519 15.9769 12.6064 15.9632 13.1598 15.9838C14.0507 16.0169 14.7663 16.3963 15.169 17.2057C15.5824 18.0368 15.4782 18.8534 14.9078 19.5917C14.8037 19.7265 14.8414 19.7964 14.9246 19.9094C15.7805 21.0718 15.4802 22.4993 14.2413 23.2261C13.8422 23.4603 13.4034 23.4892 12.9647 23.5071C12.4794 23.5267 11.9925 23.5165 11.5065 23.5107C10.8193 23.5025 10.5631 23.245 10.5612 22.5637C10.5585 21.6253 10.5604 20.6869 10.5604 19.7484ZM11.8692 18.1732C11.8692 18.3877 11.8726 18.6022 11.8682 18.8166C11.8646 18.9947 11.9316 19.0933 12.1233 19.0908C12.5182 19.0858 12.9144 19.1049 13.3079 19.0802C13.7608 19.0518 14.1272 18.6337 14.1264 18.1896C14.1255 17.7525 13.7468 17.3339 13.3043 17.2948C13.125 17.2789 12.9434 17.2873 12.7628 17.2872C11.8679 17.2864 11.8679 17.2867 11.8692 18.1732ZM11.8684 21.2505C11.8684 21.4422 11.8774 21.6344 11.8662 21.8253C11.8516 22.0726 11.9562 22.1729 12.2031 22.1652C12.5522 22.1543 12.9022 22.1698 13.2515 22.1593C13.7399 22.1445 14.1062 21.7758 14.1208 21.3004C14.1348 20.8462 13.7565 20.442 13.2754 20.4076C13.0959 20.3947 12.9149 20.4017 12.7345 20.4016C11.8679 20.4016 11.8679 20.4018 11.8684 21.2505Z" fill="white"/>
<path d="M19.9981 29.1067C17.6399 29.1067 15.2816 29.1067 12.9234 29.1067C12.8563 29.1067 12.7892 29.1071 12.7221 29.1063C12.2858 29.1016 12.0348 28.92 12.0145 28.5948C11.9942 28.2713 12.2708 28.0273 12.6919 27.9999C12.7778 27.9943 12.8644 27.9965 12.9507 27.9965C17.648 27.9964 22.3453 27.9964 27.0426 27.9963C27.2249 27.9963 27.4077 27.9907 27.5835 28.0508C27.8327 28.1359 28.0063 28.3893 27.9766 28.6219C27.9441 28.877 27.7471 29.0684 27.4751 29.0978C27.3612 29.1101 27.2453 29.1063 27.1303 29.1063C24.7529 29.1068 22.3755 29.1067 19.9981 29.1067Z" fill="white"/>
<path d="M29.4328 22.8235C29.4054 23.297 29.4878 23.887 29.3879 24.4707C29.2043 25.544 28.2571 26.363 27.216 26.3556C26.1175 26.3478 25.1849 25.522 25.028 24.4105C25.0094 24.2786 25.0045 24.1354 25.0355 24.0076C25.1106 23.699 25.3226 23.5203 25.6411 23.5094C25.9476 23.4989 26.1563 23.659 26.2501 23.9513C26.2914 24.0797 26.3044 24.217 26.3397 24.3477C26.4513 24.7614 26.8296 25.0575 27.232 25.0513C27.6284 25.0453 27.9989 24.728 28.0918 24.3113C28.109 24.2346 28.1175 24.1552 28.1222 24.0765C28.1637 23.3687 28.1631 23.3687 27.4777 23.4717C26.404 23.6332 25.3201 22.8583 25.0639 21.746C24.8187 20.6812 25.4407 19.5539 26.4555 19.2238C27.9792 18.7284 29.4012 19.7444 29.4315 21.3543C29.44 21.8063 29.4328 22.2586 29.4328 22.8235ZM27.1988 22.1611C27.7143 22.1661 28.1087 21.7899 28.1153 21.287C28.1216 20.8022 27.7356 20.4062 27.246 20.3952C26.723 20.3833 26.3275 20.7512 26.3189 21.2574C26.3099 21.7734 26.6826 22.1561 27.1988 22.1611Z" fill="white"/>
<path d="M21.9194 23.4805C20.7015 23.4543 19.7078 22.4505 19.7229 21.2614C19.7386 20.025 20.759 19.0591 22.0207 19.0865C23.1963 19.112 24.1704 20.1405 24.1446 21.3296C24.1192 22.5019 23.0811 23.5055 21.9194 23.4805ZM21.9474 22.1609C22.467 22.1573 22.8429 21.7769 22.8361 21.262C22.8294 20.7558 22.433 20.3845 21.9102 20.3948C21.409 20.4045 21.0322 20.7866 21.0354 21.282C21.0386 21.7879 21.4294 22.1645 21.9474 22.1609Z" fill="white"/>
<path d="M17.7084 19.0911C17.7084 19.8262 17.7052 20.5614 17.7094 21.2964C17.7126 21.8317 17.9203 22.08 18.4405 22.1905C18.8982 22.2876 19.1087 22.539 19.0578 22.9277C19.0079 23.3085 18.7171 23.5064 18.2607 23.4701C17.2036 23.3859 16.4277 22.5418 16.4054 21.366C16.3764 19.8398 16.3933 18.3125 16.4008 16.7857C16.4029 16.3619 16.6463 16.0576 16.9747 16.0102C17.3827 15.9513 17.6957 16.2539 17.7032 16.75C17.7149 17.5302 17.7062 18.3107 17.7062 19.0911C17.707 19.0911 17.7077 19.0911 17.7084 19.0911Z" fill="white"/>
<path d="M20.8757 31.4276C20.877 31.7285 20.6234 31.9844 20.3315 31.9768C20.0486 31.9694 19.8123 31.7227 19.8104 31.4328C19.8085 31.1302 20.0587 30.8786 20.3548 30.8854C20.6403 30.8921 20.8746 31.136 20.8757 31.4276Z" fill="white"/>
<path d="M24.6298 11.5505C23.049 11.5503 21.4684 11.5519 19.8876 11.5492C19.4945 11.5485 19.2787 11.3852 19.24 11.08C19.2026 10.7849 19.3547 10.549 19.6485 10.4781C19.7768 10.4471 19.914 10.4435 20.0472 10.4434C23.1032 10.4416 26.1593 10.4421 29.2154 10.4419C29.3784 10.4419 29.5412 10.4377 29.6943 10.5107C29.9308 10.6234 30.0334 10.8125 30.0108 11.069C29.9885 11.3215 29.8376 11.4701 29.5993 11.5226C29.4794 11.549 29.3521 11.5496 29.2283 11.5497C27.6955 11.5513 26.1626 11.5507 24.6298 11.5505Z" fill="white"/>
<path d="M13.5112 11.0028C13.5108 11.3233 13.2896 11.5457 12.9738 11.5429C12.6852 11.5404 12.4377 11.3018 12.4329 11.0217C12.4282 10.7374 12.6879 10.4647 12.971 10.4567C13.2651 10.4487 13.5115 10.6977 13.5112 11.0028Z" fill="white"/>
<path d="M16.0019 11.0046C16.0027 11.3094 15.7877 11.5356 15.4905 11.5424C15.1904 11.5493 14.9358 11.3092 14.9296 11.0129C14.9234 10.727 15.1814 10.4591 15.4689 10.4528C15.7672 10.4462 16.0011 10.6881 16.0019 11.0046Z" fill="white"/>
<path d="M10.4842 10.4561C10.7648 10.4506 11.0195 10.6968 11.0281 10.982C11.0373 11.2853 10.798 11.5355 10.4925 11.5419C10.1863 11.5484 9.94644 11.3072 9.94838 10.9947C9.95019 10.7159 10.203 10.4617 10.4842 10.4561Z" fill="white"/>
</svg>
