<svg width="28" height="33" viewBox="0 0 28 33" fill="none" xmlns="http://www.w3.org/2000/svg">
<path d="M22.9598 0.660034H5.0398C3.8078 0.660034 2.7998 1.84803 2.7998 3.30003V29.7C2.7998 31.152 3.8078 32.34 5.0398 32.34H22.9598C24.1918 32.34 25.1998 31.152 25.1998 29.7V3.30003C25.1998 1.84803 24.1918 0.660034 22.9598 0.660034ZM9.5198 27.06C9.5198 27.786 9.0158 28.38 8.3998 28.38H6.1598C5.5438 28.38 5.0398 27.786 5.0398 27.06V26.4C5.0398 25.674 5.5438 25.08 6.1598 25.08H8.3998C9.0158 25.08 9.5198 25.674 9.5198 26.4V27.06ZM9.5198 21.78C9.5198 22.506 9.0158 23.1 8.3998 23.1H6.1598C5.5438 23.1 5.0398 22.506 5.0398 21.78V21.12C5.0398 20.394 5.5438 19.8 6.1598 19.8H8.3998C9.0158 19.8 9.5198 20.394 9.5198 21.12V21.78ZM9.5198 16.5C9.5198 17.226 9.0158 17.82 8.3998 17.82H6.1598C5.5438 17.82 5.0398 17.226 5.0398 16.5V15.84C5.0398 15.114 5.5438 14.52 6.1598 14.52H8.3998C9.0158 14.52 9.5198 15.114 9.5198 15.84V16.5ZM16.2398 27.06C16.2398 27.786 15.7358 28.38 15.1198 28.38H12.8798C12.2638 28.38 11.7598 27.786 11.7598 27.06V26.4C11.7598 25.674 12.2638 25.08 12.8798 25.08H15.1198C15.7358 25.08 16.2398 25.674 16.2398 26.4V27.06ZM16.2398 21.78C16.2398 22.506 15.7358 23.1 15.1198 23.1H12.8798C12.2638 23.1 11.7598 22.506 11.7598 21.78V21.12C11.7598 20.394 12.2638 19.8 12.8798 19.8H15.1198C15.7358 19.8 16.2398 20.394 16.2398 21.12V21.78ZM16.2398 16.5C16.2398 17.226 15.7358 17.82 15.1198 17.82H12.8798C12.2638 17.82 11.7598 17.226 11.7598 16.5V15.84C11.7598 15.114 12.2638 14.52 12.8798 14.52H15.1198C15.7358 14.52 16.2398 15.114 16.2398 15.84V16.5ZM22.9598 27.06C22.9598 27.786 22.4558 28.38 21.8398 28.38H19.5998C18.9838 28.38 18.4798 27.786 18.4798 27.06V26.4C18.4798 25.674 18.9838 25.08 19.5998 25.08H21.8398C22.4558 25.08 22.9598 25.674 22.9598 26.4V27.06ZM22.9598 21.78C22.9598 22.506 22.4558 23.1 21.8398 23.1H19.5998C18.9838 23.1 18.4798 22.506 18.4798 21.78V21.12C18.4798 20.394 18.9838 19.8 19.5998 19.8H21.8398C22.4558 19.8 22.9598 20.394 22.9598 21.12V21.78ZM22.9598 16.5C22.9598 17.226 22.4558 17.82 21.8398 17.82H19.5998C18.9838 17.82 18.4798 17.226 18.4798 16.5V15.84C18.4798 15.114 18.9838 14.52 19.5998 14.52H21.8398C22.4558 14.52 22.9598 15.114 22.9598 15.84V16.5ZM22.9598 10.56C22.9598 11.286 22.4558 11.88 21.8398 11.88H6.1598C5.5438 11.88 5.0398 11.286 5.0398 10.56V5.28003C5.0398 4.55403 5.5438 3.96003 6.1598 3.96003H21.8398C22.4558 3.96003 22.9598 4.55403 22.9598 5.28003V10.56Z" fill="#503279"/>
</svg>
