<svg width="60" height="71" viewBox="0 0 60 71" fill="none" xmlns="http://www.w3.org/2000/svg">
<g clip-path="url(#clip0_37_444)">
<path d="M31.782 49.4568C31.782 50.1705 31.8311 50.8723 31.9252 51.5587H20.078C19.5243 51.5587 19.0755 51.0881 19.0755 50.5078C19.0755 49.9274 19.5245 49.457 20.078 49.457H31.782V49.4568ZM19.0755 60.6227C19.0755 61.2032 19.5245 61.6736 20.078 61.6736H38.0663C37.1902 61.0686 36.3831 60.3625 35.6598 59.5717H20.0783C19.5243 59.5719 19.0755 60.0423 19.0755 60.6227ZM38.5546 19.1119H20.078C19.5243 19.1119 19.0755 19.5825 19.0755 20.1627C19.0755 20.7432 19.5245 21.2136 20.078 21.2136H38.5546C39.1083 21.2136 39.5571 20.743 39.5571 20.1627C39.5571 19.5825 39.1081 19.1119 38.5546 19.1119ZM35.6596 39.3419H20.078C19.5243 39.3419 19.0755 39.8125 19.0755 40.3927C19.0755 40.973 19.5245 41.4436 20.078 41.4436H34.062C34.5329 40.6919 35.0682 39.9885 35.6596 39.3419ZM42.5707 11.3516C42.6576 11.3516 42.7424 11.3608 42.8244 11.3785C42.8653 11.3873 42.9056 11.3983 42.945 11.411C42.9648 11.4175 42.9843 11.4244 43.0036 11.4319C43.4474 11.6025 43.775 12.0279 43.8245 12.5379C43.8265 12.5601 43.8282 12.5825 43.8294 12.6049C43.8304 12.6273 43.8311 12.6499 43.8311 12.6727V34.9724C44.4516 34.8838 45.0849 34.838 45.7287 34.838C46.1707 34.838 46.6079 34.8597 47.0394 34.9019V12.6727C47.0394 12.5553 47.0353 12.4388 47.0273 12.3229C47.0193 12.2071 47.0072 12.0923 46.9909 11.9783C46.8598 11.0476 46.4653 10.185 45.8464 9.48719C45.8086 9.44454 45.77 9.40211 45.7305 9.36076C44.9655 8.55888 43.9722 8.08374 42.9044 8.00168C42.7938 7.99328 42.6826 7.98897 42.5707 7.98897H39.0074H38.1161V11.352H38.9889H42.5707V11.3516ZM39.5571 30.2778C39.5571 29.6974 39.1081 29.227 38.5546 29.227H20.078C19.5243 29.227 19.0755 29.6976 19.0755 30.2778C19.0755 30.8583 19.5245 31.3287 20.078 31.3287H38.5546C39.1081 31.3287 39.5571 30.8583 39.5571 30.2778ZM16.3901 27.0408C15.9502 26.6882 15.321 26.7763 14.9846 27.2375L12.1172 31.1697L9.83552 29.1712C9.41058 28.799 8.77832 28.8582 8.42326 29.3036C8.06819 29.7491 8.1249 30.4118 8.54963 30.784L11.6347 33.4864C11.8159 33.6452 12.0438 33.7309 12.2776 33.7309C12.3146 33.7309 12.3516 33.7287 12.3888 33.7244C12.6607 33.6928 12.9083 33.5459 13.0743 33.3182L16.5777 28.514C16.9141 28.0527 16.83 27.3932 16.3901 27.0408ZM43.8311 63.9414V66C43.8311 66.0228 43.8304 66.0455 43.8294 66.0679C43.8284 66.0903 43.8268 66.1127 43.8245 66.1348C43.775 66.6449 43.4472 67.0703 43.0036 67.2409C42.9843 67.2482 42.9648 67.2553 42.945 67.2617C42.9056 67.2747 42.8653 67.2854 42.8244 67.2943C42.7424 67.3119 42.6576 67.3212 42.5707 67.3212H38.9889H9.44243H6.62038C6.53346 67.3212 6.4486 67.3119 6.36661 67.2943C6.32572 67.2854 6.28545 67.2744 6.24599 67.2617C6.22627 67.2553 6.20675 67.2484 6.18743 67.2409C5.7436 67.0703 5.41606 66.6451 5.36654 66.1348C5.36449 66.1127 5.36284 66.0903 5.36161 66.0679C5.36058 66.0455 5.35997 66.0226 5.35997 66V12.6727C5.35997 12.6499 5.36058 12.6273 5.36161 12.6049C5.36264 12.5825 5.36428 12.5601 5.36654 12.5379C5.41606 12.0279 5.7438 11.6025 6.18743 11.4319C6.20675 11.4246 6.22627 11.4175 6.24599 11.411C6.28545 11.3981 6.32572 11.3873 6.36661 11.3785C6.4486 11.3608 6.53346 11.3516 6.62038 11.3516H9.44243H11.0748V7.98854H9.43709H6.62038C6.50839 7.98854 6.39723 7.99285 6.28668 8.00125C5.51326 8.0607 4.77908 8.32626 4.1425 8.77276C4.08189 8.81519 4.02209 8.85934 3.96332 8.90522C3.78682 9.04263 3.61873 9.19448 3.46052 9.36033C2.77483 10.0791 2.33921 10.9906 2.2001 11.9781C2.18408 12.092 2.17195 12.2071 2.16373 12.3227C2.15572 12.4386 2.15161 12.5551 2.15161 12.6725V65.9996C2.15161 66.117 2.15572 66.2335 2.16373 66.3494C2.17175 66.4653 2.18387 66.5801 2.2001 66.694C2.33921 67.6815 2.77463 68.5928 3.46052 69.3118C3.61873 69.4776 3.78682 69.6295 3.96332 69.7669C3.99271 69.7897 4.0223 69.8123 4.0523 69.8343C4.70942 70.32 5.47668 70.6086 6.28689 70.6708C6.39743 70.6792 6.5086 70.6836 6.62058 70.6836H9.4373H39.0076H42.5709C42.6828 70.6836 42.794 70.6792 42.9046 70.6708C43.9724 70.5888 44.9659 70.1134 45.7307 69.3118C45.7704 69.2702 45.8088 69.228 45.8466 69.1853C46.4655 68.4875 46.86 67.6247 46.9911 66.6942C47.0072 66.5803 47.0193 66.4653 47.0275 66.3496C47.0355 66.2337 47.0396 66.1172 47.0396 65.9998V64.0116C46.6081 64.0538 46.1709 64.0756 45.7289 64.0756C45.0849 64.0758 44.4516 64.0299 43.8311 63.9414ZM12.2778 11.5107V7.60731C12.2778 6.48796 13.1435 5.58054 14.2114 5.58054H19.4384C19.8483 2.98279 22.0009 1.00146 24.5955 1.00146C27.1901 1.00146 29.3427 2.98279 29.7526 5.58054H34.9796C36.0475 5.58054 36.9132 6.48796 36.9132 7.60731V11.5107C36.9132 12.6301 36.0475 13.5375 34.9796 13.5375H14.2114C13.1435 13.5375 12.2778 12.6301 12.2778 11.5107ZM23.4138 4.79223C23.4138 5.4763 23.9429 6.03091 24.5955 6.03091C25.2481 6.03091 25.7772 5.4763 25.7772 4.79223C25.7772 4.10817 25.2481 3.55356 24.5955 3.55356C23.9429 3.55356 23.4138 4.10817 23.4138 4.79223ZM16.3901 37.1557C15.9502 36.8033 15.321 36.8914 14.9846 37.3524L12.1172 41.2846L9.83552 39.2861C9.41058 38.9139 8.77832 38.9731 8.42326 39.4185C8.06819 39.864 8.1249 40.5267 8.54963 40.8989L11.6347 43.6013C11.8159 43.7601 12.0438 43.8458 12.2776 43.8458C12.3146 43.8458 12.3516 43.8436 12.3888 43.8393C12.6607 43.8074 12.9083 43.6608 13.0743 43.4331L16.5777 38.6289C16.9141 38.1678 16.83 37.5083 16.3901 37.1557ZM8.42326 19.1888C8.06819 19.6342 8.1249 20.2969 8.54963 20.6691L11.6347 23.3715C11.8159 23.5303 12.0438 23.616 12.2776 23.616C12.3146 23.616 12.3516 23.6138 12.3888 23.6095C12.6607 23.5779 12.9083 23.431 13.0743 23.2033L16.5777 18.3992C16.9139 17.938 16.83 17.2785 16.3901 16.9259C15.9502 16.5736 15.321 16.6614 14.9846 17.1226L12.1172 21.0546L9.83552 19.0561C9.41058 18.6841 8.77832 18.7433 8.42326 19.1888ZM16.3901 47.2706C15.9502 46.9182 15.321 47.0063 14.9846 47.4672L12.1172 51.3995L9.83552 49.401C9.41058 49.0288 8.77832 49.088 8.42326 49.5334C8.06819 49.9788 8.1249 50.6416 8.54963 51.0138L11.6347 53.7162C11.8159 53.8749 12.0438 53.9607 12.2776 53.9607C12.3146 53.9607 12.3516 53.9585 12.3888 53.9542C12.6607 53.9223 12.9083 53.7757 13.0743 53.548L16.5777 48.7438C16.9141 48.2827 16.83 47.6232 16.3901 47.2706ZM16.3901 57.3855C15.9502 57.0331 15.321 57.1212 14.9846 57.5821L12.1172 61.5146L9.83552 59.5161C9.41058 59.1439 8.77832 59.2031 8.42326 59.6485C8.06819 60.094 8.1249 60.7567 8.54963 61.1289L11.6347 63.8313C11.8159 63.99 12.0438 64.0758 12.2776 64.0758C12.3146 64.0758 12.3516 64.0736 12.3888 64.0693C12.6607 64.0374 12.9083 63.8908 13.0743 63.6631L16.5777 58.8589C16.9141 58.3976 16.83 57.7381 16.3901 57.3855Z" fill="#00A9A0"/>
<path d="M52.0737 44.2478C51.3484 43.6667 50.3109 43.8118 49.7565 44.5722L45.0286 51.0554L41.2667 47.7603C40.5662 47.1466 39.5236 47.2444 38.9382 47.9789C38.3528 48.7131 38.4461 49.806 39.1468 50.4196L44.2334 54.8753C44.5322 55.137 44.9078 55.2785 45.2933 55.2785C45.3541 55.2785 45.4153 55.275 45.4766 55.2679C45.9247 55.2156 46.333 54.9735 46.6067 54.5981L52.3829 46.6769C52.9375 45.9164 52.799 44.8289 52.0737 44.2478Z" fill="#00A9A0"/>
<path d="M45.6446 62.238C38.9294 62.238 33.4661 56.5114 33.4661 49.4724C33.4661 42.4332 38.9294 36.7065 45.6446 36.7065C52.3601 36.7065 57.8234 42.4332 57.8234 49.4724C57.8234 56.5114 52.3601 62.238 45.6446 62.238ZM45.6446 39.076C40.1758 39.076 35.7263 43.7397 35.7263 49.4726C35.7263 55.2051 40.1756 59.869 45.6446 59.869C51.1137 59.869 55.5631 55.2053 55.5631 49.4726C55.5631 43.7397 51.1137 39.076 45.6446 39.076Z" fill="#00A9A0"/>
</g>
<defs>
<clipPath id="clip0_37_444">
<rect width="60" height="70" fill="white" transform="translate(0 0.7146)"/>
</clipPath>
</defs>
</svg>
