<svg width="100" height="100" viewBox="0 0 100 100" fill="none" xmlns="http://www.w3.org/2000/svg">
<path d="M55.0584 50L80.6932 19.4434C81.1228 18.9355 80.7615 18.1641 80.0975 18.1641H72.3045C71.8455 18.1641 71.4061 18.3691 71.1033 18.7207L49.9607 43.9258L28.8182 18.7207C28.5252 18.3691 28.0857 18.1641 27.617 18.1641H19.824C19.16 18.1641 18.7986 18.9355 19.2283 19.4434L44.8631 50L19.2283 80.5566C19.1321 80.6698 19.0703 80.8083 19.0504 80.9555C19.0305 81.1028 19.0532 81.2526 19.116 81.3873C19.1787 81.522 19.2787 81.6359 19.4042 81.7154C19.5298 81.7949 19.6754 81.8368 19.824 81.8359H27.617C28.076 81.8359 28.5154 81.6309 28.8182 81.2793L49.9607 56.0742L71.1033 81.2793C71.3963 81.6309 71.8357 81.8359 72.3045 81.8359H80.0975C80.7615 81.8359 81.1228 81.0645 80.6932 80.5566L55.0584 50Z" fill="white"/>
</svg>
