<svg width="70" height="70" viewBox="0 0 70 70" fill="none" xmlns="http://www.w3.org/2000/svg">
<g clip-path="url(#clip0_354_134)">
<path d="M66.2034 3.41797H59.2366C58.6646 3.41797 58.2011 3.88153 58.2011 4.45351C58.2011 5.02548 58.6646 5.48904 59.2366 5.48904H66.2034C67.1551 5.48904 67.9289 6.26343 67.9289 7.21458V46.4256C67.9289 47.3773 67.1545 48.1517 66.2034 48.1517H3.79662C2.84492 48.1517 2.07108 47.3773 2.07108 46.4256V7.21458C2.07108 6.26289 2.84546 5.48904 3.79662 5.48904H54.4071C54.9791 5.48904 55.4427 5.02548 55.4427 4.45351C55.4427 3.88153 54.9791 3.41797 54.4071 3.41797H3.79662C1.70311 3.41797 0 5.12108 0 7.21458V46.4256C0 48.5197 1.70311 50.2228 3.79662 50.2228H26.7851V53.4015C26.7851 56.0451 25.3458 58.4788 23.0296 59.753L21.7986 60.4297C21.468 60.6118 21.2624 60.9595 21.2624 61.3371V65.4792C21.2624 66.0512 21.726 66.5147 22.298 66.5147H47.6363C48.2083 66.5147 48.6719 66.0512 48.6719 65.4792V61.3371C48.6719 60.9595 48.4663 60.6118 48.1351 60.4297L46.9047 59.753C44.5879 58.4788 43.1492 56.0451 43.1492 53.4015V50.2228H66.2034C68.2969 50.2228 70 48.5197 70 46.4256V7.21458C70 5.12108 68.2969 3.41797 66.2034 3.41797V3.41797ZM45.9065 61.5672L46.6008 61.9491V64.4437H23.3335V61.9491L24.0278 61.5672C27.0057 59.9293 28.8562 56.8002 28.8562 53.4015V50.2228H41.0781V53.4015C41.0781 56.8002 42.9281 59.9293 45.9065 61.5672Z" fill="white"/>
<path d="M5.72987 37.1837C5.1579 37.1837 4.69434 37.6473 4.69434 38.2193V44.4928C4.69434 45.0648 5.1579 45.5284 5.72987 45.5284H64.2701C64.842 45.5284 65.3056 45.0648 65.3056 44.4928V9.14784C65.3056 8.57587 64.842 8.1123 64.2701 8.1123H5.72987C5.1579 8.1123 4.69434 8.57587 4.69434 9.14784V33.4015C4.69434 33.9735 5.1579 34.4371 5.72987 34.4371C6.30185 34.4371 6.76541 33.9735 6.76541 33.4015V10.1834H63.2345V43.4573H35.6211V39.2463C35.6211 34.7319 32.3948 30.9582 28.1272 30.1075C28.7638 29.0693 29.1317 27.8489 29.1317 26.5442V23.5065C29.1317 19.7382 26.0663 16.6722 22.2979 16.6722C18.5291 16.6722 15.4636 19.7382 15.4636 23.5065V26.5442C15.4636 27.8489 15.8316 29.0693 16.4682 30.1075C12.2005 30.9588 8.97427 34.7324 8.97427 39.2463V43.4573H6.76541V38.2193C6.76541 37.6473 6.30185 37.1837 5.72987 37.1837ZM17.5347 23.5065C17.5347 20.88 19.6714 18.7433 22.2979 18.7433C24.9244 18.7433 27.0612 20.88 27.0612 23.5065V26.5442C27.0612 29.1707 24.9244 31.3075 22.2979 31.3075C19.6714 31.3075 17.5347 29.1707 17.5347 26.5442V23.5065ZM11.0453 39.2463C11.0453 35.2852 14.2401 32.0578 18.1878 32.0007C19.3323 32.8648 20.7561 33.3786 22.2979 33.3786C23.8392 33.3786 25.263 32.8648 26.4075 32.0007C30.3553 32.0578 33.55 35.2852 33.55 39.2463V43.4573H11.0453V39.2463Z" fill="white"/>
<path d="M49.3592 13.7727H38.3139C37.7419 13.7727 37.2783 14.2363 37.2783 14.8082V25.8536C37.2783 26.4256 37.7419 26.8892 38.3139 26.8892H49.3592C49.9312 26.8892 50.3948 26.4256 50.3948 25.8536V14.8082C50.3948 14.2363 49.9312 13.7727 49.3592 13.7727ZM48.3237 24.8181H39.3494V15.8438H48.3237V24.8181Z" fill="white"/>
<path d="M37.416 31.5148C37.416 32.0862 37.8796 32.5498 38.4516 32.5498H59.5762C60.1476 32.5498 60.6112 32.0862 60.6112 31.5148C60.6112 30.9428 60.1476 30.4792 59.5762 30.4792H38.4516C37.8796 30.4792 37.416 30.9428 37.416 31.5148Z" fill="#3CD35A"/>
<path d="M53.6391 26.8892H59.5756C60.1476 26.8892 60.6112 26.4256 60.6112 25.8537C60.6112 25.2817 60.1476 24.8181 59.5756 24.8181H53.6391C53.0671 24.8181 52.6035 25.2817 52.6035 25.8537C52.6035 26.4256 53.0671 26.8892 53.6391 26.8892Z" fill="white"/>
<path d="M53.6391 21.3665H59.5756C60.1476 21.3665 60.6112 20.9029 60.6112 20.3309C60.6112 19.759 60.1476 19.2954 59.5756 19.2954H53.6391C53.0671 19.2954 52.6035 19.759 52.6035 20.3309C52.6035 20.9029 53.0671 21.3665 53.6391 21.3665Z" fill="white"/>
<path d="M53.6391 15.8438H59.5756C60.1476 15.8438 60.6112 15.3802 60.6112 14.8082C60.6112 14.2363 60.1476 13.7727 59.5756 13.7727H53.6391C53.0671 13.7727 52.6035 14.2363 52.6035 14.8082C52.6035 15.3802 53.0671 15.8438 53.6391 15.8438Z" fill="#3CD35A"/>
<path d="M59.5757 36.1396H38.4516C37.8796 36.1396 37.416 36.6032 37.416 37.1752C37.416 37.7472 37.8796 38.2107 38.4516 38.2107H59.5762C60.1476 38.2107 60.6112 37.7472 60.6112 37.1752C60.6112 36.6032 60.1476 36.1396 59.5757 36.1396Z" fill="#3CD35A"/>
</g>
<defs>
<clipPath id="clip0_354_134">
<rect width="70" height="70" fill="white"/>
</clipPath>
</defs>
</svg>
