<svg width="70" height="50" viewBox="0 0 70 50" fill="none" xmlns="http://www.w3.org/2000/svg">
<g clip-path="url(#clip0_354_143)">
<path d="M0.256836 0V50H69.2709V0H0.256836ZM67.9499 48.6235H1.57788V1.37583H67.9499V48.6235V48.6235Z" fill="white"/>
<path d="M7.68494 35.8584H3.6001V46.0392H7.68494V35.8584Z" fill="white"/>
<path d="M14.952 32.5134H10.8672V46.0369H14.952V32.5134Z" fill="white"/>
<path d="M22.2196 39.2764H18.1348V46.0381H22.2196V39.2764Z" fill="white"/>
<path d="M29.4862 23.8516H25.4014V46.0361H29.4862V23.8516Z" fill="#3CD35A"/>
<path d="M36.7538 29.3999H32.6689V46.0388H36.7538V29.3999Z" fill="#3CD35A"/>
<path d="M44.0204 40.4126H39.9355V46.0347H44.0204V40.4126Z" fill="white"/>
<path d="M51.2875 27.4973H47.2026V46.0355H51.2875V27.4973Z" fill="white"/>
<path d="M58.5555 34.9426H54.4707V46.0352H58.5555V34.9426Z" fill="white"/>
<path d="M65.8212 25H61.7363V46.0367H65.8212V25Z" fill="#3CD35A"/>
<path d="M31.8749 17.5702L34.2834 9.33574L37.1571 11.9079L42.6393 7.58592L45.5176 13.6857L51.6261 6.16573L54.3103 11.9202L60.4622 19.735L63.9076 13.771L63.3411 13.4161L60.3787 18.5448L54.8879 11.5837L51.7774 4.91479L45.6643 12.4382L42.8788 6.53358L37.1827 11.0248L33.9466 8.12711L31.288 17.2147L28.5098 20.2707L28.99 20.7436L31.8749 17.5702Z" fill="#3CD35A"/>
<path d="M20.152 14.2865L16.9474 13.385C16.8454 14.2231 16.5224 14.9908 16.0415 15.6221L19.0323 17.1617C19.5724 16.3025 19.9632 15.3321 20.152 14.2865Z" fill="#3CD35A"/>
<path d="M12.6387 20.7791C14.6453 20.7791 16.469 19.9676 17.8321 18.645L15.0413 16.5772C14.3525 17.0563 13.5282 17.3388 12.6387 17.3388C10.2414 17.3388 8.29138 15.3078 8.29138 12.8107C8.29138 12.1173 8.44599 11.4629 8.71441 10.8746L5.89666 9.05176C5.31837 10.1723 4.98877 11.4519 4.98877 12.8107C4.98877 17.205 8.42033 20.7791 12.6387 20.7791Z" fill="white"/>
<path d="M16.8766 11.8132L20.1772 11.5314C19.8417 9.3987 18.6983 7.54857 17.0753 6.34131L15.3477 9.28337C16.1029 9.91396 16.6542 10.7991 16.8766 11.8132Z" fill="white"/>
<path d="M12.6383 8.28498C13.2462 8.28498 13.8245 8.41669 14.3501 8.65214L15.408 5.3941C14.5481 5.044 13.6159 4.84473 12.6383 4.84473C10.0988 4.84473 7.8462 6.14139 6.4541 8.13143L9.18698 10.0873C9.98106 8.99814 11.2264 8.28498 12.6383 8.28498Z" fill="white"/>
</g>
<defs>
<clipPath id="clip0_354_143">
<rect width="70" height="50" fill="white"/>
</clipPath>
</defs>
</svg>
