<svg width="36" height="36" viewBox="0 0 36 36" fill="none" xmlns="http://www.w3.org/2000/svg">
<path d="M30.8601 20.94C31.5181 21.0209 32.1517 21.2389 32.7201 21.58H32.7701C33.3607 18.7883 33.1492 15.8865 32.1601 13.21C32.1231 13.0768 32.0588 12.9527 31.9714 12.8456C31.884 12.7385 31.7753 12.6507 31.6523 12.5877C31.5292 12.5247 31.3944 12.488 31.2564 12.4797C31.1184 12.4714 30.9802 12.4919 30.8505 12.5397C30.7208 12.5876 30.6025 12.6618 30.5029 12.7577C30.4033 12.8536 30.3247 12.9692 30.2721 13.097C30.2194 13.2248 30.1938 13.3622 30.1969 13.5004C30.2 13.6386 30.2318 13.7747 30.2901 13.9C31.1166 16.1512 31.3136 18.5851 30.8601 20.94ZM26.3301 28.58C24.5876 30.0337 22.4949 31.0059 20.2601 31.4C20.1288 31.4111 20.001 31.4481 19.8839 31.5086C19.7669 31.5692 19.6629 31.6522 19.5779 31.753C19.493 31.8537 19.4287 31.9702 19.3887 32.0958C19.3488 32.2214 19.334 32.3537 19.3451 32.485C19.3563 32.6163 19.3932 32.7441 19.4538 32.8612C19.5143 32.9783 19.5974 33.0822 19.6981 33.1672C19.7989 33.2522 19.9154 33.3164 20.041 33.3564C20.1666 33.3963 20.2988 33.4111 20.4301 33.4H20.6101C23.2737 32.9301 25.7631 31.7562 27.8201 30V29.93C27.2319 29.5927 26.7236 29.1322 26.3301 28.58ZM15.6201 31.34C14.1076 31.0561 12.656 30.5113 11.3301 29.73C10.7632 29.3959 10.2187 29.0251 9.70013 28.62C9.31885 29.18 8.82076 29.6508 8.24013 30C8.88948 30.5478 9.5817 31.0427 10.3101 31.48C11.8375 32.3797 13.5087 33.0089 15.2501 33.34H15.4401C15.7053 33.3639 15.9692 33.2814 16.1736 33.1107C16.378 32.9401 16.5063 32.6952 16.5301 32.43C16.554 32.1648 16.4715 31.9009 16.3009 31.6965C16.1302 31.4921 15.8853 31.3639 15.6201 31.34ZM4.56013 21.15C4.76013 21.15 4.96013 21.12 5.16013 21.06C4.68343 18.702 4.87036 16.258 5.70013 14C5.79163 13.7507 5.78035 13.4752 5.66876 13.2343C5.55718 12.9933 5.35443 12.8065 5.10513 12.715C4.85583 12.6235 4.58039 12.6348 4.3394 12.7464C4.09842 12.8579 3.91163 13.0607 3.82013 13.31C2.82962 16.0083 2.63524 18.9344 3.26013 21.74C3.66141 21.4792 4.09965 21.2803 4.56013 21.15Z" fill="#503279"/>
<path d="M31.9002 23C31.5431 22.7727 31.1444 22.6186 30.7273 22.5465C30.3102 22.4744 29.8829 22.4858 29.4702 22.58C28.948 22.7192 28.4675 22.9835 28.0702 23.35L24.2002 21.11C24.8097 19.6042 24.8659 17.9311 24.3588 16.3878C23.8517 14.8445 22.8141 13.5308 21.4302 12.68L21.3202 12.61C20.5726 12.1881 19.7512 11.9132 18.9002 11.8V7.99998C19.6966 7.76063 20.37 7.22335 20.7802 6.49998C21.222 5.75214 21.3511 4.86029 21.1395 4.01787C20.928 3.17545 20.3929 2.4504 19.6502 1.99998C19.2884 1.78831 18.888 1.65098 18.4725 1.59603C18.0569 1.54108 17.6346 1.56962 17.2302 1.67998C16.8133 1.78627 16.4217 1.97453 16.0783 2.23379C15.7349 2.49304 15.4466 2.8181 15.2302 3.18998C14.8009 3.93421 14.6788 4.81652 14.8898 5.64938C15.1008 6.48223 15.6283 7.19995 16.3602 7.64998C16.5897 7.79991 16.8387 7.91767 17.1002 7.99998V11.8C16.0929 11.9375 15.1306 12.3048 14.2879 12.8735C13.4452 13.4423 12.7446 14.1972 12.2402 15.08C11.7183 15.9822 11.4092 16.9917 11.3365 18.0314C11.2637 19.0712 11.4291 20.1138 11.8202 21.08L7.82021 23.37C7.67993 23.2353 7.52948 23.1116 7.37021 23C7.00403 22.7917 6.60032 22.6577 6.18224 22.6058C5.76415 22.5538 5.33993 22.585 4.93391 22.6974C4.5279 22.8098 4.14807 23.0013 3.81624 23.2609C3.48441 23.5204 3.20709 23.843 3.00021 24.21C2.56823 24.9506 2.44148 25.8303 2.6468 26.6628C2.85212 27.4953 3.37338 28.2151 4.10021 28.67C4.59839 28.9699 5.1687 29.1289 5.75021 29.13C6.01353 29.1318 6.27589 29.0982 6.53021 29.03C7.3616 28.8155 8.07435 28.2808 8.51278 27.5426C8.95122 26.8043 9.07972 25.9226 8.87021 25.09V24.92L12.7502 22.68C13.2703 23.3608 13.9109 23.9404 14.6402 24.39C16.0383 25.2715 17.7199 25.5864 19.3422 25.2705C20.9645 24.9546 22.4051 24.0317 23.3702 22.69L27.2002 24.9C27.0197 25.582 27.0632 26.304 27.3243 26.9594C27.5853 27.6148 28.0502 28.1689 28.6502 28.54C29.377 28.9664 30.2434 29.087 31.059 28.8751C31.8747 28.6632 32.5728 28.1363 33.0002 27.41C33.4169 26.674 33.5351 25.8061 33.3304 24.9854C33.1258 24.1648 32.6138 23.4541 31.9002 23ZM8.05021 9.99998C9.48285 8.30762 11.3246 7.00982 13.4002 6.22998C13.1993 5.55948 13.1414 4.85427 13.2302 4.15998C10.6299 5.02935 8.3143 6.58808 6.53021 8.66998C6.35385 8.87154 6.26477 9.13491 6.28259 9.40215C6.3004 9.66939 6.42365 9.91861 6.62521 10.095C6.82678 10.2713 7.09015 10.3604 7.35739 10.3426C7.62463 10.3248 7.87385 10.2015 8.05021 9.99998Z" fill="#503279"/>
<path d="M24.6701 7.23004C25.9011 7.96866 27.0024 8.90445 27.9301 10C28.0155 10.0998 28.1196 10.1819 28.2367 10.2414C28.3537 10.3009 28.4814 10.3368 28.6123 10.3471C28.7432 10.3573 28.8749 10.3416 28.9998 10.3009C29.1247 10.2603 29.2403 10.1954 29.3401 10.11C29.4399 10.0247 29.5219 9.9205 29.5815 9.80345C29.641 9.68639 29.6769 9.55876 29.6871 9.42783C29.6973 9.2969 29.6817 9.16523 29.641 9.04036C29.6003 8.91549 29.5355 8.79985 29.4501 8.70004C28.3821 7.43301 27.1116 6.3517 25.6901 5.50004C24.7578 4.95797 23.7727 4.51234 22.7501 4.17004C22.8505 4.85945 22.7993 5.56246 22.6001 6.23004C23.3162 6.50648 24.0085 6.84092 24.6701 7.23004Z" fill="#503279"/>
</svg>
