<svg width="24" height="25" viewBox="0 0 24 25" fill="none" xmlns="http://www.w3.org/2000/svg">
<path d="M5.03402 9.83154C4.08823 10.0695 3.2619 10.6447 2.71028 11.449C2.15865 12.2533 1.9197 13.2313 2.03833 14.1993C2.15695 15.1674 2.62499 16.0588 3.35449 16.706C4.08399 17.3533 5.02475 17.712 6.00002 17.7145H7.00002M12 22.7145V13.7145V22.7145ZM12 22.7145L9.50002 20.7145L12 22.7145ZM12 22.7145L14.5 20.7145L12 22.7145Z" stroke="white" stroke-opacity="0.5" stroke-linecap="round" stroke-linejoin="round"/>
<path d="M15.83 7.85256C15.4882 6.49913 14.6446 5.3263 13.4702 4.57182C12.2957 3.81734 10.8783 3.53765 9.50529 3.78947C8.13228 4.04128 6.90638 4.80575 6.0761 5.9279C5.24582 7.05005 4.8733 8.44593 5.03404 9.83256C5.03404 9.83256 5.18704 10.7146 5.50004 11.2146" stroke="white" stroke-opacity="0.5" stroke-linecap="round" stroke-linejoin="round"/>
<path d="M17 17.7146C17.706 17.7141 18.404 17.5641 19.0479 17.2745C19.6917 16.9848 20.267 16.5621 20.7357 16.0341C21.2045 15.5061 21.5561 14.8848 21.7674 14.2111C21.9787 13.5375 22.045 12.8267 21.9618 12.1255C21.8786 11.4244 21.6479 10.7489 21.2848 10.1433C20.9217 9.53781 20.4345 9.01605 19.8552 8.61238C19.276 8.20872 18.6178 7.93232 17.924 7.80136C17.2302 7.6704 16.5166 7.68787 15.83 7.8526L14.5 8.2146" stroke="white" stroke-opacity="0.5" stroke-linecap="round" stroke-linejoin="round"/>
</svg>
