<svg width="62" height="69" viewBox="0 0 62 69" fill="none" xmlns="http://www.w3.org/2000/svg">
<path d="M32.8615 44.4759C32.8615 45.1795 32.9123 45.8712 33.0095 46.5478H11.2127C10.6405 46.5478 10.1767 46.0839 10.1767 45.512C10.1767 44.9398 10.6407 44.4761 11.2127 44.4761H32.8615V44.4759ZM10.1765 55.4824C10.1765 56.0545 10.6405 56.5182 11.2125 56.5182H39.3552C38.4498 55.9218 37.6158 55.2259 36.8684 54.4463H11.2127C10.6405 54.4463 10.1765 54.9102 10.1765 55.4824ZM39.8597 14.5645H11.2127C10.6405 14.5645 10.1767 15.0284 10.1767 15.6004C10.1767 16.1725 10.6407 16.6362 11.2127 16.6362H39.8599C40.4321 16.6362 40.8958 16.1723 40.8958 15.6004C40.8958 15.0284 40.4319 14.5645 39.8597 14.5645ZM36.8684 34.5055H11.2127C10.6405 34.5055 10.1767 34.9694 10.1767 35.5414C10.1767 36.1135 10.6407 36.5772 11.2127 36.5772H35.2175C35.7042 35.8363 36.2573 35.1429 36.8684 34.5055ZM44.0098 6.91507C44.0997 6.91507 44.1873 6.9242 44.2721 6.94161C44.3143 6.95031 44.3559 6.96114 44.3967 6.97367C44.4171 6.98004 44.4373 6.98683 44.4572 6.99426C44.9158 7.16241 45.2543 7.58172 45.3055 8.08446C45.3076 8.10633 45.3093 8.12841 45.3106 8.15049C45.3118 8.17257 45.3123 8.19486 45.3123 8.21737V30.1984C45.9535 30.1112 46.6079 30.066 47.2731 30.066C47.7298 30.066 48.1817 30.0874 48.6276 30.129V8.21737C48.6276 8.10166 48.6233 7.9868 48.615 7.87258C48.6068 7.75836 48.5942 7.6452 48.5775 7.53288C48.442 6.6155 48.0343 5.76521 47.3948 5.07733C47.3557 5.0353 47.3158 4.99347 47.275 4.95271C46.4845 4.16229 45.4581 3.69394 44.3547 3.61305C44.2404 3.60477 44.1256 3.60052 44.0098 3.60052H40.3278H39.4068V6.91549H40.3087H44.0098V6.91507ZM40.8958 25.571C40.8958 24.9988 40.4319 24.5351 39.8599 24.5351H11.2127C10.6405 24.5351 10.1767 24.999 10.1767 25.571C10.1767 26.1431 10.6407 26.6068 11.2127 26.6068H39.8599C40.4319 26.6068 40.8958 26.1429 40.8958 25.571ZM45.3123 58.7534V60.7826C45.3123 60.8051 45.3116 60.8274 45.3106 60.8495C45.3095 60.8716 45.3078 60.8937 45.3055 60.9155C45.2543 61.4183 44.9156 61.8376 44.4572 62.0057C44.4373 62.0129 44.4171 62.02 44.3967 62.0263C44.3559 62.0391 44.3143 62.0497 44.2721 62.0584C44.1873 62.0758 44.0997 62.0849 44.0098 62.0849H40.3087H9.77714H6.86101C6.7712 62.0849 6.68351 62.0758 6.59879 62.0584C6.55653 62.0497 6.51492 62.0389 6.47415 62.0263C6.45377 62.02 6.43359 62.0132 6.41364 62.0057C5.955 61.8376 5.61655 61.4185 5.56538 60.9155C5.56326 60.8937 5.56156 60.8716 5.56029 60.8495C5.55922 60.8274 5.55859 60.8051 5.55859 60.7826V8.21737C5.55859 8.19486 5.55922 8.17257 5.56029 8.15049C5.56135 8.12841 5.56305 8.10633 5.56538 8.08446C5.61655 7.58172 5.95522 7.16241 6.41364 6.99426C6.43359 6.98704 6.45377 6.98004 6.47415 6.97367C6.51492 6.96093 6.55653 6.95031 6.59879 6.94161C6.68351 6.9242 6.7712 6.91507 6.86101 6.91507H40.055H41.7417V3.6001H40.0495H6.86101C6.74529 3.6001 6.63042 3.60434 6.51619 3.61262C5.71698 3.67122 4.95833 3.933 4.30054 4.37311C4.2379 4.41493 4.17611 4.45846 4.11539 4.50368C3.933 4.63913 3.75931 4.78881 3.59582 4.95229C2.88728 5.66076 2.43714 6.55924 2.2934 7.53267C2.27683 7.64498 2.26431 7.75836 2.25581 7.87237C2.24753 7.98659 2.24329 8.10144 2.24329 8.21715V60.7824C2.24329 60.8981 2.24753 61.013 2.25581 61.1272C2.26409 61.2414 2.27662 61.3546 2.2934 61.4669C2.43714 62.4403 2.88707 63.3386 3.59582 64.0473C3.75931 64.2108 3.933 64.3604 4.11539 64.4959C4.14575 64.5184 4.17633 64.5407 4.20733 64.5623C4.88635 65.0411 5.67919 65.3256 6.5164 65.3869C6.63064 65.3952 6.74551 65.3995 6.86122 65.3995H9.77183H40.3278H44.0098C44.1256 65.3995 44.2404 65.3952 44.3547 65.3869C45.4581 65.3061 46.4847 64.8375 47.275 64.0473C47.316 64.0063 47.3557 63.9647 47.3948 63.9227C48.0343 63.2348 48.442 62.3843 48.5775 61.4671C48.594 61.3548 48.6065 61.2414 48.615 61.1274C48.6233 61.0132 48.6276 60.8983 48.6276 60.7826V58.8228C48.1817 58.8644 47.7298 58.8859 47.2731 58.8859C46.6079 58.8859 45.9533 58.8406 45.3123 58.7534Z" fill="white"/>
<path d="M47.1723 57.0745C40.2329 57.0745 34.5875 51.4297 34.5875 44.4912C34.5875 37.5528 40.2329 31.908 47.1723 31.908C54.1114 31.908 59.7568 37.5528 59.7568 44.4912C59.7568 51.4297 54.1114 57.0745 47.1723 57.0745ZM47.1723 34.2436C41.5209 34.2436 36.9231 38.8409 36.9231 44.4914C36.9231 50.142 41.5207 54.7393 47.1723 54.7393C52.8234 54.7393 57.4211 50.1422 57.4211 44.4914C57.4211 38.8407 52.8234 34.2436 47.1723 34.2436Z" fill="white"/>
<path d="M38.6296 45.0828C38.6842 45.0828 38.7303 45.0828 38.7763 45.0828C38.7663 45.0333 38.7642 44.9807 38.7447 44.9353C38.7107 44.8558 38.6661 44.7809 38.6135 44.6807C38.529 44.8094 38.6619 44.8718 38.6555 44.9612C38.4859 44.9081 38.4086 44.7964 38.3718 44.6263C38.2476 44.0512 38.7005 43.5276 39.2842 43.5304C41.0215 43.5387 42.7586 43.5334 44.4958 43.5334C44.5419 43.5334 44.5882 43.5334 44.6642 43.5334C44.6281 43.4886 44.6094 43.4606 44.5861 43.437C44.1531 43.0026 43.7202 42.5682 43.286 42.1349C43.1624 42.0113 43.0463 41.8793 43.0163 41.7033C42.9365 41.2352 43.028 40.902 43.42 40.666C43.734 40.4768 44.1941 40.4938 44.5054 40.8048C45.5127 41.8109 46.5204 42.8166 47.5215 43.8291C47.8557 44.1671 47.853 44.7244 47.519 45.0622C46.7185 45.872 45.9102 46.6736 45.1048 47.4787C44.9148 47.6687 44.7243 47.8585 44.5349 48.0492C44.0686 48.5186 43.3388 48.3976 43.0482 47.8023C42.8985 47.4957 42.9749 47.0651 43.2312 46.8063C43.6835 46.3496 44.1389 45.8959 44.5927 45.4408C44.6158 45.4176 44.6366 45.3924 44.6814 45.3431C44.6079 45.3395 44.5614 45.3354 44.5147 45.3354C42.7859 45.335 41.0572 45.3346 39.3284 45.3354C39.0662 45.3352 38.8292 45.2724 38.6296 45.0828Z" fill="white"/>
<path d="M51.2409 48.7797C51.1628 48.7228 51.0885 48.6688 51.0144 48.6149C51.0023 48.6302 50.9899 48.6453 50.9778 48.6603C51.08 48.7383 51.1823 48.8162 51.2844 48.8943C51.3012 48.8661 51.3373 48.8325 51.3312 48.8107C51.3078 48.7264 51.2708 48.6459 51.2343 48.5523C51.2872 48.5523 51.3269 48.5523 51.3764 48.5523C51.3779 48.6415 51.3753 48.7451 51.5046 48.7472C51.5758 48.7482 51.6586 48.6272 51.6501 48.5491C51.7698 48.5009 51.7647 48.6249 51.8344 48.6971C51.8427 48.6334 51.8477 48.5937 51.855 48.5376C52.0038 48.5376 52.155 48.5374 52.306 48.5376C52.513 48.5378 52.7202 48.5372 52.9272 48.5391C53.4629 48.5438 53.8086 48.976 53.8192 49.4219C53.8311 49.921 53.4268 50.3278 52.916 50.3316C52.282 50.3365 51.6479 50.3329 51.0141 50.3331C50.0251 50.3331 49.0361 50.3338 48.0471 50.3327C47.6345 50.3323 47.3419 50.1446 47.1746 49.7652C46.9962 49.3608 47.2035 48.8039 47.6116 48.6336C47.7475 48.5769 47.9035 48.5432 48.0507 48.5419C49.0437 48.534 50.037 48.5376 51.0303 48.5381C51.1721 48.5381 51.1938 48.564 51.2409 48.7797Z" fill="white"/>
<path d="M53.392 38.6464C53.3106 38.7358 53.2574 38.7944 53.1939 38.8644C53.1323 38.8103 53.0677 38.7536 52.9964 38.6912C52.966 38.7201 52.9399 38.7449 52.9053 38.7778C53.0174 38.8976 53.1263 39.0082 53.2287 39.1247C53.3234 39.2326 53.4081 39.3491 53.5032 39.4566C53.5236 39.4795 53.5697 39.4795 53.6041 39.4899C53.6085 39.4513 53.6311 39.3999 53.6143 39.3761C53.5391 39.2693 53.455 39.1682 53.3693 39.0695C53.3194 39.012 53.289 38.9615 53.3561 38.8965C53.4211 38.8332 53.4922 38.8218 53.5589 38.8823C53.7678 39.0716 53.8642 39.3071 53.8071 39.5876C53.7342 39.9453 53.5279 40.1958 53.1731 40.3058C53.0905 40.3315 52.9992 40.3387 52.9119 40.3387C51.2767 40.3406 49.6414 40.3374 48.0062 40.3419C47.564 40.3432 47.2183 40.0253 47.1389 39.6693C47.0336 39.1978 47.2618 38.7663 47.6916 38.6037C47.7916 38.5659 47.9065 38.5523 48.0145 38.5521C49.6497 38.5489 51.285 38.5472 52.9202 38.5538C53.0743 38.5547 53.2285 38.6131 53.392 38.6464Z" fill="white"/>
<path d="M51.3991 43.6785C50.9048 43.6787 50.4103 43.6793 49.916 43.6785C49.4737 43.6776 49.1157 43.3991 49.015 42.9793C48.9172 42.5708 49.1127 42.1524 49.5106 41.963C49.6325 41.905 49.7786 41.873 49.9138 41.8719C50.9067 41.8645 51.8997 41.8651 52.8928 41.8692C53.4166 41.8713 53.8287 42.2912 53.82 42.8006C53.8122 43.2602 53.4058 43.6729 52.9457 43.6774C52.4301 43.6825 51.9144 43.6785 51.3991 43.6785Z" fill="white"/>
<path d="M40.7602 45.3347C40.2659 45.3349 39.7713 45.3356 39.277 45.3347C38.8348 45.3339 38.4768 45.0553 38.3761 44.6356C38.2782 44.2271 38.4738 43.8086 38.8717 43.6193C38.9936 43.5613 39.1397 43.5292 39.2749 43.5282C40.2678 43.5207 41.2608 43.5214 42.2539 43.5254C42.7777 43.5275 43.1898 43.9475 43.1811 44.4568C43.1733 44.9165 42.7669 45.3292 42.3068 45.3336C41.7912 45.3385 41.2757 45.3347 40.7602 45.3347Z" fill="white"/>
<path d="M51.3991 40.3398C50.9048 40.34 50.4103 40.3407 49.916 40.3398C49.4737 40.339 49.1157 40.0604 49.015 39.6407C48.9172 39.2322 49.1127 38.8138 49.5106 38.6244C49.6325 38.5664 49.7786 38.5344 49.9138 38.5333C50.9067 38.5259 51.8997 38.5265 52.8928 38.5305C53.4166 38.5327 53.8287 38.9526 53.82 39.4619C53.8122 39.9216 53.4058 40.3343 52.9457 40.3388C52.4301 40.3437 51.9144 40.3396 51.3991 40.3398Z" fill="white"/>
<path d="M51.3991 50.3411C50.9048 50.3413 50.4103 50.3419 49.916 50.3411C49.4737 50.3402 49.1157 50.0617 49.015 49.6419C48.9172 49.2334 49.1127 48.815 49.5106 48.6256C49.6325 48.5676 49.7786 48.5356 49.9138 48.5345C50.9067 48.5271 51.8997 48.5277 52.8928 48.5318C53.4166 48.5339 53.8287 48.9538 53.82 49.4632C53.8122 49.9228 53.4058 50.3355 52.9457 50.34C52.4301 50.3451 51.9144 50.3411 51.3991 50.3411Z" fill="white"/>
<path d="M51.4093 45.2061C51.9118 45.2063 52.4144 45.2039 52.9168 45.2069C53.4287 45.2097 53.8343 45.6322 53.8198 46.1421C53.8084 46.5525 53.4854 46.9179 53.069 46.9882C52.9987 47.0001 52.9261 47.0043 52.8548 47.0045C51.8834 47.0056 50.9122 47.0056 49.9408 47.0051C49.542 47.0049 49.2469 46.8355 49.0679 46.4725C48.8549 46.0402 49.0902 45.4392 49.5463 45.2801C49.6707 45.2366 49.8077 45.2114 49.9395 45.2092C50.4294 45.2012 50.9192 45.2061 51.4093 45.2061Z" fill="white"/>
</svg>
