<svg width="60" height="67" viewBox="0 0 60 67" fill="none" xmlns="http://www.w3.org/2000/svg">
<path d="M31.8014 43.2568C31.8014 43.9298 31.8506 44.5914 31.9447 45.2386H10.851C10.2972 45.2386 9.84843 44.7949 9.84843 44.2478C9.84843 43.7005 10.2974 43.257 10.851 43.257H31.8014V43.2568ZM9.84823 53.7847C9.84823 54.332 10.2972 54.7755 10.8508 54.7755H38.0856C37.2095 54.2051 36.4023 53.5394 35.679 52.7937H10.851C10.2972 52.7937 9.84823 53.2374 9.84823 53.7847ZM38.5738 14.6459H10.851C10.2972 14.6459 9.84843 15.0896 9.84843 15.6367C9.84843 16.184 10.2974 16.6275 10.851 16.6275H38.574C39.1278 16.6275 39.5766 16.1838 39.5766 15.6367C39.5766 15.0896 39.1276 14.6459 38.5738 14.6459ZM35.679 33.7199H10.851C10.2972 33.7199 9.84843 34.1636 9.84843 34.7107C9.84843 35.258 10.2974 35.7015 10.851 35.7015H34.0814C34.5524 34.9928 35.0877 34.3295 35.679 33.7199ZM42.5901 7.32905C42.6771 7.32905 42.7619 7.33778 42.8439 7.35443C42.8848 7.36276 42.9251 7.37311 42.9645 7.3851C42.9843 7.39119 43.0038 7.39769 43.0231 7.40479C43.4669 7.56563 43.7945 7.96671 43.844 8.44759C43.846 8.46851 43.8477 8.48963 43.8489 8.51075C43.8501 8.53187 43.8506 8.55319 43.8506 8.57472V29.6001C44.4711 29.5166 45.1044 29.4734 45.7482 29.4734C46.1901 29.4734 46.6274 29.4939 47.0589 29.5337V8.57472C47.0589 8.46404 47.0548 8.35418 47.0468 8.24492C47.0388 8.13567 47.0266 8.02743 47.0104 7.92C46.8793 7.0425 46.4848 6.22918 45.8659 5.57121C45.8281 5.531 45.7895 5.491 45.75 5.45201C44.985 4.69595 43.9917 4.24796 42.9238 4.17059C42.8133 4.16267 42.7021 4.15861 42.5901 4.15861H39.0269H38.1356V7.32945H39.0084H42.5901V7.32905ZM39.5766 25.1738C39.5766 24.6265 39.1276 24.183 38.574 24.183H10.851C10.2972 24.183 9.84843 24.6267 9.84843 25.1738C9.84843 25.7211 10.2974 26.1646 10.851 26.1646H38.574C39.1276 26.1646 39.5766 25.7209 39.5766 25.1738ZM43.8506 56.9135V58.8545C43.8506 58.8761 43.8499 58.8974 43.8489 58.9185C43.8479 58.9396 43.8462 58.9607 43.844 58.9817C43.7945 59.4625 43.4667 59.8636 43.0231 60.0245C43.0038 60.0314 42.9843 60.0381 42.9645 60.0442C42.9251 60.0563 42.8848 60.0665 42.8439 60.0748C42.7619 60.0915 42.6771 60.1002 42.5901 60.1002H39.0084H9.46172H6.63967C6.55275 60.1002 6.46788 60.0915 6.3859 60.0748C6.34501 60.0665 6.30473 60.0561 6.26528 60.0442C6.24556 60.0381 6.22604 60.0316 6.20672 60.0245C5.76288 59.8636 5.43535 59.4627 5.38583 58.9817C5.38378 58.9607 5.38213 58.9396 5.3809 58.9185C5.37987 58.8974 5.37925 58.8761 5.37925 58.8545V8.57472C5.37925 8.55319 5.37987 8.53187 5.3809 8.51075C5.38193 8.48963 5.38357 8.46851 5.38583 8.44759C5.43535 7.96671 5.76309 7.56563 6.20672 7.40479C6.22604 7.39789 6.24556 7.39119 6.26528 7.3851C6.30473 7.37291 6.34501 7.36276 6.3859 7.35443C6.46788 7.33778 6.55275 7.32905 6.63967 7.32905H38.7629H40.3952V4.1582H38.7575H6.63967C6.52768 4.1582 6.41651 4.16226 6.30597 4.17018C5.53254 4.22623 4.79836 4.47663 4.16179 4.89761C4.10117 4.93761 4.04138 4.97924 3.98261 5.0225C3.8061 5.15206 3.63802 5.29523 3.4798 5.4516C2.79412 6.12927 2.3585 6.98869 2.21939 7.9198C2.20336 8.02722 2.19124 8.13567 2.18302 8.24472C2.17501 8.35398 2.1709 8.46384 2.1709 8.57452V58.8543C2.1709 58.965 2.17501 59.0749 2.18302 59.1841C2.19104 59.2934 2.20316 59.4016 2.21939 59.5091C2.3585 60.4402 2.79391 61.2994 3.4798 61.9772C3.63802 62.1336 3.8061 62.2768 3.98261 62.4063C4.01199 62.4279 4.04158 62.4492 4.07158 62.4699C4.72871 62.9278 5.49597 63.2 6.30617 63.2587C6.41672 63.2666 6.52788 63.2706 6.63987 63.2706H9.45658H39.0269H42.5901C42.7021 63.2706 42.8133 63.2666 42.9238 63.2587C43.9917 63.1813 44.9852 62.7331 45.75 61.9772C45.7897 61.9381 45.8281 61.8982 45.8659 61.858C46.4848 61.2001 46.8793 60.3865 47.0104 59.5093C47.0264 59.4018 47.0386 59.2934 47.0468 59.1843C47.0548 59.0751 47.0589 58.9652 47.0589 58.8545V56.9799C46.6274 57.0197 46.1901 57.0402 45.7482 57.0402C45.1044 57.0402 44.4709 56.997 43.8506 56.9135Z" fill="white"/>
<path d="M45.6506 55.3077C38.9351 55.3077 33.4718 49.9083 33.4718 43.2715C33.4718 36.6348 38.9351 31.2354 45.6506 31.2354C52.3658 31.2354 57.8291 36.6348 57.8291 43.2715C57.8291 49.9083 52.3658 55.3077 45.6506 55.3077ZM45.6506 33.4694C40.1815 33.4694 35.7321 37.8668 35.7321 43.2717C35.7321 48.6766 40.1813 53.074 45.6506 53.074C51.1194 53.074 55.5689 48.6768 55.5689 43.2717C55.5689 37.8666 51.1194 33.4694 45.6506 33.4694Z" fill="white"/>
<path d="M37.3834 43.8371C37.4363 43.8371 37.4808 43.8371 37.5254 43.8371C37.5158 43.7898 37.5137 43.7394 37.4948 43.696C37.4619 43.62 37.4188 43.5483 37.3678 43.4525C37.286 43.5755 37.4147 43.6352 37.4085 43.7207C37.2443 43.67 37.1695 43.5631 37.134 43.4005C37.0138 42.8503 37.4521 42.3496 38.0169 42.3522C39.6982 42.3601 41.3792 42.355 43.0604 42.355C43.105 42.355 43.1498 42.355 43.2234 42.355C43.1884 42.3122 43.1704 42.2854 43.1478 42.2628C42.7288 41.8473 42.3098 41.4318 41.8896 41.0174C41.77 40.8992 41.6576 40.7729 41.6287 40.6045C41.5514 40.1567 41.64 39.8381 42.0193 39.6123C42.3232 39.4313 42.7684 39.4476 43.0697 39.7451C44.0445 40.7075 45.0197 41.6694 45.9885 42.6379C46.3119 42.9612 46.3093 43.4943 45.986 43.8174C45.2114 44.5919 44.4291 45.3587 43.6497 46.1288C43.4658 46.3106 43.2815 46.4921 43.0982 46.6745C42.647 47.1235 41.9408 47.0077 41.6595 46.4383C41.5146 46.1451 41.5886 45.7332 41.8366 45.4857C42.2743 45.0489 42.715 44.6149 43.1541 44.1795C43.1765 44.1573 43.1967 44.1332 43.24 44.0861C43.1689 44.0826 43.1239 44.0788 43.0787 44.0788C41.4057 44.0783 39.7327 44.0779 38.0597 44.0788C37.8059 44.0785 37.5766 44.0184 37.3834 43.8371Z" fill="white"/>
<path d="M49.5879 47.3734C49.5123 47.3189 49.4404 47.2674 49.3686 47.2158C49.3569 47.2304 49.345 47.2448 49.3333 47.2592C49.4321 47.3338 49.5312 47.4083 49.63 47.483C49.6462 47.456 49.6812 47.4239 49.6752 47.403C49.6526 47.3224 49.6169 47.2454 49.5815 47.1559C49.6327 47.1559 49.6711 47.1559 49.719 47.1559C49.7204 47.2412 49.718 47.3403 49.8431 47.3423C49.9119 47.3433 49.9921 47.2275 49.9838 47.1528C50.0997 47.1067 50.0948 47.2253 50.1622 47.2944C50.1702 47.2334 50.1751 47.1955 50.1821 47.1418C50.3262 47.1418 50.4725 47.1416 50.6186 47.1418C50.8189 47.1421 51.0195 47.1414 51.2198 47.1433C51.7382 47.1477 52.0727 47.5612 52.083 47.9877C52.0945 48.4651 51.7033 48.8542 51.2089 48.8578C50.5954 48.8625 49.9818 48.8591 49.3684 48.8593C48.4113 48.8593 47.4542 48.8599 46.4971 48.8589C46.0978 48.8585 45.8147 48.6789 45.6528 48.316C45.4801 47.9292 45.6807 47.3965 46.0756 47.2336C46.2071 47.1794 46.3582 47.1471 46.5006 47.1459C47.4616 47.1384 48.4228 47.1418 49.3841 47.1423C49.5213 47.1423 49.5423 47.167 49.5879 47.3734Z" fill="white"/>
<path d="M51.6697 37.6805C51.591 37.766 51.5394 37.8221 51.4779 37.8891C51.4184 37.8373 51.3559 37.7831 51.2868 37.7234C51.2575 37.751 51.2322 37.7747 51.1987 37.8062C51.3072 37.9207 51.4126 38.0265 51.5116 38.138C51.6033 38.2412 51.6853 38.3527 51.7773 38.4554C51.7971 38.4774 51.8416 38.4774 51.8749 38.4873C51.8792 38.4504 51.901 38.4012 51.8848 38.3785C51.8121 38.2763 51.7307 38.1797 51.6477 38.0852C51.5994 38.0302 51.57 37.9819 51.6349 37.9197C51.6978 37.8592 51.7666 37.8482 51.8312 37.9061C52.0334 38.0873 52.1266 38.3125 52.0714 38.5807C52.0009 38.9229 51.8012 39.1626 51.4578 39.2678C51.3779 39.2923 51.2895 39.2992 51.2051 39.2992C49.6227 39.3011 48.0401 39.298 46.4577 39.3023C46.0297 39.3035 45.6951 38.9995 45.6183 38.6589C45.5164 38.2079 45.7373 37.7952 46.1532 37.6397C46.2499 37.6035 46.3611 37.5905 46.4657 37.5903C48.0481 37.5873 49.6307 37.5857 51.2131 37.592C51.3623 37.5928 51.5114 37.6486 51.6697 37.6805Z" fill="white"/>
<path d="M49.741 42.4937C49.2627 42.4939 48.7841 42.4945 48.3058 42.4937C47.8777 42.4929 47.5313 42.2265 47.4339 41.825C47.3392 41.4343 47.5284 41.034 47.9135 40.8528C48.0314 40.7974 48.1728 40.7667 48.3037 40.7657C49.2645 40.7586 50.2256 40.7592 51.1866 40.7631C51.6935 40.7651 52.0923 41.1668 52.0839 41.654C52.0763 42.0936 51.683 42.4884 51.2377 42.4927C50.7388 42.4976 50.2397 42.4937 49.741 42.4937Z" fill="white"/>
<path d="M39.4453 44.0782C38.9669 44.0784 38.4883 44.079 38.01 44.0782C37.582 44.0774 37.2355 43.8109 37.1381 43.4094C37.0434 43.0187 37.2327 42.6185 37.6177 42.4373C37.7357 42.3819 37.877 42.3512 38.0079 42.3502C38.9688 42.3431 39.9298 42.3437 40.8908 42.3476C41.3977 42.3496 41.7966 42.7513 41.7881 43.2385C41.7805 43.6781 41.3872 44.0729 40.942 44.0772C40.4431 44.0818 39.9442 44.0782 39.4453 44.0782Z" fill="white"/>
<path d="M49.741 39.3003C49.2627 39.3005 48.7841 39.3012 48.3058 39.3003C47.8777 39.2995 47.5313 39.0331 47.4339 38.6316C47.3392 38.2409 47.5284 37.8406 47.9135 37.6595C48.0314 37.604 48.1728 37.5734 48.3037 37.5724C49.2645 37.5653 50.2256 37.5659 51.1866 37.5697C51.6935 37.5718 52.0923 37.9734 52.0839 38.4606C52.0763 38.9003 51.683 39.2951 51.2377 39.2993C50.7388 39.304 50.2397 39.3001 49.741 39.3003Z" fill="white"/>
<path d="M49.741 48.8668C49.2627 48.867 48.7841 48.8676 48.3058 48.8668C47.8777 48.8659 47.5313 48.5995 47.4339 48.198C47.3392 47.8073 47.5284 47.407 47.9135 47.2259C48.0314 47.1704 48.1728 47.1398 48.3037 47.1388C49.2645 47.1317 50.2256 47.1323 51.1866 47.1361C51.6935 47.1382 52.0923 47.5398 52.0839 48.027C52.0763 48.4667 51.683 48.8615 51.2377 48.8657C50.7388 48.8706 50.2397 48.8668 49.741 48.8668Z" fill="white"/>
<path d="M49.7508 43.955C50.2372 43.9552 50.7236 43.953 51.2097 43.9558C51.7052 43.9585 52.0976 44.3626 52.0837 44.8504C52.0726 45.2429 51.76 45.5924 51.3571 45.6596C51.2891 45.671 51.2188 45.6751 51.1497 45.6753C50.2097 45.6763 49.2698 45.6763 48.3297 45.6759C47.9439 45.6757 47.6582 45.5136 47.485 45.1664C47.2789 44.7529 47.5066 44.178 47.948 44.0259C48.0684 43.9843 48.2009 43.9601 48.3285 43.9581C48.8026 43.9503 49.2766 43.955 49.7508 43.955Z" fill="white"/>
</svg>
