<svg width="32" height="32" viewBox="0 0 32 32" fill="none" xmlns="http://www.w3.org/2000/svg">
<g clip-path="url(#clip0_345_43)">
<path d="M0.401553 23.4866C0.228219 23.0333 -0.294447 21.4706 0.224219 20.244L13.3269 27.8093C13.3937 27.848 13.4696 27.8684 13.5469 27.8684C13.6241 27.8684 13.7 27.848 13.7669 27.8093L32.0002 17.2826V20.4213L13.5469 31.0746L0.400219 23.4866H0.401553ZM0.254886 11.9506C-0.129114 13.12 0.274886 14.6946 0.420219 15.1853L13.5469 22.764L32.0002 12.1106V8.96796L13.7669 19.496C13.7 19.5347 13.6241 19.5551 13.5469 19.5551C13.4696 19.5551 13.3937 19.5347 13.3269 19.496L0.253553 11.9506H0.254886ZM17.8149 9.36929C17.7557 9.40274 17.6896 9.4221 17.6217 9.42586C17.5538 9.42963 17.4859 9.41771 17.4234 9.39101C17.3608 9.36432 17.3053 9.32358 17.261 9.27194C17.2168 9.22031 17.185 9.15918 17.1682 9.09329L16.7949 7.58263L13.9602 7.34796C13.867 7.34002 13.7788 7.30259 13.7083 7.2411C13.6379 7.17962 13.5888 7.09728 13.5683 7.00603C13.5478 6.91479 13.5569 6.81938 13.5943 6.73365C13.6317 6.64793 13.6954 6.57635 13.7762 6.52929L21.2136 2.23596L18.9442 0.925293L0.930886 11.3253L13.5469 18.608L31.5602 8.20796L25.6936 4.82129L17.8136 9.36796L17.8149 9.36929ZM17.5722 7.06396L17.8816 8.31463L24.8122 4.31329L22.0922 2.74263L15.4349 6.58796L17.1816 6.73196C17.2734 6.73962 17.3605 6.77591 17.4306 6.83572C17.5007 6.89552 17.5502 6.97582 17.5722 7.06529V7.06396ZM32.0002 13.1266L13.7669 23.6533C13.7 23.692 13.6241 23.7124 13.5469 23.7124C13.4696 23.7124 13.3937 23.692 13.3269 23.6533L0.224219 16.0893C-0.295781 17.3146 0.228219 18.8773 0.401553 19.3293L13.5469 26.92L32.0002 16.2666V13.1253V13.1266Z" fill="#503279"/>
</g>
<defs>
<clipPath id="clip0_345_43">
<rect width="32" height="32" fill="white"/>
</clipPath>
</defs>
</svg>
