<svg width="40" height="40" viewBox="0 0 40 40" fill="none" xmlns="http://www.w3.org/2000/svg">
<rect width="40" height="40" rx="5" fill="#3B5998"/>
<path d="M16.6413 9.31123C17.8869 6.37211 20.0996 4.93286 23.2957 5.0024C24.1441 5.02082 24.9933 4.99525 25.8419 5.00828C26.6291 5.02033 27.0205 5.42231 27.0349 6.21931C27.0501 7.06774 27.0515 7.91636 27.0589 8.76488C26.9848 10.1558 26.7545 10.3752 25.3677 10.3754C24.5414 10.3755 23.715 10.3675 22.8888 10.3779C22.0894 10.388 21.6797 10.7794 21.6714 11.5612C21.6583 12.7897 21.6883 14.019 21.6568 15.2468C21.6455 15.6848 21.8055 15.7626 22.1952 15.7541C23.2667 15.7306 24.3396 15.7683 25.4107 15.7378C26.0679 15.7191 26.539 15.9337 26.7936 16.5561C26.7206 17.7646 26.382 18.9263 26.1539 20.1069C26.0098 20.8528 25.6538 21.1079 24.8864 21.1144C23.9707 21.1221 23.0545 21.1344 22.1396 21.1077C21.7529 21.0964 21.6587 21.2262 21.6604 21.5977C21.68 25.7304 21.6834 29.8633 21.6912 33.9961C19.8888 33.9975 18.0863 33.9987 16.2839 34C16.2889 29.8619 16.2885 25.7237 16.3074 21.5856C16.3092 21.1885 16.1743 21.0984 15.8077 21.1089C14.981 21.1326 14.153 21.1201 13.3256 21.1151C12.3979 21.1096 12.0116 20.7337 12.0054 19.8243C11.9988 18.8848 11.9974 17.9452 12.0059 17.0057C12.0136 16.1349 12.4036 15.7546 13.2888 15.7472C14.0715 15.7406 14.8555 15.7178 15.6365 15.7558C16.1367 15.7802 16.3416 15.6701 16.3133 15.1113C16.2626 14.1073 16.3172 13.0984 16.2937 12.0923C16.2716 11.145 16.3628 10.218 16.6413 9.31123Z" fill="white"/>
</svg>
