<svg width="38" height="38" viewBox="0 0 38 38" fill="none" xmlns="http://www.w3.org/2000/svg">
<path d="M23.7502 26.9167H14.2502V25.3333H7.91683V30.0833H30.0835V25.3333H23.7502V26.9167ZM6.3335 22.1667H14.2502V17.4167H23.7502V22.1667H31.6668V14.25H6.3335V22.1667Z" fill="#E8DFF5"/>
<path d="M31.6665 11.0833H25.3332V7.91667L22.1665 4.75H15.8332L12.6665 7.91667V11.0833H6.33317C4.5915 11.0833 3.1665 12.5083 3.1665 14.25V22.1667C3.1665 23.3542 3.79984 24.3517 4.74984 24.9058V30.0833C4.74984 31.8408 6.159 33.25 7.9165 33.25H30.0832C31.8407 33.25 33.2498 31.8408 33.2498 30.0833V24.89C34.184 24.3358 34.8332 23.3225 34.8332 22.1667V14.25C34.8332 12.5083 33.4082 11.0833 31.6665 11.0833ZM15.8332 7.91667H22.1665V11.0833H15.8332V7.91667ZM30.0832 30.0833H7.9165V25.3333H14.2498V26.9167H23.7498V25.3333H30.0832V30.0833ZM17.4165 23.75V20.5833H20.5832V23.75H17.4165ZM31.6665 22.1667H23.7498V17.4167H14.2498V22.1667H6.33317V14.25H31.6665V22.1667Z" fill="#503279"/>
</svg>
