<svg width="41" height="40" viewBox="0 0 41 40" fill="none" xmlns="http://www.w3.org/2000/svg">
<rect width="40.597" height="40" rx="5" fill="url(#paint0_linear_87_803)"/>
<path d="M33.2863 19.9908C33.2863 21.8931 33.322 23.7966 33.2759 25.699C33.2321 27.4943 32.7465 29.1625 31.6094 30.579C30.7626 31.6294 29.6278 32.3983 28.3502 32.7872C27.175 33.1637 25.9629 33.2519 24.7427 33.2602C21.6023 33.2813 18.4607 33.3049 15.3203 33.2449C13.8003 33.2166 12.3114 32.9743 10.9643 32.1943C9.24476 31.1978 8.16759 29.6966 7.68897 27.739C7.47765 26.8076 7.36399 25.856 7.3499 24.9002C7.25649 22.0119 7.29455 19.1237 7.31646 16.2366C7.32684 14.9002 7.3476 13.5555 7.69474 12.2461C8.39363 9.61077 10.0048 7.89665 12.5905 7.14253C13.6988 6.819 14.8348 6.74842 15.9754 6.74136C19.0685 6.72018 22.1605 6.699 25.2536 6.75547C26.6329 6.78136 27.9904 6.96371 29.259 7.57312C31.0212 8.42018 32.2091 9.79194 32.8284 11.6743C33.167 12.7459 33.3287 13.8674 33.307 14.9931C33.299 16.659 33.3047 18.3249 33.3047 19.9919C33.2986 19.991 33.2925 19.9906 33.2863 19.9908ZM9.75913 20.0013C9.76144 21.7555 9.71992 23.5108 9.81334 25.2637C9.85601 26.0637 9.93328 26.8602 10.1997 27.6166C10.7821 29.2755 11.9665 30.2143 13.64 30.5731C14.7091 30.8013 15.7943 30.7849 16.8726 30.8013C19.1723 30.8366 21.4723 30.8366 23.7728 30.8013C24.7554 30.7872 25.7438 30.8108 26.7206 30.6355C27.7205 30.4566 28.6374 30.1119 29.3905 29.3837C30.3385 28.4672 30.6983 27.2919 30.8298 26.019C30.967 24.6837 30.9059 23.3402 30.9393 22.0014C30.9982 19.6661 30.9255 17.3296 30.8874 14.9943C30.8854 14.5014 30.8465 14.0094 30.771 13.5225C30.5507 12.2049 30.0501 11.0543 28.9441 10.2496C28.0688 9.61194 27.0631 9.40841 26.024 9.30724C24.6366 9.17312 23.2434 9.23783 21.8537 9.20136C19.787 9.14724 17.718 9.22253 15.6513 9.24959C14.9458 9.25398 14.2425 9.33124 13.5523 9.48018C11.692 9.89547 10.5168 11.0319 10.0555 12.9249C9.81103 13.9284 9.79373 14.9566 9.76836 15.979C9.73491 17.319 9.75913 18.6602 9.75913 20.0013Z" fill="white"/>
<path d="M20.336 26.8682C16.6443 26.867 13.61 23.7576 13.6157 19.9811C13.6215 16.2294 16.6696 13.1035 20.3498 13.14C24.1326 13.1776 27.0597 16.1823 27.0643 19.9941C27.0677 23.8447 24.0899 26.8164 20.336 26.8682ZM16.0676 19.9988C16.0672 20.8624 16.3178 21.7068 16.7879 22.4251C17.2579 23.1434 17.9263 23.7034 18.7083 24.0341C19.4904 24.3649 20.3511 24.4516 21.1815 24.2833C22.0119 24.115 22.7747 23.6993 23.3734 23.0887C23.9721 22.4781 24.3799 21.7001 24.5451 20.853C24.7103 20.006 24.6255 19.128 24.3015 18.3301C23.9774 17.5322 23.4287 16.8503 22.7247 16.3706C22.0206 15.8909 21.193 15.635 20.3463 15.6353C19.7841 15.6334 19.227 15.7451 18.7071 15.9637C18.1873 16.1823 17.7149 16.5036 17.3173 16.9092C16.9196 17.3147 16.6045 17.7965 16.39 18.3267C16.1756 18.8569 16.066 19.4252 16.0676 19.9988Z" fill="white"/>
<path d="M27.2696 14.56C26.9542 14.558 26.6465 14.461 26.3849 14.2813C26.1233 14.1016 25.9196 13.847 25.7993 13.5496C25.679 13.2522 25.6475 12.9252 25.7086 12.6096C25.7698 12.294 25.921 12.0038 26.1432 11.7755C26.3654 11.5472 26.6488 11.391 26.9577 11.3263C27.2667 11.2616 27.5875 11.2915 27.8798 11.4121C28.1722 11.5327 28.4232 11.7387 28.6013 12.0042C28.7793 12.2697 28.8766 12.583 28.8808 12.9047C28.8835 13.1219 28.8437 13.3374 28.7639 13.5387C28.684 13.74 28.5656 13.923 28.4156 14.0771C28.2656 14.2312 28.087 14.3533 27.8903 14.4362C27.6935 14.5191 27.4825 14.5612 27.2696 14.56Z" fill="white"/>
<defs>
<linearGradient id="paint0_linear_87_803" x1="48" y1="-12.5" x2="-8.5" y2="63" gradientUnits="userSpaceOnUse">
<stop stop-color="#515BD4"/>
<stop offset="0.260417" stop-color="#8134AF"/>
<stop offset="0.526042" stop-color="#DD2A7B"/>
<stop offset="0.75" stop-color="#FEDA77"/>
<stop offset="1" stop-color="#FF8855"/>
</linearGradient>
</defs>
</svg>
