<svg width="70" height="70" viewBox="0 0 70 70" fill="none" xmlns="http://www.w3.org/2000/svg">
<g clip-path="url(#clip0_354_130)">
<path d="M62.5315 7.01472C53.3198 -2.33791 38.3388 -2.33791 29.1335 7.01472C21.1451 15.1258 20.0918 27.6469 25.9623 36.9295L0.615234 62.6704L7.83468 70.0001L33.2127 44.2337C37.0524 46.7047 41.4406 47.9342 45.8357 47.9342C51.8824 47.9342 57.9291 45.5974 62.5315 40.9246C71.7368 31.5714 71.7368 16.361 62.5315 7.01472ZM59.4108 37.7549C51.9266 45.3537 39.739 45.3537 32.2548 37.7549C24.7706 30.1497 24.7706 17.782 32.2548 10.1832C35.9997 6.3809 40.918 4.47945 45.8363 4.47945C50.7482 4.47945 55.6659 6.3809 59.4114 10.1832C66.8944 17.782 66.8944 30.1504 59.4108 37.7549Z" fill="white"/>
<path d="M58.3198 31.2576V12.0273H53.3074V31.2576H48.6917V18.4413H43.6793V31.2576H39.0637V23.9662H34.0513V31.2576H31.1006V32.4864H61.3653V31.2576H58.3198Z" fill="#3CD35A"/>
</g>
<defs>
<clipPath id="clip0_354_130">
<rect width="68.871" height="70" fill="white" transform="translate(0.564453)"/>
</clipPath>
</defs>
</svg>
