<svg width="31" height="35" viewBox="0 0 31 35" fill="none" xmlns="http://www.w3.org/2000/svg">
<path d="M20.7194 19.2969C21.563 20.1302 22.3538 20.1302 23.0919 19.2969L30.2092 12.3438C30.8946 11.5625 30.8946 10.7813 30.2092 10C29.4184 9.21875 28.6276 9.21875 27.8368 10L20.7194 2.96875C21.563 2.23958 21.563 1.48438 20.7194 0.703125C19.9813 -0.130208 19.2169 -0.130208 18.4261 0.703125L11.3087 7.5C10.5179 8.28125 10.5179 9.0625 11.3087 9.84375C12.0468 10.5729 12.8376 10.5729 13.6812 9.84375L16.0536 12.1875L11.3087 16.7969C10.5179 16.1198 9.72707 16.1198 8.93626 16.7969L0.711765 25C-0.0790518 25.7813 -0.0790518 26.5625 0.711765 27.3438L2.84697 30C3.69051 30.8333 4.48132 30.8333 5.21942 30L13.523 21.7969C13.8393 21.4844 13.9975 21.1068 13.9975 20.6641C13.9975 20.2214 13.8393 19.8438 13.523 19.5313L18.1888 14.8438L20.5613 17.1875C19.9286 17.8125 19.9813 18.5156 20.7194 19.2969ZM18.4261 10L16.0536 7.65625L18.4261 5.3125L25.4643 12.3438L23.0919 14.6875L20.7194 12.3438L18.4261 10Z" fill="#503279"/>
</svg>
