<svg width="24" height="24" viewBox="0 0 24 24" fill="none" xmlns="http://www.w3.org/2000/svg">
<path d="M16.793 5.793L12.293 10.293L13.707 11.707L18.207 7.207L21 10V3H14L16.793 5.793Z" fill="white"/>
<path d="M16.422 13.446C16.2299 13.2714 15.9774 13.1782 15.7178 13.1862C15.4583 13.1943 15.212 13.3028 15.031 13.489L12.638 15.95C12.062 15.84 10.904 15.479 9.71204 14.29C8.52004 13.097 8.15904 11.936 8.05204 11.364L10.511 8.97C10.6975 8.78913 10.8062 8.54282 10.8142 8.28321C10.8222 8.02359 10.7289 7.77104 10.554 7.579L6.85904 3.516C6.68408 3.32336 6.44092 3.20651 6.18119 3.19026C5.92147 3.17402 5.66564 3.25966 5.46804 3.429L3.29904 5.29C3.12569 5.46289 3.0221 5.69358 3.00804 5.938C2.99304 6.188 2.70704 12.11 7.29904 16.704C11.305 20.71 16.323 21.003 17.705 21.003C17.907 21.003 18.031 20.997 18.064 20.995C18.3086 20.9813 18.5394 20.8777 18.712 20.704L20.572 18.533C20.7415 18.3355 20.8273 18.0798 20.8113 17.8201C20.7952 17.5603 20.6785 17.3171 20.486 17.142L16.422 13.446V13.446Z" fill="white"/>
</svg>
