<svg width="37" height="35" viewBox="0 0 37 35" fill="none" xmlns="http://www.w3.org/2000/svg">
<path opacity="0.3" d="M18.5002 4.6521L7.7085 9.18752V16.0417C7.7085 22.6333 12.3027 28.7146 18.5002 30.5229C24.6977 28.7292 29.2918 22.6333 29.2918 16.0417V9.18752L18.5002 4.6521ZM22.3543 18.3604L23.7418 24.0188L18.5002 21.0292L13.2585 24.0188L14.646 18.375L10.021 14.5979L16.126 14.1021L18.5002 8.77918L20.8743 14.0875L26.9793 14.5833L22.3543 18.3604Z" fill="#B293DD"/>
<path d="M22.3542 18.3605L23.7417 24.0188L18.5 21.0292L13.2583 24.0188L14.6458 18.375L10.0208 14.598L16.1258 14.1021L18.5 8.77921L20.8742 14.0875L26.9792 14.5834L22.3542 18.3605ZM18.5 4.65212L29.2917 9.18754V16.0417C29.2917 22.6334 24.6975 28.7146 18.5 30.523C12.3025 28.7146 7.70833 22.6334 7.70833 16.0417V9.18754L18.5 4.65212ZM18.5 1.45837L4.625 7.29171V16.0417C4.625 24.1355 10.545 31.7042 18.5 33.5417C26.455 31.7042 32.375 24.1355 32.375 16.0417V7.29171L18.5 1.45837Z" fill="#503279"/>
</svg>
