<svg width="60" height="71" viewBox="0 0 60 71" fill="none" xmlns="http://www.w3.org/2000/svg">
<g clip-path="url(#clip0_34_352)">
<path d="M49.0137 34.3234H46.7534V21.035H43.7969V18.6658H49.0137V34.3234Z" fill="#00A9A0"/>
<path d="M49.0137 69.5841H8.37844C3.99947 69.5841 0.437073 65.85 0.437073 61.2601V14.1389H2.69735V61.2601C2.69735 64.5437 5.24591 67.2149 8.37844 67.2149H46.7534V63.4269H49.0137V69.5841V69.5841Z" fill="#00A9A0"/>
<path d="M49.0137 21.0351H7.81255C3.79132 21.0351 0.511456 17.6882 0.4381 13.5457H0.437073L0.438306 13.4044C0.510429 9.20636 3.7907 5.8147 7.81276 5.8147H11.1031V8.18393H7.81255C5.01433 8.18393 2.73372 10.5512 2.69755 13.4753C2.7331 16.3918 4.96707 18.6658 7.81255 18.6658H46.7534V8.18393H24.7254V5.8147H49.0137V21.0351V21.0351Z" fill="#00A9A0"/>
<path d="M43.5648 19.8503H41.3045V13.8954H22.0009V11.5261H43.5648V19.8503Z" fill="#00A9A0"/>
<path d="M13.8276 11.5261H5.65399V13.8954H13.8276V11.5261Z" fill="#00A9A0"/>
<path d="M23.131 16.7514H12.6974V2.02344L17.9143 5.38882L23.1312 2.02344V16.7514H23.131ZM14.9577 14.3822H20.8707V6.26328L17.9141 8.17051L14.9575 6.26328V14.3822H14.9577Z" fill="#00A9A0"/>
<path d="M9.50856 24.1343H7.24829V64.1157H9.50856V24.1343Z" fill="#00A9A0"/>
<path d="M47.8835 61.5891C41.1682 61.5891 35.705 55.8625 35.705 48.8235C35.705 41.7843 41.1682 36.0576 47.8835 36.0576C54.599 36.0576 60.0623 41.7843 60.0623 48.8235C60.0623 55.8625 54.599 61.5891 47.8835 61.5891ZM47.8835 38.4271C42.4147 38.4271 37.9652 43.0908 37.9652 48.8237C37.9652 54.5561 42.4145 59.2201 47.8835 59.2201C53.3526 59.2201 57.802 54.5564 57.802 48.8237C57.802 43.0908 53.3526 38.4271 47.8835 38.4271Z" fill="#00A9A0"/>
<path d="M46.7067 50.2767C46.6169 50.2767 46.5516 50.2767 46.4863 50.2767C45.5394 50.277 44.5924 50.2776 43.6455 50.277C42.7319 50.2763 42.0779 49.5029 42.2312 48.5614C42.3197 48.018 42.6382 47.6303 43.1517 47.4634C43.3432 47.4011 43.5526 47.377 43.7544 47.3751C44.6735 47.366 45.5928 47.371 46.5119 47.3703C46.5711 47.3703 46.6303 47.365 46.7071 47.3611C46.7071 47.2799 46.7071 47.2118 46.7071 47.1438C46.7071 46.1454 46.7143 45.1469 46.7049 44.1486C46.6967 43.2765 47.4023 42.549 48.276 42.6709C48.823 42.7471 49.3056 43.157 49.4304 43.8006C49.461 43.9584 49.4762 44.1221 49.477 44.283C49.4813 45.235 49.4791 46.1868 49.4791 47.1388C49.4791 47.2075 49.4791 47.276 49.4791 47.371C49.5574 47.371 49.6215 47.371 49.6856 47.371C50.6435 47.371 51.6015 47.3693 52.5594 47.3716C53.3698 47.3738 53.992 48.0466 53.9729 48.8942C53.9593 49.4917 53.5241 50.0616 52.9515 50.2156C52.8089 50.2539 52.6576 50.2733 52.5103 50.2742C51.5801 50.2793 50.6497 50.2767 49.7195 50.2765C49.6484 50.2765 49.5773 50.2765 49.4789 50.2765C49.4789 50.3622 49.4789 50.4348 49.4789 50.5074C49.4789 51.4941 49.4858 52.481 49.476 53.4677C49.47 54.0731 49.2271 54.5426 48.703 54.8399C48.0058 55.2351 47.0252 54.8293 46.7971 54.0324C46.7425 53.8416 46.7125 53.6361 46.7106 53.4369C46.7018 52.4502 46.7063 51.4635 46.7061 50.4766C46.7067 50.42 46.7067 50.3627 46.7067 50.2767Z" fill="#00A9A0"/>
</g>
<defs>
<clipPath id="clip0_34_352">
<rect width="60" height="70" fill="white" transform="translate(0 0.7146)"/>
</clipPath>
</defs>
</svg>
