<svg width="41" height="40" viewBox="0 0 41 40" fill="none" xmlns="http://www.w3.org/2000/svg">
<rect x="0.597046" width="40" height="40" rx="5" fill="#00ACEE"/>
<path d="M32.0976 10.9826C31.759 11.5796 31.3519 12.1213 30.828 12.5707C30.7413 12.6451 30.6159 12.7219 30.6913 12.8613C30.7659 12.9992 30.8985 12.9357 31.0095 12.9092C31.312 12.8367 31.6127 12.7569 31.9152 12.6847C32.0996 12.6406 32.3048 12.5519 32.44 12.7626C32.5714 12.9675 32.4312 13.1181 32.3035 13.2719C31.8562 13.8111 31.3425 14.2795 30.7915 14.7086C30.6502 14.8187 30.5114 14.9102 30.5201 15.1291C30.5866 16.7895 30.3125 18.4045 29.8531 19.9935C29.2613 21.6849 28.4755 23.273 27.3651 24.6905C25.684 26.8367 23.5783 28.3961 21.0025 29.3095C20.8629 29.359 20.7277 29.4208 20.5904 29.4768C18.9648 29.9223 17.318 30.2113 15.6238 30.159C13.8389 30.104 12.1186 29.7467 10.4635 29.0742C10.1577 28.95 9.94571 28.7508 9.98914 28.4068C10.0343 28.0487 10.2831 27.89 10.6363 27.846C12.2572 27.6442 13.7446 27.082 15.0942 26.161C15.2109 26.0814 15.4057 26.0316 15.3776 25.8548C15.3468 25.6615 15.1433 25.7145 15.0076 25.6889C13.5206 25.4081 12.3265 24.6769 11.4756 23.4106C11.3011 23.151 11.1877 22.8832 11.3539 22.58C11.5124 22.2908 11.7914 22.2581 12.0846 22.2529C12.3815 22.2477 12.6784 22.2331 12.9744 22.2104C13.0543 22.2043 13.1644 22.186 13.1624 22.0676C13.1608 21.9726 13.0674 21.9689 12.9991 21.949C12.9137 21.924 12.8279 21.8984 12.7406 21.8815C10.5452 21.4567 9.65562 19.7988 9.2031 18.0721C9.0931 17.6523 9.4933 17.2852 9.93135 17.3635C10.1937 17.4103 10.4502 17.4898 10.7096 17.5531C10.8123 17.5782 10.9216 17.6032 10.9914 17.494C11.0688 17.3726 10.9704 17.2949 10.8952 17.2321C9.96554 16.4567 9.46127 15.4339 9.17027 14.2855C9.13265 13.4976 9.09276 12.7108 9.35732 11.9453C9.5984 11.2477 10.0676 11.1247 10.5902 11.6376C10.9925 12.0323 11.3713 12.4526 11.8429 12.7707C14.2033 14.7836 16.9478 15.8523 20.0262 16.1081C20.3076 16.1314 20.3652 16.0089 20.3326 15.7705C20.0929 14.0178 20.6296 12.5228 21.836 11.2508C22.8475 10.3813 23.9979 9.84695 25.3509 9.83897C26.6845 9.83099 27.8577 10.284 28.8411 11.1791C29.0853 11.4013 29.2896 11.4458 29.5932 11.3619C30.2382 11.1835 30.8744 10.9839 31.483 10.7057C31.8073 10.5572 32.0298 10.5851 32.0976 10.9826Z" fill="white"/>
</svg>
