<svg width="41" height="40" viewBox="0 0 41 40" fill="none" xmlns="http://www.w3.org/2000/svg">
<rect x="0.597046" width="40" height="40" rx="5" fill="#E62117"/>
<path d="M16.8489 11.5203C19.916 13.4117 22.9831 15.3031 26.0502 17.1947C26.9212 17.7319 27.7832 18.2842 28.6658 18.8017C29.1706 19.0976 29.4605 19.497 29.4844 20.0833C29.3932 20.5822 29.1085 20.9213 28.6746 21.1857C26.4242 22.5572 24.1837 23.9452 21.9403 25.3285C21.8153 25.4055 21.6961 25.4922 21.5743 25.5744C19.8742 26.6125 18.1697 27.6433 16.4769 28.6934C16.0014 28.9883 15.5302 29.1415 15.0125 28.855C14.5009 28.5719 14.3474 28.1045 14.3483 27.5395C14.357 22.3472 14.3559 17.1548 14.3576 11.9626C14.8515 10.9036 15.5689 10.7037 16.5482 11.35C16.6442 11.4131 16.7486 11.4638 16.8489 11.5203Z" fill="white"/>
</svg>
